{"glyphs":{"0":{"ha":704,"x_min":54,"x_max":650,"o":"m 650 440 q 635 258 650 341 q 583 116 619 176 q 488 22 547 56 q 343 -12 429 -12 q 209 17 264 -12 q 119 103 153 46 q 70 244 85 160 q 54 437 54 328 q 70 619 54 536 q 121 762 85 702 q 216 856 157 822 q 361 889 275 889 q 495 860 440 889 q 585 774 551 831 q 635 634 620 718 q 650 440 650 550 m 564 433 q 558 554 564 500 q 543 652 553 609 q 515 726 532 694 q 475 778 498 758 q 422 809 452 799 q 355 819 392 819 q 246 787 288 819 q 181 703 204 755 q 149 584 157 651 q 141 445 141 517 q 153 272 141 345 q 189 152 164 199 q 254 82 214 104 q 349 59 293 59 q 427 73 394 59 q 484 113 460 87 q 524 174 508 139 q 548 251 539 210 q 560 338 557 292 q 564 433 564 385 z "},"1":{"ha":704,"x_min":128,"x_max":623,"o":"m 623 34 q 621 18 623 24 q 615 7 618 12 q 608 2 612 3 q 600 0 604 0 l 155 0 q 147 2 151 0 q 140 7 143 3 q 134 18 136 12 q 132 34 132 24 q 134 49 132 42 q 139 60 136 56 q 146 67 142 64 q 155 69 150 69 l 349 69 l 349 789 l 163 676 q 146 668 153 669 q 135 671 139 667 q 130 682 131 674 q 128 701 128 690 q 129 716 128 709 q 132 727 130 722 q 137 735 134 732 q 144 742 140 739 l 355 876 q 360 879 357 878 q 368 881 363 880 q 378 883 373 882 q 391 883 384 883 q 411 882 403 883 q 424 878 419 880 q 431 873 429 876 q 433 865 433 869 l 433 69 l 600 69 q 609 67 604 69 q 616 60 613 64 q 621 49 619 56 q 623 34 623 42 z "},"2":{"ha":704,"x_min":87,"x_max":615,"o":"m 615 38 q 613 23 615 30 q 609 11 612 16 q 601 3 606 5 q 590 0 596 0 l 116 0 q 104 2 110 0 q 95 8 99 4 q 89 20 91 13 q 87 38 87 28 q 87 54 87 47 q 90 66 88 60 q 96 77 92 71 q 104 88 99 82 l 284 278 q 391 404 351 349 q 452 505 431 460 q 479 586 473 549 q 486 655 486 623 q 475 717 486 688 q 444 769 465 747 q 394 804 424 791 q 324 817 363 817 q 248 805 281 817 q 188 779 214 793 q 146 752 163 764 q 121 741 129 741 q 113 743 117 741 q 107 749 110 745 q 104 760 105 753 q 103 776 103 767 q 104 789 103 784 q 106 799 104 795 q 110 808 107 804 q 120 819 112 812 q 146 837 127 825 q 193 860 165 848 q 256 881 222 872 q 328 889 291 889 q 436 871 390 889 q 512 821 481 852 q 557 749 543 790 q 572 663 572 708 q 565 579 572 621 q 535 488 558 537 q 467 379 511 439 q 349 241 422 319 l 189 74 l 590 74 q 600 72 595 74 q 608 64 605 69 q 613 53 612 60 q 615 38 615 46 z "},"3":{"ha":704,"x_min":77,"x_max":606,"o":"m 606 248 q 588 143 606 191 q 532 61 569 96 q 441 7 496 26 q 314 -12 386 -12 q 233 -4 271 -12 q 165 14 195 3 q 116 35 136 24 q 92 50 96 45 q 84 58 87 54 q 80 67 82 62 q 78 80 79 72 q 77 98 77 87 q 81 126 77 119 q 93 134 85 134 q 118 122 99 134 q 166 97 136 111 q 234 72 195 83 q 321 60 273 60 q 406 73 370 60 q 468 110 443 86 q 506 165 493 133 q 518 235 518 197 q 502 309 518 276 q 455 366 486 342 q 380 402 425 389 q 281 415 336 415 l 195 415 q 186 417 191 415 q 178 424 182 419 q 172 435 174 428 q 170 452 170 441 q 172 467 170 460 q 177 478 174 473 q 185 484 180 482 q 195 486 189 486 l 271 486 q 357 499 319 486 q 422 536 395 512 q 464 594 450 560 q 479 669 479 627 q 469 726 479 699 q 440 774 459 753 q 391 806 420 794 q 322 817 361 817 q 247 805 281 817 q 187 778 213 793 q 144 751 161 764 q 121 739 127 739 q 113 741 117 739 q 107 746 110 742 q 104 757 105 750 q 103 776 103 764 q 104 789 103 783 q 106 800 104 795 q 111 809 109 804 q 120 819 114 813 q 145 838 126 825 q 192 861 164 850 q 254 881 219 873 q 330 889 290 889 q 434 873 390 889 q 508 828 479 857 q 551 761 537 800 q 566 676 566 722 q 554 598 566 634 q 522 533 543 562 q 468 486 500 505 q 396 460 437 467 l 396 459 q 480 437 441 455 q 546 392 518 420 q 590 327 574 364 q 606 248 606 290 z "},"4":{"ha":704,"x_min":37,"x_max":658,"o":"m 658 248 q 651 222 658 232 q 633 212 645 212 l 522 212 l 522 14 q 519 6 522 9 q 513 1 517 3 q 500 -3 508 -1 q 480 -4 492 -4 q 461 -3 469 -4 q 448 1 453 -1 q 442 6 444 3 q 440 14 440 9 l 440 212 l 63 212 q 52 214 57 212 q 44 220 47 216 q 38 231 40 224 q 37 248 37 237 q 37 263 37 256 q 40 276 38 270 q 44 288 41 282 q 52 300 47 294 l 391 863 q 400 871 395 867 q 413 877 405 875 q 431 881 420 880 q 456 882 442 882 q 484 880 472 882 q 505 877 496 879 q 517 870 513 874 q 522 861 522 866 l 522 283 l 633 283 q 651 274 644 283 q 658 248 658 265 m 440 807 l 439 807 l 123 283 l 440 283 l 440 807 z "},"5":{"ha":704,"x_min":71,"x_max":612,"o":"m 612 280 q 589 156 612 210 q 524 64 566 102 q 424 8 482 27 q 294 -12 365 -12 q 217 -5 254 -12 q 152 10 180 1 q 105 27 123 18 q 83 40 87 35 q 76 47 78 44 q 73 55 75 50 q 71 65 72 59 q 71 81 71 72 q 72 96 71 89 q 75 107 73 102 q 81 114 77 112 q 88 117 84 117 q 110 108 95 117 q 149 89 124 99 q 211 69 174 78 q 299 60 248 60 q 389 72 347 60 q 460 110 430 84 q 508 175 491 136 q 526 271 526 215 q 511 354 526 319 q 465 414 496 390 q 388 449 435 437 q 279 460 342 460 q 208 456 237 460 q 155 452 179 452 q 129 460 137 452 q 121 493 121 469 l 121 838 q 131 867 121 857 q 159 878 142 878 l 533 878 q 543 875 538 878 q 551 868 548 873 q 556 857 555 863 q 558 841 558 850 q 552 814 558 825 q 533 804 545 804 l 197 804 l 197 526 q 247 530 221 529 q 308 530 272 530 q 443 512 385 530 q 537 460 500 493 q 594 380 575 427 q 612 280 612 334 z "},"6":{"ha":704,"x_min":81,"x_max":642,"o":"m 642 279 q 626 174 642 227 q 574 81 610 122 q 484 14 539 40 q 351 -12 429 -12 q 259 2 299 -12 q 189 40 219 15 q 138 101 159 64 q 105 184 118 137 q 86 287 92 231 q 81 408 81 342 q 87 525 81 466 q 111 636 94 583 q 154 736 127 690 q 220 815 180 782 q 315 868 260 849 q 440 888 369 888 q 490 885 465 888 q 537 877 515 882 q 573 866 558 872 q 592 856 587 860 q 599 849 597 852 q 602 841 601 845 q 604 832 604 837 q 605 820 605 827 q 605 806 605 812 q 603 796 604 800 q 597 790 601 792 q 589 787 594 787 q 569 792 581 787 q 537 803 556 797 q 492 814 519 809 q 430 819 466 819 q 312 790 361 819 q 231 713 263 762 q 184 602 199 665 q 166 470 168 539 q 209 492 185 481 q 260 511 232 503 q 319 525 288 519 q 385 530 350 530 q 508 511 458 530 q 587 457 557 491 q 630 377 617 422 q 642 279 642 331 m 555 271 q 547 349 555 314 q 517 410 538 385 q 461 449 496 435 q 374 463 426 463 q 317 457 346 463 q 261 444 288 452 q 211 423 235 435 q 168 397 186 411 q 180 238 168 302 q 217 133 193 173 q 278 76 241 94 q 362 59 314 59 q 449 78 412 59 q 509 129 486 98 q 544 197 533 159 q 555 271 555 235 z "},"7":{"ha":704,"x_min":73,"x_max":635,"o":"m 635 841 q 634 826 635 833 q 632 811 633 819 q 628 797 631 804 q 623 782 626 790 l 292 22 q 284 8 288 14 q 274 1 280 3 q 259 -3 268 -2 q 237 -4 250 -4 q 213 -2 222 -4 q 201 4 205 0 q 199 14 198 8 q 203 26 200 19 l 548 804 l 98 804 q 80 814 86 804 q 73 841 73 825 q 75 857 73 850 q 80 868 77 863 q 88 875 83 873 q 98 878 92 878 l 604 878 q 618 876 612 878 q 628 869 625 873 q 633 857 631 864 q 635 841 635 850 z "},"8":{"ha":704,"x_min":63,"x_max":639,"o":"m 639 220 q 619 121 639 164 q 561 48 599 78 q 469 4 524 19 q 346 -12 415 -12 q 229 2 281 -12 q 140 43 177 16 q 83 110 103 71 q 63 201 63 150 q 78 280 63 245 q 120 346 93 316 q 188 401 148 376 q 277 450 227 427 q 199 496 233 472 q 143 549 165 521 q 109 608 120 576 q 97 675 97 640 q 113 757 97 718 q 160 825 128 795 q 241 872 192 854 q 358 889 291 889 q 468 873 421 889 q 545 830 514 857 q 590 767 575 803 q 605 692 605 731 q 593 622 605 655 q 557 560 581 589 q 501 506 534 531 q 424 458 467 480 q 516 407 476 433 q 584 353 557 382 q 625 292 611 324 q 639 220 639 259 m 519 683 q 508 740 519 714 q 475 783 497 765 q 422 810 454 801 q 351 820 391 820 q 225 783 269 820 q 182 682 182 746 q 193 627 182 652 q 225 579 203 602 q 279 535 246 557 q 357 492 312 514 q 477 577 435 530 q 519 683 519 625 m 552 208 q 539 270 552 242 q 500 322 526 298 q 435 369 474 346 q 343 416 395 391 q 258 370 294 393 q 197 323 221 347 q 162 271 174 298 q 150 211 150 244 q 201 98 150 138 q 353 58 252 58 q 502 98 451 58 q 552 208 552 138 z "},"9":{"ha":704,"x_min":62,"x_max":624,"o":"m 624 470 q 616 353 624 412 q 592 241 609 294 q 547 141 575 187 q 478 61 519 95 q 382 8 437 27 q 254 -12 326 -12 q 198 -8 224 -12 q 150 1 171 -4 q 115 12 129 6 q 95 23 101 18 q 86 37 89 28 q 83 60 83 46 q 83 77 83 71 q 86 86 84 83 q 91 92 88 90 q 99 93 94 93 q 119 87 106 93 q 153 76 132 82 q 201 64 173 70 q 264 59 229 59 q 386 87 335 59 q 470 162 437 115 q 520 272 503 210 q 538 404 536 334 q 446 365 500 382 q 323 347 393 347 q 197 368 248 347 q 117 424 147 389 q 74 505 87 458 q 62 604 62 551 q 77 709 62 658 q 127 800 93 760 q 216 865 161 840 q 349 889 271 889 q 440 875 400 889 q 511 836 481 861 q 564 773 542 810 q 598 689 585 736 q 618 587 612 642 q 624 470 624 532 m 537 477 q 524 636 537 571 q 485 743 511 702 q 422 802 460 783 q 337 820 385 820 q 251 801 286 820 q 192 752 215 783 q 159 685 170 722 q 149 611 149 648 q 158 532 149 568 q 189 470 168 496 q 246 430 211 444 q 333 415 281 415 q 445 432 391 415 q 537 477 498 449 z "},"\u0000":{"ha":0,"x_min":0,"x_max":0,"o":""},"\r":{"ha":0,"x_min":0,"x_max":0,"o":""}," ":{"ha":314,"x_min":0,"x_max":0,"o":""}," ":{"ha":314,"x_min":0,"x_max":0,"o":""},"A":{"ha":783,"x_min":27,"x_max":755,"o":"m 751 28 q 755 11 755 18 q 750 1 755 5 q 737 -3 746 -2 q 713 -4 728 -4 q 691 -3 699 -4 q 677 0 682 -2 q 670 5 673 2 q 666 14 668 9 l 582 248 l 197 248 l 116 15 q 112 7 115 10 q 104 1 109 3 q 91 -3 100 -1 q 70 -4 83 -4 q 46 -3 56 -4 q 32 2 37 -1 q 27 12 28 5 q 31 28 27 18 l 338 863 q 345 872 340 868 q 355 878 349 876 q 371 881 361 880 q 391 882 380 882 q 413 881 404 882 q 428 878 422 880 q 438 872 435 876 q 444 863 442 868 l 751 28 m 387 789 l 387 789 l 221 317 l 557 317 l 387 789 z "},"À":{"ha":783,"x_min":27,"x_max":755,"o":"m 751 28 q 755 11 755 18 q 750 1 755 5 q 737 -3 746 -2 q 713 -4 728 -4 q 691 -3 699 -4 q 677 0 682 -2 q 670 5 673 2 q 666 14 668 9 l 582 248 l 197 248 l 116 15 q 112 7 115 10 q 104 1 109 3 q 91 -3 100 -1 q 70 -4 83 -4 q 46 -3 56 -4 q 32 2 37 -1 q 27 12 28 5 q 31 28 27 18 l 338 863 q 345 872 340 868 q 355 878 349 876 q 371 881 361 880 q 391 882 380 882 q 413 881 404 882 q 428 878 422 880 q 438 872 435 876 q 444 863 442 868 l 751 28 m 387 789 l 387 789 l 221 317 l 557 317 l 387 789 m 416 975 q 422 964 420 968 q 422 956 425 959 q 413 951 420 953 q 395 949 407 949 q 378 950 385 949 q 365 953 371 951 q 354 959 359 955 q 342 969 349 962 l 187 1118 q 181 1128 182 1123 q 183 1137 180 1133 q 196 1143 187 1141 q 220 1145 205 1145 q 241 1145 232 1145 q 258 1142 250 1144 q 272 1135 265 1139 q 285 1123 278 1131 l 416 975 m 80 878 z "},"Á":{"ha":783,"x_min":27,"x_max":755,"o":"m 751 28 q 755 11 755 18 q 750 1 755 5 q 737 -3 746 -2 q 713 -4 728 -4 q 691 -3 699 -4 q 677 0 682 -2 q 670 5 673 2 q 666 14 668 9 l 582 248 l 197 248 l 116 15 q 112 7 115 10 q 104 1 109 3 q 91 -3 100 -1 q 70 -4 83 -4 q 46 -3 56 -4 q 32 2 37 -1 q 27 12 28 5 q 31 28 27 18 l 338 863 q 345 872 340 868 q 355 878 349 876 q 371 881 361 880 q 391 882 380 882 q 413 881 404 882 q 428 878 422 880 q 438 872 435 876 q 444 863 442 868 l 751 28 m 387 789 l 387 789 l 221 317 l 557 317 l 387 789 m 488 1123 q 501 1135 494 1131 q 515 1142 507 1139 q 532 1145 522 1144 q 553 1145 541 1145 q 576 1143 568 1145 q 589 1137 585 1141 q 592 1128 593 1133 q 586 1118 591 1123 l 431 969 q 419 959 425 962 q 408 953 414 955 q 394 950 401 951 q 377 949 387 949 q 359 951 366 949 q 351 956 353 953 q 350 964 349 959 q 357 975 351 968 l 488 1123 m 249 878 z "},"Â":{"ha":783,"x_min":27,"x_max":755,"o":"m 751 28 q 755 11 755 18 q 750 1 755 5 q 737 -3 746 -2 q 713 -4 728 -4 q 691 -3 699 -4 q 677 0 682 -2 q 670 5 673 2 q 666 14 668 9 l 582 248 l 197 248 l 116 15 q 112 7 115 10 q 104 1 109 3 q 91 -3 100 -1 q 70 -4 83 -4 q 46 -3 56 -4 q 32 2 37 -1 q 27 12 28 5 q 31 28 27 18 l 338 863 q 345 872 340 868 q 355 878 349 876 q 371 881 361 880 q 391 882 380 882 q 413 881 404 882 q 428 878 422 880 q 438 872 435 876 q 444 863 442 868 l 751 28 m 387 789 l 387 789 l 221 317 l 557 317 l 387 789 m 402 1145 q 419 1145 412 1145 q 431 1142 426 1144 q 440 1137 436 1140 q 448 1131 444 1135 l 600 972 q 605 962 604 966 q 603 955 606 958 q 593 951 600 952 q 576 949 586 949 q 551 950 560 949 q 535 953 541 951 q 526 957 530 954 q 519 962 523 959 l 402 1091 l 281 966 q 270 957 275 960 q 258 952 265 954 q 242 950 251 951 q 219 949 233 949 q 199 951 206 949 q 189 956 192 953 q 188 962 186 958 q 195 972 189 966 l 357 1131 q 366 1137 361 1135 q 375 1142 370 1140 q 386 1145 380 1144 q 402 1145 393 1145 m 87 878 z "},"Ã":{"ha":783,"x_min":27,"x_max":755,"o":"m 751 28 q 755 11 755 18 q 750 1 755 5 q 737 -3 746 -2 q 713 -4 728 -4 q 691 -3 699 -4 q 677 0 682 -2 q 670 5 673 2 q 666 14 668 9 l 582 248 l 197 248 l 116 15 q 112 7 115 10 q 104 1 109 3 q 91 -3 100 -1 q 70 -4 83 -4 q 46 -3 56 -4 q 32 2 37 -1 q 27 12 28 5 q 31 28 27 18 l 338 863 q 345 872 340 868 q 355 878 349 876 q 371 881 361 880 q 391 882 380 882 q 413 881 404 882 q 428 878 422 880 q 438 872 435 876 q 444 863 442 868 l 751 28 m 387 789 l 387 789 l 221 317 l 557 317 l 387 789 m 552 1086 q 561 1097 552 1094 q 587 1100 569 1100 q 614 1095 608 1100 q 620 1072 620 1089 q 587 983 620 1017 q 494 949 554 949 q 434 962 460 949 q 385 991 408 975 q 342 1019 363 1006 q 299 1032 322 1032 q 255 1013 267 1032 q 243 963 243 994 q 240 956 243 959 q 232 952 237 954 q 221 950 227 950 q 208 949 214 949 q 180 955 186 949 q 175 977 175 961 q 184 1029 175 1006 q 210 1067 193 1052 q 250 1092 227 1083 q 300 1100 273 1100 q 361 1087 335 1100 q 409 1059 387 1074 q 452 1030 431 1043 q 495 1017 472 1017 q 537 1033 522 1017 q 552 1086 552 1048 m 77 878 z "},"Ä":{"ha":783,"x_min":27,"x_max":755,"o":"m 751 28 q 755 11 755 18 q 750 1 755 5 q 737 -3 746 -2 q 713 -4 728 -4 q 691 -3 699 -4 q 677 0 682 -2 q 670 5 673 2 q 666 14 668 9 l 582 248 l 197 248 l 116 15 q 112 7 115 10 q 104 1 109 3 q 91 -3 100 -1 q 70 -4 83 -4 q 46 -3 56 -4 q 32 2 37 -1 q 27 12 28 5 q 31 28 27 18 l 338 863 q 345 872 340 868 q 355 878 349 876 q 371 881 361 880 q 391 882 380 882 q 413 881 404 882 q 428 878 422 880 q 438 872 435 876 q 444 863 442 868 l 751 28 m 387 789 l 387 789 l 221 317 l 557 317 l 387 789 m 313 1035 q 301 991 313 1002 q 259 979 290 979 q 218 990 229 979 q 207 1034 207 1002 q 218 1078 207 1067 q 260 1090 230 1090 q 301 1079 290 1090 q 313 1035 313 1067 m 585 1035 q 573 991 585 1002 q 531 979 562 979 q 490 990 501 979 q 479 1034 479 1002 q 490 1078 479 1067 q 532 1090 502 1090 q 573 1079 562 1090 q 585 1035 585 1067 m 106 878 z "},"Ā":{"ha":783,"x_min":27,"x_max":755,"o":"m 751 28 q 755 11 755 18 q 750 1 755 5 q 737 -3 746 -2 q 713 -4 728 -4 q 691 -3 699 -4 q 677 0 682 -2 q 670 5 673 2 q 666 14 668 9 l 582 248 l 197 248 l 116 15 q 112 7 115 10 q 104 1 109 3 q 91 -3 100 -1 q 70 -4 83 -4 q 46 -3 56 -4 q 32 2 37 -1 q 27 12 28 5 q 31 28 27 18 l 338 863 q 345 872 340 868 q 355 878 349 876 q 371 881 361 880 q 391 882 380 882 q 413 881 404 882 q 428 878 422 880 q 438 872 435 876 q 444 863 442 868 l 751 28 m 387 789 l 387 789 l 221 317 l 557 317 l 387 789 m 573 1069 q 581 1066 577 1069 q 586 1060 584 1064 q 590 1048 589 1055 q 591 1034 591 1042 q 590 1019 591 1025 q 586 1008 589 1013 q 581 1001 584 1003 q 573 998 577 998 l 220 998 q 212 1001 215 998 q 206 1008 208 1003 q 202 1019 203 1013 q 201 1034 201 1025 q 202 1048 201 1042 q 206 1060 203 1055 q 212 1066 208 1064 q 220 1069 215 1069 l 573 1069 m 100 878 z "},"Ă":{"ha":783,"x_min":27,"x_max":755,"o":"m 751 28 q 755 11 755 18 q 750 1 755 5 q 737 -3 746 -2 q 713 -4 728 -4 q 691 -3 699 -4 q 677 0 682 -2 q 670 5 673 2 q 666 14 668 9 l 582 248 l 197 248 l 116 15 q 112 7 115 10 q 104 1 109 3 q 91 -3 100 -1 q 70 -4 83 -4 q 46 -3 56 -4 q 32 2 37 -1 q 27 12 28 5 q 31 28 27 18 l 338 863 q 345 872 340 868 q 355 878 349 876 q 371 881 361 880 q 391 882 380 882 q 413 881 404 882 q 428 878 422 880 q 438 872 435 876 q 444 863 442 868 l 751 28 m 387 789 l 387 789 l 221 317 l 557 317 l 387 789 m 558 1129 q 547 1054 558 1087 q 514 997 536 1021 q 463 962 493 974 q 395 949 432 949 q 322 963 353 949 q 272 1001 292 977 q 243 1058 252 1025 q 233 1129 233 1091 q 239 1142 233 1138 q 264 1145 245 1145 q 291 1143 283 1145 q 299 1132 299 1141 q 305 1096 299 1122 q 323 1053 311 1069 q 353 1026 335 1036 q 397 1017 371 1017 q 456 1036 434 1017 q 485 1080 478 1055 q 492 1122 492 1106 q 498 1141 492 1137 q 528 1145 503 1145 q 552 1142 547 1145 q 558 1129 558 1138 m 133 878 z "},"Å":{"ha":783,"x_min":27,"x_max":755,"o":"m 751 28 q 755 11 755 18 q 750 1 755 5 q 737 -3 746 -2 q 713 -4 728 -4 q 691 -3 699 -4 q 677 0 682 -2 q 670 5 673 2 q 666 14 668 9 l 582 248 l 197 248 l 116 15 q 112 7 115 10 q 104 1 109 3 q 91 -3 100 -1 q 70 -4 83 -4 q 46 -3 56 -4 q 32 2 37 -1 q 27 12 28 5 q 31 28 27 18 l 338 863 q 345 872 340 868 q 355 878 349 876 q 371 881 361 880 q 391 882 380 882 q 413 881 404 882 q 428 878 422 880 q 438 872 435 876 q 444 863 442 868 l 751 28 m 387 789 l 387 789 l 221 317 l 557 317 l 387 789 m 522 1050 q 512 1000 522 1023 q 487 961 503 977 q 446 934 470 944 q 393 924 422 924 q 338 933 361 924 q 300 959 315 943 q 277 997 285 975 q 270 1045 270 1019 q 278 1094 270 1072 q 303 1134 287 1117 q 344 1160 320 1150 q 398 1169 368 1169 q 489 1137 456 1169 q 522 1050 522 1104 m 461 1045 q 446 1095 461 1074 q 396 1116 431 1116 q 347 1098 363 1116 q 330 1050 330 1080 q 345 997 330 1017 q 397 977 360 977 q 446 997 430 977 q 461 1045 461 1017 m 170 878 z "},"Ǻ":{"ha":783,"x_min":27,"x_max":755,"o":"m 751 28 q 755 11 755 18 q 750 1 755 5 q 737 -3 746 -2 q 713 -4 728 -4 q 691 -3 699 -4 q 677 0 682 -2 q 670 5 673 2 q 666 14 668 9 l 582 248 l 197 248 l 116 15 q 112 7 115 10 q 104 1 109 3 q 91 -3 100 -1 q 70 -4 83 -4 q 46 -3 56 -4 q 32 2 37 -1 q 27 12 28 5 q 31 28 27 18 l 338 863 q 345 872 340 868 q 355 878 349 876 q 371 881 361 880 q 391 882 380 882 q 413 881 404 882 q 428 878 422 880 q 438 872 435 876 q 444 863 442 868 l 751 28 m 387 789 l 387 789 l 221 317 l 557 317 l 387 789 m 408 1300 q 421 1311 414 1307 q 435 1318 428 1316 q 451 1322 442 1321 q 473 1322 460 1322 q 496 1320 488 1322 q 508 1314 505 1318 q 510 1304 512 1310 q 503 1295 509 1299 l 370 1183 q 358 1173 363 1177 q 347 1167 353 1169 q 335 1164 341 1165 q 318 1163 328 1163 q 300 1165 307 1163 q 291 1170 294 1166 q 291 1178 289 1173 q 298 1188 292 1183 l 408 1300 m 497 1029 q 489 986 497 1006 q 464 949 480 965 q 427 925 448 934 q 378 916 405 916 q 326 924 349 916 q 289 947 304 932 q 266 982 273 962 q 258 1025 258 1002 q 266 1069 258 1048 q 290 1105 274 1090 q 328 1129 305 1120 q 380 1138 351 1138 q 429 1130 407 1138 q 466 1107 451 1122 q 489 1073 481 1093 q 497 1029 497 1053 m 441 1025 q 438 1048 441 1037 q 426 1069 434 1060 q 406 1084 418 1078 q 377 1090 394 1090 q 330 1072 346 1090 q 313 1029 313 1055 q 317 1004 313 1016 q 328 983 320 992 q 348 968 336 974 q 378 963 361 963 q 406 968 394 963 q 426 982 418 973 q 437 1002 433 991 q 441 1025 441 1013 m 166 878 z "},"Ą":{"ha":783,"x_min":27,"x_max":773,"o":"m 773 -209 q 772 -222 773 -216 q 768 -231 770 -227 q 761 -236 765 -234 q 745 -241 756 -239 q 723 -245 734 -243 q 701 -247 711 -246 q 681 -248 691 -248 q 626 -242 651 -248 q 584 -226 602 -237 q 556 -196 566 -214 q 547 -152 547 -178 q 549 -130 547 -142 q 559 -105 552 -119 q 577 -75 566 -91 q 608 -40 589 -59 l 665 16 l 582 248 l 197 248 l 116 15 q 112 7 114 10 q 104 1 109 3 q 91 -3 100 -1 q 70 -4 83 -4 q 46 -3 56 -4 q 32 2 37 -1 q 27 12 28 5 q 31 28 27 18 l 338 863 q 345 872 340 868 q 355 878 349 876 q 371 881 361 880 q 391 882 380 882 q 413 881 404 882 q 428 878 422 880 q 438 872 435 876 q 444 863 442 868 l 739 62 q 747 36 745 46 q 747 17 749 26 q 738 -2 745 7 q 718 -25 731 -12 l 657 -85 q 634 -116 640 -102 q 627 -143 627 -130 q 641 -172 627 -162 q 691 -181 655 -181 l 757 -181 q 769 -186 765 -181 q 773 -209 773 -191 m 387 789 l 387 789 l 221 317 l 557 317 l 387 789 z "},"Æ":{"ha":1051,"x_min":-38,"x_max":970,"o":"m 970 37 q 969 21 970 28 q 965 9 968 14 q 958 2 962 5 q 949 0 954 0 l 538 0 q 513 9 526 0 q 500 43 500 18 l 500 228 l 177 228 l 59 14 q 53 5 56 9 q 43 0 50 2 q 28 -3 37 -2 q 5 -4 19 -4 q -13 -3 -5 -4 q -27 -1 -21 -3 q -35 3 -33 0 q -38 10 -38 6 q -36 18 -38 14 q -31 28 -35 22 l 441 859 q 450 868 445 865 q 462 874 455 872 q 478 877 469 876 q 499 878 488 878 l 943 878 q 952 875 948 878 q 959 868 956 873 q 963 856 962 863 q 964 840 964 849 q 963 824 964 831 q 959 813 962 817 q 952 806 956 808 q 943 804 948 804 l 583 804 l 583 494 l 894 494 q 903 492 899 494 q 910 485 907 490 q 914 473 913 480 q 916 456 916 466 q 914 441 916 448 q 910 429 913 434 q 903 422 907 425 q 894 420 899 420 l 583 420 l 583 74 l 949 74 q 958 72 954 74 q 965 65 962 69 q 969 53 968 60 q 970 37 970 46 m 500 804 l 496 804 l 215 297 l 500 297 l 500 804 z "},"Ǽ":{"ha":1051,"x_min":-38,"x_max":970,"o":"m 970 37 q 969 21 970 28 q 965 9 968 14 q 958 2 962 5 q 949 0 954 0 l 538 0 q 513 9 526 0 q 500 43 500 18 l 500 228 l 177 228 l 59 14 q 53 5 56 9 q 43 0 50 2 q 28 -3 37 -2 q 5 -4 19 -4 q -13 -3 -5 -4 q -27 -1 -21 -3 q -35 3 -33 0 q -38 10 -38 6 q -36 18 -38 14 q -31 28 -35 22 l 441 859 q 450 868 445 865 q 462 874 455 872 q 478 877 469 876 q 499 878 488 878 l 943 878 q 952 875 948 878 q 959 868 956 873 q 963 856 962 863 q 964 840 964 849 q 963 824 964 831 q 959 813 962 817 q 952 806 956 808 q 943 804 948 804 l 583 804 l 583 494 l 894 494 q 903 492 899 494 q 910 485 907 490 q 914 473 913 480 q 916 456 916 466 q 914 441 916 448 q 910 429 913 434 q 903 422 907 425 q 894 420 899 420 l 583 420 l 583 74 l 949 74 q 958 72 954 74 q 965 65 962 69 q 969 53 968 60 q 970 37 970 46 m 500 804 l 496 804 l 215 297 l 500 297 l 500 804 m 691 1123 q 704 1135 698 1131 q 718 1142 711 1139 q 735 1145 726 1144 q 757 1145 745 1145 q 780 1143 771 1145 q 792 1137 789 1141 q 795 1128 796 1133 q 789 1118 794 1123 l 635 969 q 623 959 628 962 q 611 953 617 955 q 598 950 605 951 q 581 949 591 949 q 563 951 569 949 q 554 956 556 953 q 553 964 552 959 q 560 975 555 968 l 691 1123 m 452 878 z "},"B":{"ha":743,"x_min":128,"x_max":675,"o":"m 675 245 q 666 174 675 207 q 640 113 657 140 q 599 65 623 86 q 544 30 574 44 q 477 7 513 15 q 393 0 441 0 l 166 0 q 141 9 154 0 q 128 43 128 18 l 128 835 q 141 868 128 859 q 166 878 154 878 l 355 878 q 479 862 431 878 q 557 818 526 846 q 603 748 588 789 q 618 656 618 707 q 611 597 618 625 q 590 544 604 568 q 554 500 576 519 q 504 467 533 480 q 570 441 539 460 q 625 394 602 422 q 662 328 648 366 q 675 245 675 290 m 530 651 q 521 714 530 686 q 491 762 511 742 q 437 793 470 782 q 348 804 404 804 l 211 804 l 211 489 l 361 489 q 441 502 411 489 q 492 538 472 515 q 521 590 511 560 q 530 651 530 619 m 587 239 q 573 315 587 282 q 533 371 559 349 q 467 405 506 393 q 369 416 427 416 l 211 416 l 211 74 l 402 74 q 476 84 444 74 q 533 116 509 95 q 573 167 558 136 q 587 239 587 198 z "},"C":{"ha":743,"x_min":73,"x_max":703,"o":"m 703 119 q 702 106 703 112 q 700 95 701 100 q 696 86 699 90 q 687 76 694 82 q 659 55 681 69 q 605 26 637 40 q 529 1 572 12 q 435 -9 486 -9 q 285 20 352 -9 q 171 104 218 49 q 98 241 123 160 q 73 427 73 323 q 100 620 73 534 q 176 764 127 705 q 294 855 225 823 q 446 886 363 886 q 523 879 486 886 q 591 860 559 871 q 647 833 622 848 q 681 809 671 819 q 692 796 690 800 q 696 787 694 792 q 698 775 697 782 q 699 761 699 769 q 697 744 699 751 q 694 732 696 737 q 688 724 692 727 q 680 722 685 722 q 653 735 671 722 q 608 766 636 749 q 539 797 580 783 q 442 811 498 811 q 329 786 380 811 q 240 713 277 762 q 183 595 203 665 q 162 433 162 524 q 181 277 162 345 q 236 163 200 210 q 325 92 272 117 q 445 68 378 68 q 541 82 500 68 q 611 113 582 96 q 659 143 640 130 q 688 157 677 157 q 694 156 692 157 q 699 150 697 154 q 702 138 701 145 q 703 119 703 130 z "},"Ć":{"ha":743,"x_min":73,"x_max":703,"o":"m 703 119 q 702 106 703 112 q 700 95 701 100 q 696 86 699 90 q 687 76 694 82 q 659 55 681 69 q 605 26 637 40 q 529 1 572 12 q 435 -9 486 -9 q 285 20 352 -9 q 171 104 218 49 q 98 241 123 160 q 73 427 73 323 q 100 620 73 534 q 176 764 127 705 q 294 855 225 823 q 446 886 363 886 q 523 879 486 886 q 591 860 559 871 q 647 833 622 848 q 681 809 671 819 q 692 796 690 800 q 696 787 694 792 q 698 775 697 782 q 699 761 699 769 q 697 744 699 751 q 694 732 696 737 q 688 724 692 727 q 680 722 685 722 q 653 735 671 722 q 608 766 636 749 q 539 797 580 783 q 442 811 498 811 q 329 786 380 811 q 240 713 277 762 q 183 595 203 665 q 162 433 162 524 q 181 277 162 345 q 236 163 200 210 q 325 92 272 117 q 445 68 378 68 q 541 82 500 68 q 611 113 582 96 q 659 143 640 130 q 688 157 677 157 q 694 156 692 157 q 699 150 697 154 q 702 138 701 145 q 703 119 703 130 m 503 1123 q 516 1135 509 1131 q 530 1142 522 1139 q 547 1145 537 1144 q 568 1145 556 1145 q 591 1143 583 1145 q 604 1137 600 1141 q 607 1128 608 1133 q 601 1118 606 1123 l 446 969 q 434 959 439 962 q 422 953 429 955 q 409 950 416 951 q 392 949 402 949 q 374 951 380 949 q 366 956 368 953 q 365 964 363 959 q 372 975 366 968 l 503 1123 m 264 878 z "},"Ĉ":{"ha":743,"x_min":73,"x_max":703,"o":"m 703 119 q 702 106 703 112 q 700 95 701 100 q 696 86 699 90 q 687 76 694 82 q 659 55 681 69 q 605 26 637 40 q 529 1 572 12 q 435 -9 486 -9 q 285 20 352 -9 q 171 104 218 49 q 98 241 123 160 q 73 427 73 323 q 100 620 73 534 q 176 764 127 705 q 294 855 225 823 q 446 886 363 886 q 523 879 486 886 q 591 860 559 871 q 647 833 622 848 q 681 809 671 819 q 692 796 690 800 q 696 787 694 792 q 698 775 697 782 q 699 761 699 769 q 697 744 699 751 q 694 732 696 737 q 688 724 692 727 q 680 722 685 722 q 653 735 671 722 q 608 766 636 749 q 539 797 580 783 q 442 811 498 811 q 329 786 380 811 q 240 713 277 762 q 183 595 203 665 q 162 433 162 524 q 181 277 162 345 q 236 163 200 210 q 325 92 272 117 q 445 68 378 68 q 541 82 500 68 q 611 113 582 96 q 659 143 640 130 q 688 157 677 157 q 694 156 692 157 q 699 150 697 154 q 702 138 701 145 q 703 119 703 130 m 436 1145 q 453 1145 446 1145 q 465 1142 460 1144 q 474 1137 470 1140 q 481 1131 477 1135 l 633 972 q 639 962 638 966 q 636 955 640 958 q 627 951 633 952 q 610 949 620 949 q 585 950 594 949 q 569 953 575 951 q 560 957 564 954 q 553 962 557 959 l 436 1091 l 315 966 q 304 957 309 960 q 292 952 299 954 q 276 950 285 951 q 253 949 267 949 q 233 951 240 949 q 223 956 226 953 q 222 962 220 958 q 229 972 223 966 l 391 1131 q 399 1137 395 1135 q 409 1142 404 1140 q 420 1145 414 1144 q 436 1145 427 1145 m 121 878 z "},"Č":{"ha":743,"x_min":73,"x_max":703,"o":"m 703 119 q 702 106 703 112 q 700 95 701 100 q 696 86 699 90 q 687 76 694 82 q 659 55 681 69 q 605 26 637 40 q 529 1 572 12 q 435 -9 486 -9 q 285 20 352 -9 q 171 104 218 49 q 98 241 123 160 q 73 427 73 323 q 100 620 73 534 q 176 764 127 705 q 294 855 225 823 q 446 886 363 886 q 523 879 486 886 q 591 860 559 871 q 647 833 622 848 q 681 809 671 819 q 692 796 690 800 q 696 787 694 792 q 698 775 697 782 q 699 761 699 769 q 697 744 699 751 q 694 732 696 737 q 688 724 692 727 q 680 722 685 722 q 653 735 671 722 q 608 766 636 749 q 539 797 580 783 q 442 811 498 811 q 329 786 380 811 q 240 713 277 762 q 183 595 203 665 q 162 433 162 524 q 181 277 162 345 q 236 163 200 210 q 325 92 272 117 q 445 68 378 68 q 541 82 500 68 q 611 113 582 96 q 659 143 640 130 q 688 157 677 157 q 694 156 692 157 q 699 150 697 154 q 702 138 701 145 q 703 119 703 130 m 437 949 q 420 950 427 949 q 409 952 414 951 q 400 957 404 954 q 392 964 396 960 l 240 1123 q 235 1133 235 1128 q 237 1140 234 1137 q 247 1144 240 1143 q 264 1145 254 1145 q 289 1144 279 1145 q 304 1142 298 1143 q 313 1138 310 1141 q 320 1133 317 1135 l 437 1003 l 559 1129 q 570 1137 564 1134 q 582 1142 575 1141 q 598 1145 589 1144 q 621 1145 607 1145 q 641 1144 633 1145 q 651 1139 648 1142 q 651 1132 653 1137 q 645 1123 650 1128 l 483 964 q 474 957 479 960 q 465 952 470 954 q 453 950 460 951 q 437 949 447 949 m 134 878 z "},"Ċ":{"ha":743,"x_min":73,"x_max":703,"o":"m 703 119 q 702 106 703 112 q 700 95 701 100 q 696 86 699 90 q 687 76 694 82 q 659 55 681 69 q 605 26 637 40 q 529 1 572 12 q 435 -9 486 -9 q 285 20 352 -9 q 171 104 218 49 q 98 241 123 160 q 73 427 73 323 q 100 620 73 534 q 176 764 127 705 q 294 855 225 823 q 446 886 363 886 q 523 879 486 886 q 591 860 559 871 q 647 833 622 848 q 681 809 671 819 q 692 796 690 800 q 696 787 694 792 q 698 775 697 782 q 699 761 699 769 q 697 744 699 751 q 694 732 696 737 q 688 724 692 727 q 680 722 685 722 q 653 735 671 722 q 608 766 636 749 q 539 797 580 783 q 442 811 498 811 q 329 786 380 811 q 240 713 277 762 q 183 595 203 665 q 162 433 162 524 q 181 277 162 345 q 236 163 200 210 q 325 92 272 117 q 445 68 378 68 q 541 82 500 68 q 611 113 582 96 q 659 143 640 130 q 688 157 677 157 q 694 156 692 157 q 699 150 697 154 q 702 138 701 145 q 703 119 703 130 m 495 1035 q 483 991 495 1003 q 441 979 471 979 q 401 991 412 979 q 389 1034 389 1002 q 401 1078 389 1066 q 443 1090 413 1090 q 484 1078 472 1090 q 495 1035 495 1067 m 289 878 z "},"Ç":{"ha":743,"x_min":73,"x_max":703,"o":"m 488 -53 q 511 -106 504 -86 q 517 -143 517 -126 q 509 -185 517 -166 q 484 -218 500 -205 q 445 -240 468 -232 q 391 -248 421 -248 q 352 -245 371 -248 q 318 -240 333 -243 q 299 -235 304 -237 q 292 -229 294 -233 q 289 -221 290 -226 q 288 -209 288 -216 q 292 -186 288 -191 q 304 -181 296 -181 l 391 -181 q 429 -171 415 -181 q 442 -141 442 -161 q 437 -117 442 -132 q 425 -85 433 -102 l 390 -7 q 271 26 328 -1 q 169 107 214 54 q 98 242 123 161 q 73 427 73 323 q 100 620 73 534 q 176 764 127 705 q 294 855 225 823 q 446 886 363 886 q 523 879 486 886 q 591 860 559 871 q 647 833 622 848 q 681 809 671 819 q 692 796 690 800 q 696 787 694 792 q 698 775 697 782 q 699 761 699 769 q 697 744 699 751 q 694 732 696 737 q 688 724 692 727 q 680 722 685 722 q 653 735 671 722 q 608 766 636 749 q 539 797 580 783 q 442 811 498 811 q 329 786 380 811 q 240 713 277 762 q 183 595 203 665 q 162 433 162 524 q 181 277 162 345 q 236 163 200 210 q 325 92 272 117 q 445 68 378 68 q 538 81 496 68 q 610 112 581 95 q 659 143 640 130 q 688 157 677 157 q 694 156 692 157 q 699 150 697 154 q 702 138 701 145 q 703 119 703 130 q 702 106 703 112 q 700 95 701 100 q 696 86 699 90 q 687 76 694 82 q 659 55 681 69 q 604 25 637 40 q 535 3 570 11 q 468 -7 500 -5 l 488 -53 z "},"D":{"ha":843,"x_min":128,"x_max":773,"o":"m 773 452 q 745 257 773 341 q 663 115 718 172 q 529 29 609 58 q 339 0 450 0 l 166 0 q 141 9 154 0 q 128 43 128 18 l 128 835 q 141 868 128 859 q 166 878 154 878 l 351 878 q 539 847 463 878 q 668 761 616 817 q 747 626 720 705 q 773 452 773 548 m 684 448 q 665 590 684 524 q 605 703 646 655 q 503 777 565 750 q 346 804 441 804 l 211 804 l 211 74 l 347 74 q 498 96 436 74 q 602 164 560 118 q 664 280 643 210 q 684 448 684 351 z "},"Ď":{"ha":843,"x_min":100,"x_max":773,"o":"m 773 452 q 745 257 773 341 q 663 115 718 172 q 529 29 609 58 q 339 0 450 0 l 166 0 q 141 9 154 0 q 128 43 128 18 l 128 835 q 141 868 128 859 q 166 878 154 878 l 351 878 q 539 847 463 878 q 668 761 616 817 q 747 626 720 705 q 773 452 773 548 m 684 448 q 665 590 684 524 q 605 703 646 655 q 503 777 565 750 q 346 804 441 804 l 211 804 l 211 74 l 347 74 q 498 96 436 74 q 602 164 560 118 q 664 280 643 210 q 684 448 684 351 m 404 949 q 387 950 393 949 q 375 952 380 951 q 366 957 370 954 q 358 964 362 960 l 206 1123 q 201 1133 201 1128 q 203 1140 200 1137 q 213 1144 206 1143 q 230 1145 220 1145 q 255 1144 245 1145 q 270 1142 264 1143 q 279 1138 276 1141 q 286 1133 283 1135 l 404 1003 l 526 1129 q 536 1137 530 1134 q 548 1142 541 1141 q 564 1145 555 1144 q 587 1145 573 1145 q 607 1144 600 1145 q 617 1139 614 1142 q 617 1132 619 1137 q 611 1123 616 1128 l 449 964 q 440 957 445 960 q 431 952 436 954 q 419 950 426 951 q 404 949 413 949 m 100 878 z "},"Đ":{"ha":856,"x_min":22,"x_max":786,"o":"m 786 452 q 758 257 786 341 q 676 115 730 172 q 542 29 621 58 q 351 0 462 0 l 178 0 q 154 9 166 0 q 141 43 141 18 l 141 420 l 44 420 q 35 422 39 420 q 28 429 31 425 q 24 441 25 434 q 22 456 22 448 q 24 473 22 466 q 28 485 25 480 q 35 492 31 490 q 44 494 39 494 l 141 494 l 141 835 q 154 868 141 859 q 178 878 166 878 l 363 878 q 552 847 475 878 q 681 761 629 817 q 760 626 733 705 q 786 452 786 548 m 696 448 q 677 590 696 524 q 618 703 658 655 q 516 777 578 750 q 357 804 454 804 l 224 804 l 224 494 l 397 494 q 406 492 402 494 q 413 485 410 490 q 417 473 416 480 q 418 456 418 466 q 417 441 418 448 q 413 429 416 434 q 406 422 410 425 q 397 420 402 420 l 224 420 l 224 74 l 359 74 q 511 96 449 74 q 614 164 573 118 q 676 280 655 210 q 696 448 696 351 z "},"Ð":{"ha":856,"x_min":22,"x_max":786,"o":"m 786 452 q 758 257 786 341 q 676 115 730 172 q 542 29 621 58 q 351 0 462 0 l 178 0 q 154 9 166 0 q 141 43 141 18 l 141 420 l 44 420 q 35 422 39 420 q 28 429 31 425 q 24 441 25 434 q 22 456 22 448 q 24 473 22 466 q 28 485 25 480 q 35 492 31 490 q 44 494 39 494 l 141 494 l 141 835 q 154 868 141 859 q 178 878 166 878 l 363 878 q 552 847 475 878 q 681 761 629 817 q 760 626 733 705 q 786 452 786 548 m 696 448 q 677 590 696 524 q 618 703 658 655 q 516 777 578 750 q 357 804 454 804 l 224 804 l 224 494 l 397 494 q 406 492 402 494 q 413 485 410 490 q 417 473 416 480 q 418 456 418 466 q 417 441 418 448 q 413 429 416 434 q 406 422 410 425 q 397 420 402 420 l 224 420 l 224 74 l 359 74 q 511 96 449 74 q 614 164 573 118 q 676 280 655 210 q 696 448 696 351 z "},"E":{"ha":679,"x_min":128,"x_max":599,"o":"m 599 37 q 597 21 599 28 q 593 9 596 14 q 586 2 590 5 q 577 0 582 0 l 166 0 q 141 9 154 0 q 128 43 128 18 l 128 835 q 141 868 128 859 q 166 878 154 878 l 571 878 q 580 875 576 878 q 587 868 584 873 q 591 856 589 863 q 592 840 592 849 q 591 824 592 831 q 587 813 589 817 q 580 806 584 808 q 571 804 576 804 l 211 804 l 211 495 l 522 495 q 531 493 527 495 q 538 486 535 490 q 542 474 541 481 q 543 458 543 467 q 542 443 543 449 q 538 432 541 436 q 531 426 535 428 q 522 424 527 424 l 211 424 l 211 74 l 577 74 q 586 72 582 74 q 593 65 590 69 q 597 53 596 60 q 599 37 599 46 z "},"È":{"ha":679,"x_min":49,"x_max":599,"o":"m 599 37 q 597 21 599 28 q 593 9 596 14 q 586 2 590 5 q 577 0 582 0 l 166 0 q 141 9 154 0 q 128 43 128 18 l 128 835 q 141 868 128 859 q 166 878 154 878 l 571 878 q 580 875 576 878 q 587 868 584 873 q 591 856 589 863 q 592 840 592 849 q 591 824 592 831 q 587 813 589 817 q 580 806 584 808 q 571 804 576 804 l 211 804 l 211 495 l 522 495 q 531 493 527 495 q 538 486 535 490 q 542 474 541 481 q 543 458 543 467 q 542 443 543 449 q 538 432 541 436 q 531 426 535 428 q 522 424 527 424 l 211 424 l 211 74 l 577 74 q 586 72 582 74 q 593 65 590 69 q 597 53 596 60 q 599 37 599 46 m 385 975 q 391 964 389 968 q 391 956 393 959 q 382 951 389 953 q 364 949 376 949 q 347 950 354 949 q 334 953 340 951 q 323 959 328 955 q 311 969 317 962 l 156 1118 q 150 1128 151 1123 q 152 1137 149 1133 q 165 1143 156 1141 q 189 1145 174 1145 q 210 1145 201 1145 q 227 1142 219 1144 q 240 1135 234 1139 q 254 1123 247 1131 l 385 975 m 49 878 z "},"É":{"ha":679,"x_min":128,"x_max":599,"o":"m 599 37 q 597 21 599 28 q 593 9 596 14 q 586 2 590 5 q 577 0 582 0 l 166 0 q 141 9 154 0 q 128 43 128 18 l 128 835 q 141 868 128 859 q 166 878 154 878 l 571 878 q 580 875 576 878 q 587 868 584 873 q 591 856 589 863 q 592 840 592 849 q 591 824 592 831 q 587 813 589 817 q 580 806 584 808 q 571 804 576 804 l 211 804 l 211 495 l 522 495 q 531 493 527 495 q 538 486 535 490 q 542 474 541 481 q 543 458 543 467 q 542 443 543 449 q 538 432 541 436 q 531 426 535 428 q 522 424 527 424 l 211 424 l 211 74 l 577 74 q 586 72 582 74 q 593 65 590 69 q 597 53 596 60 q 599 37 599 46 m 463 1123 q 476 1135 469 1131 q 490 1142 482 1139 q 507 1145 497 1144 q 528 1145 516 1145 q 551 1143 543 1145 q 564 1137 560 1141 q 567 1128 568 1133 q 561 1118 566 1123 l 406 969 q 394 959 399 962 q 382 953 389 955 q 369 950 376 951 q 352 949 362 949 q 334 951 340 949 q 326 956 328 953 q 325 964 323 959 q 332 975 326 968 l 463 1123 m 224 878 z "},"Ê":{"ha":679,"x_min":50,"x_max":599,"o":"m 599 37 q 597 21 599 28 q 593 9 596 14 q 586 2 590 5 q 577 0 582 0 l 166 0 q 141 9 154 0 q 128 43 128 18 l 128 835 q 141 868 128 859 q 166 878 154 878 l 571 878 q 580 875 576 878 q 587 868 584 873 q 591 856 589 863 q 592 840 592 849 q 591 824 592 831 q 587 813 589 817 q 580 806 584 808 q 571 804 576 804 l 211 804 l 211 495 l 522 495 q 531 493 527 495 q 538 486 535 490 q 542 474 541 481 q 543 458 543 467 q 542 443 543 449 q 538 432 541 436 q 531 426 535 428 q 522 424 527 424 l 211 424 l 211 74 l 577 74 q 586 72 582 74 q 593 65 590 69 q 597 53 596 60 q 599 37 599 46 m 366 1145 q 382 1145 376 1145 q 394 1142 389 1144 q 403 1137 399 1140 q 411 1131 407 1135 l 563 972 q 568 962 568 966 q 566 955 569 958 q 556 951 563 952 q 539 949 549 949 q 514 950 524 949 q 499 953 505 951 q 490 957 493 954 q 483 962 486 959 l 366 1091 l 244 966 q 234 957 239 960 q 221 952 229 954 q 205 950 214 951 q 182 949 196 949 q 162 951 170 949 q 153 956 155 953 q 151 962 150 958 q 158 972 153 966 l 321 1131 q 329 1137 325 1135 q 338 1142 333 1140 q 350 1145 343 1144 q 366 1145 356 1145 m 50 878 z "},"Ě":{"ha":679,"x_min":52,"x_max":599,"o":"m 599 37 q 597 21 599 28 q 593 9 596 14 q 586 2 590 5 q 577 0 582 0 l 166 0 q 141 9 154 0 q 128 43 128 18 l 128 835 q 141 868 128 859 q 166 878 154 878 l 571 878 q 580 875 576 878 q 587 868 584 873 q 591 856 589 863 q 592 840 592 849 q 591 824 592 831 q 587 813 589 817 q 580 806 584 808 q 571 804 576 804 l 211 804 l 211 495 l 522 495 q 531 493 527 495 q 538 486 535 490 q 542 474 541 481 q 543 458 543 467 q 542 443 543 449 q 538 432 541 436 q 531 426 535 428 q 522 424 527 424 l 211 424 l 211 74 l 577 74 q 586 72 582 74 q 593 65 590 69 q 597 53 596 60 q 599 37 599 46 m 355 949 q 338 950 345 949 q 326 952 331 951 q 317 957 321 954 q 309 964 313 960 l 157 1123 q 152 1133 153 1128 q 154 1140 151 1137 q 164 1144 157 1143 q 181 1145 171 1145 q 206 1144 197 1145 q 221 1142 216 1143 q 231 1138 227 1141 q 237 1133 234 1135 l 355 1003 l 477 1129 q 487 1137 481 1134 q 499 1142 492 1141 q 515 1145 506 1144 q 538 1145 524 1145 q 558 1144 551 1145 q 568 1139 566 1142 q 569 1132 570 1137 q 562 1123 567 1128 l 400 964 q 392 957 396 960 q 382 952 387 954 q 371 950 377 951 q 355 949 364 949 m 52 878 z "},"Ë":{"ha":679,"x_min":75,"x_max":599,"o":"m 599 37 q 597 21 599 28 q 593 9 596 14 q 586 2 590 5 q 577 0 582 0 l 166 0 q 141 9 154 0 q 128 43 128 18 l 128 835 q 141 868 128 859 q 166 878 154 878 l 571 878 q 580 875 576 878 q 587 868 584 873 q 591 856 589 863 q 592 840 592 849 q 591 824 592 831 q 587 813 589 817 q 580 806 584 808 q 571 804 576 804 l 211 804 l 211 495 l 522 495 q 531 493 527 495 q 538 486 535 490 q 542 474 541 481 q 543 458 543 467 q 542 443 543 449 q 538 432 541 436 q 531 426 535 428 q 522 424 527 424 l 211 424 l 211 74 l 577 74 q 586 72 582 74 q 593 65 590 69 q 597 53 596 60 q 599 37 599 46 m 281 1035 q 270 991 281 1002 q 228 979 258 979 q 187 990 198 979 q 176 1034 176 1002 q 187 1078 176 1067 q 229 1090 199 1090 q 270 1079 259 1090 q 281 1035 281 1067 m 553 1035 q 542 991 553 1002 q 500 979 530 979 q 459 990 470 979 q 448 1034 448 1002 q 459 1078 448 1067 q 500 1090 471 1090 q 542 1079 531 1090 q 553 1035 553 1067 m 75 878 z "},"Ē":{"ha":679,"x_min":68,"x_max":599,"o":"m 599 37 q 597 21 599 28 q 593 9 596 14 q 586 2 590 5 q 577 0 582 0 l 166 0 q 141 9 154 0 q 128 43 128 18 l 128 835 q 141 868 128 859 q 166 878 154 878 l 571 878 q 580 875 576 878 q 587 868 584 873 q 591 856 589 863 q 592 840 592 849 q 591 824 592 831 q 587 813 589 817 q 580 806 584 808 q 571 804 576 804 l 211 804 l 211 495 l 522 495 q 531 493 527 495 q 538 486 535 490 q 542 474 541 481 q 543 458 543 467 q 542 443 543 449 q 538 432 541 436 q 531 426 535 428 q 522 424 527 424 l 211 424 l 211 74 l 577 74 q 586 72 582 74 q 593 65 590 69 q 597 53 596 60 q 599 37 599 46 m 541 1069 q 548 1066 545 1069 q 554 1060 551 1064 q 557 1048 556 1055 q 558 1034 558 1042 q 557 1019 558 1025 q 554 1008 556 1013 q 548 1001 551 1003 q 541 998 545 998 l 187 998 q 179 1001 182 998 q 173 1008 176 1003 q 170 1019 171 1013 q 168 1034 168 1025 q 170 1048 168 1042 q 173 1060 171 1055 q 179 1066 176 1064 q 187 1069 182 1069 l 541 1069 m 68 878 z "},"Ĕ":{"ha":679,"x_min":92,"x_max":599,"o":"m 599 37 q 597 21 599 28 q 593 9 596 14 q 586 2 590 5 q 577 0 582 0 l 166 0 q 141 9 154 0 q 128 43 128 18 l 128 835 q 141 868 128 859 q 166 878 154 878 l 571 878 q 580 875 576 878 q 587 868 584 873 q 591 856 589 863 q 592 840 592 849 q 591 824 592 831 q 587 813 589 817 q 580 806 584 808 q 571 804 576 804 l 211 804 l 211 495 l 522 495 q 531 493 527 495 q 538 486 535 490 q 542 474 541 481 q 543 458 543 467 q 542 443 543 449 q 538 432 541 436 q 531 426 535 428 q 522 424 527 424 l 211 424 l 211 74 l 577 74 q 586 72 582 74 q 593 65 590 69 q 597 53 596 60 q 599 37 599 46 m 517 1129 q 506 1054 517 1087 q 473 997 494 1021 q 421 962 452 974 q 353 949 391 949 q 281 963 311 949 q 231 1001 250 977 q 201 1058 211 1025 q 192 1129 192 1091 q 198 1142 192 1138 q 222 1145 203 1145 q 250 1143 241 1145 q 258 1132 258 1141 q 263 1096 258 1122 q 281 1053 269 1069 q 312 1026 294 1036 q 355 1017 330 1017 q 415 1036 393 1017 q 444 1080 437 1055 q 451 1122 451 1106 q 456 1141 451 1137 q 486 1145 462 1145 q 511 1142 505 1145 q 517 1129 517 1138 m 92 878 z "},"Ė":{"ha":679,"x_min":128,"x_max":599,"o":"m 599 37 q 597 21 599 28 q 593 9 596 14 q 586 2 590 5 q 577 0 582 0 l 166 0 q 141 9 154 0 q 128 43 128 18 l 128 835 q 141 868 128 859 q 166 878 154 878 l 571 878 q 580 875 576 878 q 587 868 584 873 q 591 856 589 863 q 592 840 592 849 q 591 824 592 831 q 587 813 589 817 q 580 806 584 808 q 571 804 576 804 l 211 804 l 211 495 l 522 495 q 531 493 527 495 q 538 486 535 490 q 542 474 541 481 q 543 458 543 467 q 542 443 543 449 q 538 432 541 436 q 531 426 535 428 q 522 424 527 424 l 211 424 l 211 74 l 577 74 q 586 72 582 74 q 593 65 590 69 q 597 53 596 60 q 599 37 599 46 m 417 1035 q 405 991 417 1003 q 363 979 393 979 q 323 991 334 979 q 311 1034 311 1002 q 323 1078 311 1066 q 365 1090 335 1090 q 406 1078 394 1090 q 417 1035 417 1067 m 211 878 z "},"Ę":{"ha":679,"x_min":128,"x_max":629,"o":"m 629 -209 q 628 -221 629 -216 q 625 -229 627 -226 q 618 -234 623 -233 q 602 -239 614 -236 q 568 -245 589 -242 q 522 -248 547 -248 q 470 -241 492 -248 q 431 -222 447 -235 q 407 -192 415 -210 q 399 -151 399 -174 q 409 -103 399 -127 q 449 -47 419 -78 l 496 0 l 166 0 q 141 9 154 0 q 128 43 128 18 l 128 835 q 141 868 128 859 q 166 878 154 878 l 571 878 q 580 875 576 878 q 587 868 584 873 q 591 856 589 863 q 592 840 592 849 q 591 824 592 831 q 587 813 589 817 q 580 806 584 808 q 571 804 576 804 l 211 804 l 211 495 l 522 495 q 531 493 527 495 q 538 487 535 491 q 542 476 541 483 q 543 460 543 470 q 542 444 543 451 q 538 433 541 437 q 531 426 535 429 q 522 424 527 424 l 211 424 l 211 74 l 577 74 q 593 65 587 74 q 599 37 599 56 q 598 25 599 31 q 596 14 597 19 q 594 6 595 9 q 590 0 592 2 l 504 -85 q 483 -115 489 -102 q 477 -141 477 -127 q 490 -171 477 -161 q 530 -181 503 -181 l 612 -181 q 620 -182 616 -181 q 625 -186 623 -183 q 628 -195 627 -189 q 629 -209 629 -200 z "},"F":{"ha":639,"x_min":128,"x_max":572,"o":"m 572 840 q 571 824 572 831 q 567 813 570 817 q 559 806 564 808 q 551 804 555 804 l 211 804 l 211 471 l 533 471 q 542 470 538 471 q 549 464 546 468 q 553 453 552 460 q 555 436 555 446 q 553 420 555 427 q 549 409 552 414 q 542 402 546 405 q 533 400 538 400 l 211 400 l 211 14 q 209 6 211 9 q 202 1 207 3 q 190 -3 197 -1 q 170 -4 182 -4 q 150 -3 158 -4 q 137 1 142 -1 q 130 6 132 3 q 128 14 128 9 l 128 835 q 141 868 128 859 q 166 878 154 878 l 551 878 q 559 875 555 878 q 567 868 564 873 q 571 856 570 863 q 572 840 572 849 z "},"G":{"ha":871,"x_min":68,"x_max":763,"o":"m 763 767 q 762 751 763 758 q 758 738 760 743 q 752 730 755 733 q 744 728 748 728 q 717 741 736 728 q 667 771 699 755 q 592 800 636 787 q 486 814 547 814 q 347 785 408 814 q 244 706 286 756 q 180 587 202 656 q 158 439 158 518 q 183 280 158 350 q 253 163 208 211 q 358 90 297 115 q 492 65 420 65 q 587 77 539 65 q 677 112 635 88 l 677 396 l 454 396 q 437 406 443 396 q 432 433 432 415 q 433 449 432 442 q 437 461 435 456 q 444 468 440 465 q 454 470 448 470 l 722 470 q 735 468 728 470 q 748 461 742 466 q 757 448 753 456 q 760 427 760 439 l 760 101 q 755 73 760 85 q 732 51 750 62 q 683 28 713 41 q 620 7 652 16 q 554 -6 587 -1 q 490 -10 522 -10 q 312 22 390 -10 q 179 113 233 54 q 97 253 125 172 q 68 431 68 334 q 99 618 68 534 q 186 762 130 703 q 320 855 242 822 q 492 888 398 888 q 582 879 540 888 q 659 858 625 870 q 716 830 692 845 q 748 807 740 816 q 760 791 757 799 q 763 767 763 783 z "},"Ĝ":{"ha":871,"x_min":68,"x_max":763,"o":"m 763 767 q 762 751 763 758 q 758 738 760 743 q 752 730 755 733 q 744 728 748 728 q 717 741 736 728 q 667 771 699 755 q 592 800 636 787 q 486 814 547 814 q 347 785 408 814 q 244 706 286 756 q 180 587 202 656 q 158 439 158 518 q 183 280 158 350 q 253 163 208 211 q 358 90 297 115 q 492 65 420 65 q 587 77 539 65 q 677 112 635 88 l 677 396 l 454 396 q 437 406 443 396 q 432 433 432 415 q 433 449 432 442 q 437 461 435 456 q 444 468 440 465 q 454 470 448 470 l 722 470 q 735 468 728 470 q 748 461 742 466 q 757 448 753 456 q 760 427 760 439 l 760 101 q 755 73 760 85 q 732 51 750 62 q 683 28 713 41 q 620 7 652 16 q 554 -6 587 -1 q 490 -10 522 -10 q 312 22 390 -10 q 179 113 233 54 q 97 253 125 172 q 68 431 68 334 q 99 618 68 534 q 186 762 130 703 q 320 855 242 822 q 492 888 398 888 q 582 879 540 888 q 659 858 625 870 q 716 830 692 845 q 748 807 740 816 q 760 791 757 799 q 763 767 763 783 m 470 1145 q 487 1145 480 1145 q 499 1142 494 1144 q 508 1137 504 1140 q 515 1131 511 1135 l 667 972 q 673 962 672 966 q 670 955 673 958 q 661 951 667 952 q 644 949 654 949 q 618 950 628 949 q 603 953 609 951 q 594 957 597 954 q 587 962 591 959 l 470 1091 l 349 966 q 338 957 343 960 q 326 952 333 954 q 310 950 319 951 q 287 949 300 949 q 267 951 274 949 q 257 956 260 953 q 256 962 254 958 q 262 972 257 966 l 425 1131 q 433 1137 429 1135 q 443 1142 437 1140 q 454 1145 448 1144 q 470 1145 460 1145 m 155 878 z "},"Ğ":{"ha":871,"x_min":68,"x_max":763,"o":"m 763 767 q 762 751 763 758 q 758 738 760 743 q 752 730 755 733 q 744 728 748 728 q 717 741 736 728 q 667 771 699 755 q 592 800 636 787 q 486 814 547 814 q 347 785 408 814 q 244 706 286 756 q 180 587 202 656 q 158 439 158 518 q 183 280 158 350 q 253 163 208 211 q 358 90 297 115 q 492 65 420 65 q 587 77 539 65 q 677 112 635 88 l 677 396 l 454 396 q 437 406 443 396 q 432 433 432 415 q 433 449 432 442 q 437 461 435 456 q 444 468 440 465 q 454 470 448 470 l 722 470 q 735 468 728 470 q 748 461 742 466 q 757 448 753 456 q 760 427 760 439 l 760 101 q 755 73 760 85 q 732 51 750 62 q 683 28 713 41 q 620 7 652 16 q 554 -6 587 -1 q 490 -10 522 -10 q 312 22 390 -10 q 179 113 233 54 q 97 253 125 172 q 68 431 68 334 q 99 618 68 534 q 186 762 130 703 q 320 855 242 822 q 492 888 398 888 q 582 879 540 888 q 659 858 625 870 q 716 830 692 845 q 748 807 740 816 q 760 791 757 799 q 763 767 763 783 m 625 1129 q 614 1054 625 1087 q 582 997 603 1021 q 530 962 560 974 q 462 949 499 949 q 389 963 420 949 q 339 1001 359 977 q 310 1058 319 1025 q 300 1129 300 1091 q 306 1142 300 1138 q 331 1145 312 1145 q 358 1143 350 1145 q 366 1132 366 1141 q 372 1096 366 1122 q 390 1053 378 1069 q 420 1026 402 1036 q 464 1017 438 1017 q 523 1036 501 1017 q 552 1080 545 1055 q 559 1122 559 1106 q 565 1141 559 1137 q 595 1145 570 1145 q 620 1142 614 1145 q 625 1129 625 1138 m 200 878 z "},"Ġ":{"ha":871,"x_min":68,"x_max":763,"o":"m 763 767 q 762 751 763 758 q 758 738 760 743 q 752 730 755 733 q 744 728 748 728 q 717 741 736 728 q 667 771 699 755 q 592 800 636 787 q 486 814 547 814 q 347 785 408 814 q 244 706 286 756 q 180 587 202 656 q 158 439 158 518 q 183 280 158 350 q 253 163 208 211 q 358 90 297 115 q 492 65 420 65 q 587 77 539 65 q 677 112 635 88 l 677 396 l 454 396 q 437 406 443 396 q 432 433 432 415 q 433 449 432 442 q 437 461 435 456 q 444 468 440 465 q 454 470 448 470 l 722 470 q 735 468 728 470 q 748 461 742 466 q 757 448 753 456 q 760 427 760 439 l 760 101 q 755 73 760 85 q 732 51 750 62 q 683 28 713 41 q 620 7 652 16 q 554 -6 587 -1 q 490 -10 522 -10 q 312 22 390 -10 q 179 113 233 54 q 97 253 125 172 q 68 431 68 334 q 99 618 68 534 q 186 762 130 703 q 320 855 242 822 q 492 888 398 888 q 582 879 540 888 q 659 858 625 870 q 716 830 692 845 q 748 807 740 816 q 760 791 757 799 q 763 767 763 783 m 537 1035 q 525 991 537 1003 q 484 979 513 979 q 443 991 454 979 q 431 1034 431 1002 q 443 1078 431 1066 q 485 1090 455 1090 q 526 1078 514 1090 q 537 1035 537 1067 m 331 878 z "},"Ģ":{"ha":871,"x_min":68,"x_max":763,"o":"m 763 767 q 762 751 763 758 q 758 738 760 743 q 752 730 755 733 q 744 728 748 728 q 717 741 736 728 q 667 771 699 755 q 592 800 636 787 q 486 814 547 814 q 347 785 408 814 q 244 706 286 756 q 180 587 202 656 q 158 439 158 518 q 183 280 158 350 q 253 163 208 211 q 358 90 297 115 q 492 65 420 65 q 587 77 539 65 q 677 112 635 88 l 677 396 l 454 396 q 437 406 443 396 q 432 433 432 415 q 433 449 432 442 q 437 461 435 456 q 444 468 440 465 q 454 470 448 470 l 722 470 q 735 468 728 470 q 748 461 742 466 q 757 448 753 456 q 760 427 760 439 l 760 101 q 755 73 760 85 q 732 51 750 62 q 683 28 713 41 q 620 7 652 16 q 554 -6 587 -1 q 490 -10 522 -10 q 312 22 390 -10 q 179 113 233 54 q 97 253 125 172 q 68 431 68 334 q 99 618 68 534 q 186 762 130 703 q 320 855 242 822 q 492 888 398 888 q 582 879 540 888 q 659 858 625 870 q 716 830 692 845 q 748 807 740 816 q 760 791 757 799 q 763 767 763 783 m 422 -90 q 437 -71 427 -75 q 474 -66 448 -66 q 504 -75 500 -66 q 503 -94 509 -83 l 439 -228 q 424 -244 433 -241 q 394 -248 414 -248 q 373 -242 376 -248 q 375 -222 370 -236 l 422 -90 z "},"H":{"ha":860,"x_min":128,"x_max":732,"o":"m 732 14 q 730 6 732 9 q 723 1 728 3 q 710 -3 718 -1 q 690 -4 702 -4 q 670 -3 678 -4 q 658 1 663 -1 q 651 6 653 3 q 649 14 649 9 l 649 422 l 211 422 l 211 14 q 209 6 211 9 q 202 1 207 3 q 190 -3 197 -1 q 170 -4 182 -4 q 150 -3 158 -4 q 137 1 142 -1 q 130 6 132 3 q 128 14 128 9 l 128 864 q 130 871 128 868 q 137 877 132 875 q 150 880 142 879 q 170 882 158 882 q 190 880 182 882 q 202 877 197 879 q 209 871 207 875 q 211 864 211 868 l 211 496 l 649 496 l 649 864 q 651 871 649 868 q 658 877 653 875 q 670 880 663 879 q 690 882 678 882 q 710 880 702 882 q 723 877 718 879 q 730 871 728 875 q 732 864 732 868 l 732 14 z "},"Ĥ":{"ha":860,"x_min":119,"x_max":732,"o":"m 732 14 q 730 6 732 9 q 723 1 728 3 q 710 -3 718 -1 q 690 -4 702 -4 q 670 -3 678 -4 q 658 1 663 -1 q 651 6 653 3 q 649 14 649 9 l 649 422 l 211 422 l 211 14 q 209 6 211 9 q 202 1 207 3 q 190 -3 197 -1 q 170 -4 182 -4 q 150 -3 158 -4 q 137 1 142 -1 q 130 6 132 3 q 128 14 128 9 l 128 864 q 130 871 128 868 q 137 877 132 875 q 150 880 142 879 q 170 882 158 882 q 190 880 182 882 q 202 877 197 879 q 209 871 207 875 q 211 864 211 868 l 211 496 l 649 496 l 649 864 q 651 871 649 868 q 658 877 653 875 q 670 880 663 879 q 690 882 678 882 q 710 880 702 882 q 723 877 718 879 q 730 871 728 875 q 732 864 732 868 l 732 14 m 435 1145 q 452 1145 445 1145 q 464 1142 458 1144 q 472 1137 469 1140 q 480 1131 476 1135 l 632 972 q 637 962 637 966 q 635 955 638 958 q 625 951 632 952 q 608 949 618 949 q 583 950 593 949 q 568 953 574 951 q 559 957 562 954 q 552 962 555 959 l 435 1091 l 313 966 q 303 957 308 960 q 291 952 298 954 q 274 950 283 951 q 252 949 265 949 q 232 951 239 949 q 222 956 224 953 q 220 962 219 958 q 227 972 222 966 l 390 1131 q 398 1137 394 1135 q 407 1142 402 1140 q 419 1145 412 1144 q 435 1145 425 1145 m 119 878 z "},"Ħ":{"ha":910,"x_min":28,"x_max":883,"o":"m 236 625 l 236 477 l 674 477 l 674 625 l 236 625 m 757 696 l 861 696 q 870 694 866 696 q 877 688 874 692 q 882 676 880 683 q 883 660 883 669 q 882 644 883 651 q 877 633 880 637 q 870 627 874 629 q 861 625 866 625 l 757 625 l 757 14 q 755 6 757 9 q 748 1 753 3 q 735 -3 743 -1 q 715 -4 727 -4 q 696 -3 704 -4 q 683 1 688 -1 q 676 6 678 3 q 674 14 674 9 l 674 404 l 236 404 l 236 14 q 234 6 236 9 q 227 1 232 3 q 214 -3 222 -1 q 195 -4 207 -4 q 175 -3 183 -4 q 162 1 167 -1 q 155 6 157 3 q 153 14 153 9 l 153 625 l 49 625 q 40 627 43 625 q 33 633 36 629 q 29 645 31 638 q 28 661 28 652 q 29 677 28 670 q 33 688 31 684 q 40 694 36 692 q 49 696 43 696 l 153 696 l 153 864 q 155 871 153 868 q 162 877 157 875 q 175 880 167 879 q 195 882 183 882 q 214 880 207 882 q 227 877 222 879 q 234 871 232 875 q 236 864 236 868 l 236 696 l 674 696 l 674 864 q 676 871 674 868 q 683 877 678 875 q 696 880 688 879 q 715 882 704 882 q 735 880 727 882 q 748 877 743 879 q 755 871 753 875 q 757 864 757 868 l 757 696 z "},"I":{"ha":339,"x_min":128,"x_max":211,"o":"m 211 14 q 209 6 211 9 q 202 1 207 3 q 190 -3 197 -1 q 170 -4 182 -4 q 150 -3 158 -4 q 137 1 142 -1 q 130 6 132 3 q 128 14 128 9 l 128 864 q 131 871 128 868 q 138 877 133 875 q 151 880 143 879 q 170 882 159 882 q 190 880 182 882 q 202 877 197 879 q 209 871 207 875 q 211 864 211 868 l 211 14 z "},"Ì":{"ha":339,"x_min":-129,"x_max":216,"o":"m 211 14 q 209 6 211 9 q 202 1 207 3 q 190 -3 197 -1 q 170 -4 182 -4 q 150 -3 158 -4 q 137 1 142 -1 q 130 6 132 3 q 128 14 128 9 l 128 864 q 131 871 128 868 q 138 877 133 875 q 151 880 143 879 q 170 882 159 882 q 190 880 182 882 q 202 877 197 879 q 209 871 207 875 q 211 864 211 868 l 211 14 m 207 975 q 214 964 212 968 q 213 956 216 959 q 204 951 211 953 q 186 949 198 949 q 169 950 176 949 q 156 953 162 951 q 145 959 151 955 q 133 969 140 962 l -22 1118 q -28 1128 -27 1123 q -25 1137 -29 1133 q -13 1143 -22 1141 q 11 1145 -4 1145 q 32 1145 23 1145 q 49 1142 41 1144 q 63 1135 56 1139 q 76 1123 69 1131 l 207 975 m -129 878 z "},"Í":{"ha":339,"x_min":28,"x_max":372,"o":"m 211 14 q 209 6 211 9 q 202 1 207 3 q 190 -3 197 -1 q 170 -4 182 -4 q 150 -3 158 -4 q 137 1 142 -1 q 130 6 132 3 q 128 14 128 9 l 128 864 q 131 871 128 868 q 138 877 133 875 q 151 880 143 879 q 170 882 159 882 q 190 880 182 882 q 202 877 197 879 q 209 871 207 875 q 211 864 211 868 l 211 14 m 267 1123 q 280 1135 273 1131 q 294 1142 286 1139 q 311 1145 301 1144 q 332 1145 320 1145 q 355 1143 347 1145 q 368 1137 364 1141 q 371 1128 372 1133 q 365 1118 370 1123 l 210 969 q 198 959 203 962 q 186 953 193 955 q 173 950 180 951 q 156 949 166 949 q 138 951 144 949 q 130 956 132 953 q 129 964 127 959 q 136 975 130 968 l 267 1123 m 28 878 z "},"Î":{"ha":339,"x_min":-139,"x_max":380,"o":"m 211 14 q 209 6 211 9 q 202 1 207 3 q 190 -3 197 -1 q 170 -4 182 -4 q 150 -3 158 -4 q 137 1 142 -1 q 130 6 132 3 q 128 14 128 9 l 128 864 q 131 871 128 868 q 138 877 133 875 q 151 880 143 879 q 170 882 159 882 q 190 880 182 882 q 202 877 197 879 q 209 871 207 875 q 211 864 211 868 l 211 14 m 176 1145 q 193 1145 186 1145 q 205 1142 200 1144 q 214 1137 210 1140 q 222 1131 218 1135 l 374 972 q 379 962 378 966 q 377 955 380 958 q 367 951 374 952 q 350 949 360 949 q 325 950 334 949 q 310 953 315 951 q 300 957 304 954 q 294 962 297 959 l 176 1091 l 55 966 q 44 957 50 960 q 32 952 39 954 q 16 950 25 951 q -7 949 7 949 q -27 951 -20 949 q -37 956 -34 953 q -38 962 -39 958 q -31 972 -37 966 l 132 1131 q 140 1137 136 1135 q 149 1142 144 1140 q 160 1145 154 1144 q 176 1145 167 1145 m -139 878 z "},"Ĩ":{"ha":339,"x_min":-149,"x_max":394,"o":"m 211 14 q 209 6 211 9 q 202 1 207 3 q 190 -3 197 -1 q 170 -4 182 -4 q 150 -3 158 -4 q 137 1 142 -1 q 130 6 132 3 q 128 14 128 9 l 128 864 q 131 871 128 868 q 138 877 133 875 q 151 880 143 879 q 170 882 159 882 q 190 880 182 882 q 202 877 197 879 q 209 871 207 875 q 211 864 211 868 l 211 14 m 326 1086 q 335 1097 326 1094 q 361 1100 343 1100 q 388 1095 382 1100 q 394 1072 394 1089 q 361 983 394 1017 q 269 949 328 949 q 208 962 234 949 q 159 991 182 975 q 117 1019 137 1006 q 73 1032 96 1032 q 29 1013 41 1032 q 17 963 17 994 q 14 956 17 959 q 6 952 12 954 q -5 950 1 950 q -18 949 -12 949 q -45 955 -40 949 q -51 977 -51 961 q -42 1029 -51 1006 q -16 1067 -33 1052 q 24 1092 1 1083 q 75 1100 47 1100 q 135 1087 109 1100 q 183 1059 161 1074 q 226 1030 205 1043 q 269 1017 246 1017 q 311 1033 296 1017 q 326 1086 326 1048 m -149 878 z "},"Ï":{"ha":339,"x_min":-119,"x_max":359,"o":"m 211 14 q 209 6 211 9 q 202 1 207 3 q 190 -3 197 -1 q 170 -4 182 -4 q 150 -3 158 -4 q 137 1 142 -1 q 130 6 132 3 q 128 14 128 9 l 128 864 q 131 871 128 868 q 138 877 133 875 q 151 880 143 879 q 170 882 159 882 q 190 880 182 882 q 202 877 197 879 q 209 871 207 875 q 211 864 211 868 l 211 14 m 87 1035 q 76 991 87 1002 q 34 979 64 979 q -7 990 4 979 q -18 1034 -18 1002 q -7 1078 -18 1067 q 35 1090 5 1090 q 76 1079 65 1090 q 87 1035 87 1067 m 359 1035 q 348 991 359 1002 q 306 979 336 979 q 265 990 276 979 q 254 1034 254 1002 q 265 1078 254 1067 q 307 1090 277 1090 q 348 1079 337 1090 q 359 1035 359 1067 m -119 878 z "},"Ī":{"ha":339,"x_min":-125,"x_max":366,"o":"m 211 14 q 209 6 211 9 q 202 1 207 3 q 190 -3 197 -1 q 170 -4 182 -4 q 150 -3 158 -4 q 137 1 142 -1 q 130 6 132 3 q 128 14 128 9 l 128 864 q 131 871 128 868 q 138 877 133 875 q 151 880 143 879 q 170 882 159 882 q 190 880 182 882 q 202 877 197 879 q 209 871 207 875 q 211 864 211 868 l 211 14 m 348 1069 q 355 1066 352 1069 q 361 1060 359 1064 q 365 1048 363 1055 q 366 1034 366 1042 q 365 1019 366 1025 q 361 1008 363 1013 q 355 1001 359 1003 q 348 998 352 998 l -5 998 q -14 1001 -10 998 q -19 1008 -17 1003 q -23 1019 -22 1013 q -24 1034 -24 1025 q -23 1048 -24 1042 q -19 1060 -22 1055 q -14 1066 -17 1064 q -5 1069 -10 1069 l 348 1069 m -125 878 z "},"Ĭ":{"ha":339,"x_min":-92,"x_max":333,"o":"m 211 14 q 209 6 211 9 q 202 1 207 3 q 190 -3 197 -1 q 170 -4 182 -4 q 150 -3 158 -4 q 137 1 142 -1 q 130 6 132 3 q 128 14 128 9 l 128 864 q 131 871 128 868 q 138 877 133 875 q 151 880 143 879 q 170 882 159 882 q 190 880 182 882 q 202 877 197 879 q 209 871 207 875 q 211 864 211 868 l 211 14 m 333 1129 q 322 1054 333 1087 q 289 997 311 1021 q 237 962 268 974 q 170 949 207 949 q 97 963 127 949 q 47 1001 66 977 q 18 1058 27 1025 q 8 1129 8 1091 q 14 1142 8 1138 q 39 1145 20 1145 q 66 1143 58 1145 q 74 1132 74 1141 q 80 1096 74 1122 q 98 1053 85 1069 q 128 1026 110 1036 q 172 1017 146 1017 q 231 1036 209 1017 q 260 1080 253 1055 q 267 1122 267 1106 q 273 1141 267 1137 q 302 1145 278 1145 q 327 1142 321 1145 q 333 1129 333 1138 m -92 878 z "},"İ":{"ha":339,"x_min":19,"x_max":225,"o":"m 211 14 q 209 6 211 9 q 202 1 207 3 q 190 -3 197 -1 q 170 -4 182 -4 q 150 -3 158 -4 q 137 1 142 -1 q 130 6 132 3 q 128 14 128 9 l 128 864 q 131 871 128 868 q 138 877 133 875 q 151 880 143 879 q 170 882 159 882 q 190 880 182 882 q 202 877 197 879 q 209 871 207 875 q 211 864 211 868 l 211 14 m 225 1035 q 213 991 225 1003 q 172 979 201 979 q 131 991 142 979 q 119 1034 119 1002 q 131 1078 119 1066 q 173 1090 143 1090 q 214 1078 202 1090 q 225 1035 225 1067 m 19 878 z "},"Į":{"ha":339,"x_min":30,"x_max":260,"o":"m 260 -209 q 259 -221 260 -216 q 256 -229 258 -226 q 250 -234 254 -233 q 240 -237 246 -236 q 198 -245 219 -243 q 153 -248 177 -248 q 62 -223 95 -248 q 30 -151 30 -198 q 31 -130 30 -141 q 38 -106 33 -119 q 54 -78 43 -94 q 84 -44 65 -63 l 132 4 q 129 8 130 5 q 128 14 128 10 l 128 864 q 131 871 128 868 q 138 877 133 875 q 151 880 143 879 q 170 882 159 882 q 190 880 182 882 q 202 877 197 879 q 209 871 207 875 q 211 864 211 868 l 211 14 q 208 -7 211 2 q 197 -24 205 -16 l 142 -79 q 114 -116 119 -102 q 108 -141 108 -130 q 121 -171 108 -161 q 162 -181 134 -181 l 244 -181 q 256 -186 252 -181 q 260 -209 260 -191 z "},"Ĳ":{"ha":773,"x_min":128,"x_max":648,"o":"m 211 14 q 209 6 211 9 q 202 1 207 3 q 190 -3 197 -1 q 170 -4 182 -4 q 150 -3 158 -4 q 137 1 142 -1 q 130 6 132 3 q 128 14 128 9 l 128 864 q 131 871 128 868 q 138 877 133 875 q 151 880 143 879 q 170 882 159 882 q 190 880 182 882 q 202 877 197 879 q 209 871 207 875 q 211 864 211 868 l 211 14 m 648 209 q 639 119 648 160 q 610 50 631 79 q 554 4 589 20 q 468 -12 519 -12 q 432 -8 450 -12 q 399 0 414 -5 q 373 11 385 5 q 358 21 362 17 q 353 28 355 25 q 349 37 351 32 q 347 48 347 41 q 346 64 346 55 q 347 81 346 75 q 351 92 349 88 q 357 97 353 96 q 365 99 360 99 q 379 93 370 99 q 400 81 388 87 q 430 69 413 75 q 469 63 447 63 q 512 69 494 63 q 542 93 530 75 q 559 141 553 111 q 565 222 565 172 l 565 864 q 567 871 565 868 q 574 877 569 875 q 587 880 578 879 q 606 882 595 882 q 626 880 618 882 q 639 877 634 879 q 646 871 644 875 q 648 864 648 868 l 648 209 z "},"J":{"ha":434,"x_min":6,"x_max":308,"o":"m 308 209 q 299 119 308 160 q 270 50 291 79 q 214 4 249 20 q 128 -12 180 -12 q 92 -8 110 -12 q 60 0 75 -5 q 34 11 45 5 q 19 21 22 17 q 13 28 15 25 q 9 37 11 32 q 7 48 7 41 q 6 64 6 55 q 7 81 6 75 q 11 92 9 88 q 17 97 14 96 q 25 99 20 99 q 39 93 31 99 q 61 81 48 87 q 90 69 73 75 q 130 63 107 63 q 173 69 155 63 q 202 93 191 75 q 219 141 214 111 q 225 222 225 172 l 225 864 q 227 871 225 868 q 234 877 229 875 q 247 880 239 879 q 267 882 255 882 q 286 880 278 882 q 299 877 294 879 q 306 871 304 875 q 308 864 308 868 l 308 209 z "},"Ĵ":{"ha":434,"x_min":-61,"x_max":458,"o":"m 308 209 q 299 119 308 160 q 270 50 291 79 q 214 4 249 20 q 128 -12 180 -12 q 92 -8 110 -12 q 60 0 75 -5 q 34 11 45 5 q 19 21 22 17 q 13 28 15 25 q 9 37 11 32 q 7 48 7 41 q 6 64 6 55 q 7 81 6 75 q 11 92 9 88 q 17 97 14 96 q 25 99 20 99 q 39 93 31 99 q 61 81 48 87 q 90 69 73 75 q 130 63 107 63 q 173 69 155 63 q 202 93 191 75 q 219 141 214 111 q 225 222 225 172 l 225 864 q 227 871 225 868 q 234 877 229 875 q 247 880 239 879 q 267 882 255 882 q 286 880 278 882 q 299 877 294 879 q 306 871 304 875 q 308 864 308 868 l 308 209 m 254 1145 q 271 1145 264 1145 q 283 1142 278 1144 q 292 1137 288 1140 q 300 1131 296 1135 l 452 972 q 457 962 456 966 q 455 955 458 958 q 445 951 452 952 q 428 949 438 949 q 403 950 412 949 q 388 953 393 951 q 378 957 382 954 q 372 962 375 959 l 254 1091 l 133 966 q 122 957 127 960 q 110 952 117 954 q 94 950 103 951 q 71 949 85 949 q 51 951 58 949 q 41 956 44 953 q 40 962 39 958 q 47 972 41 966 l 210 1131 q 218 1137 214 1135 q 227 1142 222 1140 q 238 1145 232 1144 q 254 1145 245 1145 m -61 878 z "},"K":{"ha":701,"x_min":128,"x_max":663,"o":"m 663 15 q 661 7 663 10 q 655 1 660 3 q 642 -3 650 -1 q 621 -4 634 -4 q 596 -3 609 -4 q 577 3 584 -1 q 566 14 570 7 l 211 464 l 211 14 q 209 6 211 9 q 202 1 207 3 q 190 -3 197 -1 q 170 -4 182 -4 q 150 -3 158 -4 q 137 1 142 -1 q 130 6 132 3 q 128 14 128 9 l 128 864 q 130 871 128 868 q 137 877 132 875 q 150 880 142 879 q 170 882 158 882 q 190 880 182 882 q 202 877 197 879 q 209 871 207 875 q 211 864 211 868 l 211 465 l 551 864 q 559 872 555 869 q 570 878 564 876 q 585 881 576 880 q 605 882 593 882 q 625 880 617 882 q 636 877 632 879 q 642 871 641 874 q 644 864 644 868 q 640 850 644 857 q 627 833 636 843 l 308 468 l 649 40 q 661 23 659 28 q 663 15 663 18 z "},"Ķ":{"ha":701,"x_min":128,"x_max":663,"o":"m 663 15 q 661 7 663 10 q 655 1 660 3 q 642 -3 650 -1 q 621 -4 634 -4 q 596 -3 609 -4 q 577 3 584 -1 q 566 14 570 7 l 211 464 l 211 14 q 209 6 211 9 q 202 1 207 3 q 190 -3 197 -1 q 170 -4 182 -4 q 150 -3 158 -4 q 137 1 142 -1 q 130 6 132 3 q 128 14 128 9 l 128 864 q 130 871 128 868 q 137 877 132 875 q 150 880 142 879 q 170 882 158 882 q 190 880 182 882 q 202 877 197 879 q 209 871 207 875 q 211 864 211 868 l 211 465 l 551 864 q 559 872 555 869 q 570 878 564 876 q 585 881 576 880 q 605 882 593 882 q 625 880 617 882 q 636 877 632 879 q 642 871 641 874 q 644 864 644 868 q 640 850 644 857 q 627 833 636 843 l 308 468 l 649 40 q 661 23 659 28 q 663 15 663 18 m 334 -90 q 349 -71 339 -75 q 386 -66 359 -66 q 416 -75 412 -66 q 415 -94 420 -83 l 351 -228 q 335 -244 345 -241 q 306 -248 326 -248 q 285 -242 288 -248 q 287 -222 282 -236 l 334 -90 z "},"L":{"ha":582,"x_min":128,"x_max":568,"o":"m 568 38 q 567 22 568 28 q 563 10 566 15 q 556 2 560 5 q 547 0 552 0 l 166 0 q 141 9 154 0 q 128 43 128 18 l 128 864 q 130 871 128 868 q 137 877 132 875 q 150 880 142 879 q 170 882 158 882 q 190 880 182 882 q 202 877 197 879 q 209 871 207 875 q 211 864 211 868 l 211 75 l 547 75 q 556 73 552 75 q 563 66 560 71 q 567 55 566 62 q 568 38 568 47 z "},"Ĺ":{"ha":582,"x_min":93,"x_max":568,"o":"m 568 38 q 567 22 568 28 q 563 10 566 15 q 556 2 560 5 q 547 0 552 0 l 166 0 q 141 9 154 0 q 128 43 128 18 l 128 864 q 130 871 128 868 q 137 877 132 875 q 150 880 142 879 q 170 882 158 882 q 190 880 182 882 q 202 877 197 879 q 209 871 207 875 q 211 864 211 868 l 211 75 l 547 75 q 556 73 552 75 q 563 66 560 71 q 567 55 566 62 q 568 38 568 47 m 332 1123 q 345 1135 338 1131 q 359 1142 351 1139 q 376 1145 366 1144 q 397 1145 385 1145 q 420 1143 412 1145 q 433 1137 429 1141 q 436 1128 437 1133 q 430 1118 435 1123 l 275 969 q 263 959 269 962 q 252 953 258 955 q 238 950 245 951 q 221 949 231 949 q 203 951 210 949 q 195 956 197 953 q 194 964 193 959 q 201 975 195 968 l 332 1123 m 93 878 z "},"Ľ":{"ha":582,"x_min":128,"x_max":568,"o":"m 568 38 q 567 22 568 28 q 563 10 566 15 q 556 2 560 5 q 547 0 552 0 l 166 0 q 141 9 154 0 q 128 43 128 18 l 128 864 q 130 871 128 868 q 137 877 132 875 q 150 880 142 879 q 170 882 158 882 q 190 880 182 882 q 202 877 197 879 q 209 871 207 875 q 211 864 211 868 l 211 75 l 547 75 q 556 73 552 75 q 563 66 560 71 q 567 55 566 62 q 568 38 568 47 m 411 888 q 416 898 413 894 q 425 904 420 902 q 439 907 431 906 q 460 908 448 908 q 476 907 471 908 q 485 904 482 906 q 488 897 488 901 q 487 888 488 893 l 402 676 q 399 671 401 673 q 393 668 397 669 q 381 666 389 667 q 363 665 374 665 q 352 666 356 665 q 345 669 347 667 q 342 674 343 671 q 343 680 342 677 l 411 888 m 241 642 z "},"Ļ":{"ha":582,"x_min":128,"x_max":568,"o":"m 568 38 q 567 22 568 28 q 563 10 566 15 q 556 2 560 5 q 547 0 552 0 l 166 0 q 141 9 154 0 q 128 43 128 18 l 128 864 q 130 871 128 868 q 137 877 132 875 q 150 880 142 879 q 170 882 158 882 q 190 880 182 882 q 202 877 197 879 q 209 871 207 875 q 211 864 211 868 l 211 75 l 547 75 q 556 73 552 75 q 563 66 560 71 q 567 55 566 62 q 568 38 568 47 m 311 -90 q 326 -71 316 -75 q 363 -66 336 -66 q 393 -75 389 -66 q 392 -94 397 -83 l 328 -228 q 312 -244 321 -241 q 283 -248 303 -248 q 262 -242 264 -248 q 264 -222 259 -236 l 311 -90 z "},"Ł":{"ha":595,"x_min":22,"x_max":581,"o":"m 581 38 q 580 22 581 28 q 575 10 578 15 q 568 2 572 5 q 559 0 564 0 l 178 0 q 154 9 166 0 q 141 43 141 18 l 141 395 l 43 332 q 27 333 33 326 q 22 362 22 339 q 22 377 22 370 q 25 388 23 383 q 30 397 27 393 q 38 404 33 401 l 141 469 l 141 864 q 143 871 141 868 q 150 877 145 875 q 162 880 155 879 q 182 882 170 882 q 202 880 194 882 q 215 877 210 879 q 222 871 220 875 q 224 864 224 868 l 224 521 l 390 625 q 405 624 399 631 q 411 595 411 617 q 410 580 411 587 q 408 569 410 574 q 402 560 406 564 q 395 553 399 556 l 224 446 l 224 75 l 559 75 q 568 73 564 75 q 575 66 572 71 q 580 55 578 62 q 581 38 581 47 z "},"Ŀ":{"ha":747,"x_min":128,"x_max":637,"o":"m 568 38 q 567 22 568 28 q 563 10 566 15 q 556 2 560 5 q 547 0 552 0 l 166 0 q 141 9 154 0 q 128 43 128 18 l 128 864 q 130 871 128 868 q 137 877 132 875 q 150 880 142 879 q 170 882 158 882 q 190 880 182 882 q 202 877 197 879 q 209 871 207 875 q 211 864 211 868 l 211 75 l 547 75 q 556 73 552 75 q 563 66 560 71 q 567 55 566 62 q 568 38 568 47 m 637 454 q 624 401 637 414 q 578 389 611 389 q 533 401 546 389 q 521 453 521 414 q 534 506 521 493 q 580 519 547 519 q 624 506 612 519 q 637 454 637 494 z "},"M":{"ha":1173,"x_min":128,"x_max":1045,"o":"m 1045 14 q 1043 6 1045 9 q 1036 1 1041 3 q 1023 -3 1031 -1 q 1003 -4 1015 -4 q 984 -3 992 -4 q 971 1 976 -1 q 964 6 966 3 q 962 14 962 9 l 962 805 l 961 805 l 616 9 q 612 4 614 6 q 604 0 609 1 q 593 -3 600 -2 q 578 -4 587 -4 q 562 -3 568 -4 q 550 0 555 -2 q 543 4 546 1 q 540 9 541 6 l 212 805 l 211 805 l 211 14 q 209 6 211 9 q 202 1 207 3 q 189 -3 197 -1 q 168 -4 181 -4 q 149 -3 157 -4 q 136 1 141 -1 q 130 6 132 3 q 128 14 128 9 l 128 835 q 141 868 128 859 q 166 878 154 878 l 211 878 q 241 874 228 878 q 263 863 254 870 q 280 846 273 856 q 292 823 287 836 l 582 125 l 585 125 l 887 820 q 902 847 894 836 q 918 865 909 859 q 936 875 926 872 q 958 878 946 878 l 1007 878 q 1020 876 1013 878 q 1032 868 1027 873 q 1041 855 1038 863 q 1045 835 1045 847 l 1045 14 z "},"N":{"ha":886,"x_min":128,"x_max":758,"o":"m 758 40 q 754 20 758 28 q 745 6 751 12 q 732 -1 739 1 q 719 -3 725 -3 l 702 -3 q 677 1 688 -3 q 655 13 666 4 q 634 35 645 21 q 611 72 624 50 l 302 620 q 255 702 279 660 q 211 785 232 745 l 210 785 q 211 683 211 735 q 211 582 211 631 l 211 14 q 209 6 211 9 q 202 1 207 3 q 190 -3 197 -1 q 170 -4 182 -4 q 150 -3 158 -4 q 137 1 142 -1 q 130 6 132 3 q 128 14 128 9 l 128 835 q 141 868 128 859 q 166 878 154 878 l 200 878 q 227 875 216 878 q 247 866 238 872 q 264 847 256 859 q 283 817 273 836 l 519 397 q 562 322 542 358 q 601 251 582 286 q 638 182 620 216 q 675 113 657 148 l 676 113 q 675 232 675 170 q 675 351 675 294 l 675 861 q 677 869 675 865 q 684 874 680 872 q 697 878 689 877 q 717 879 705 879 q 736 878 728 879 q 749 874 744 877 q 756 869 753 872 q 758 861 758 865 l 758 40 z "},"Ń":{"ha":886,"x_min":128,"x_max":758,"o":"m 758 40 q 754 20 758 28 q 745 6 751 12 q 732 -1 739 1 q 719 -3 725 -3 l 702 -3 q 677 1 688 -3 q 655 13 666 4 q 634 35 645 21 q 611 72 624 50 l 302 620 q 255 702 279 660 q 211 785 232 745 l 210 785 q 211 683 211 735 q 211 582 211 631 l 211 14 q 209 6 211 9 q 202 1 207 3 q 190 -3 197 -1 q 170 -4 182 -4 q 150 -3 158 -4 q 137 1 142 -1 q 130 6 132 3 q 128 14 128 9 l 128 835 q 141 868 128 859 q 166 878 154 878 l 200 878 q 227 875 216 878 q 247 866 238 872 q 264 847 256 859 q 283 817 273 836 l 519 397 q 562 322 542 358 q 601 251 582 286 q 638 182 620 216 q 675 113 657 148 l 676 113 q 675 232 675 170 q 675 351 675 294 l 675 861 q 677 869 675 865 q 684 874 680 872 q 697 878 689 877 q 717 879 705 879 q 736 878 728 879 q 749 874 744 877 q 756 869 753 872 q 758 861 758 865 l 758 40 m 545 1123 q 558 1135 551 1131 q 572 1142 564 1139 q 589 1145 579 1144 q 610 1145 598 1145 q 633 1143 625 1145 q 646 1137 642 1141 q 649 1128 650 1133 q 643 1118 648 1123 l 488 969 q 476 959 481 962 q 465 953 471 955 q 451 950 458 951 q 434 949 444 949 q 416 951 422 949 q 408 956 410 953 q 407 964 406 959 q 414 975 408 968 l 545 1123 m 306 878 z "},"Ň":{"ha":886,"x_min":128,"x_max":758,"o":"m 758 40 q 754 20 758 28 q 745 6 751 12 q 732 -1 739 1 q 719 -3 725 -3 l 702 -3 q 677 1 688 -3 q 655 13 666 4 q 634 35 645 21 q 611 72 624 50 l 302 620 q 255 702 279 660 q 211 785 232 745 l 210 785 q 211 683 211 735 q 211 582 211 631 l 211 14 q 209 6 211 9 q 202 1 207 3 q 190 -3 197 -1 q 170 -4 182 -4 q 150 -3 158 -4 q 137 1 142 -1 q 130 6 132 3 q 128 14 128 9 l 128 835 q 141 868 128 859 q 166 878 154 878 l 200 878 q 227 875 216 878 q 247 866 238 872 q 264 847 256 859 q 283 817 273 836 l 519 397 q 562 322 542 358 q 601 251 582 286 q 638 182 620 216 q 675 113 657 148 l 676 113 q 675 232 675 170 q 675 351 675 294 l 675 861 q 677 869 675 865 q 684 874 680 872 q 697 878 689 877 q 717 879 705 879 q 736 878 728 879 q 749 874 744 877 q 756 869 753 872 q 758 861 758 865 l 758 40 m 444 949 q 427 950 434 949 q 415 952 420 951 q 407 957 410 954 q 399 964 403 960 l 247 1123 q 241 1133 242 1128 q 244 1140 241 1137 q 254 1144 247 1143 q 271 1145 260 1145 q 296 1144 286 1145 q 311 1142 305 1143 q 320 1138 317 1141 q 327 1133 323 1135 l 444 1003 l 566 1129 q 576 1137 571 1134 q 589 1142 582 1141 q 605 1145 595 1144 q 627 1145 614 1145 q 648 1144 640 1145 q 657 1139 655 1142 q 658 1132 660 1137 q 652 1123 656 1128 l 490 964 q 481 957 486 960 q 472 952 477 954 q 460 950 467 951 q 444 949 454 949 m 141 878 z "},"Ñ":{"ha":886,"x_min":123,"x_max":758,"o":"m 758 40 q 754 20 758 28 q 745 6 751 12 q 732 -1 739 1 q 719 -3 725 -3 l 702 -3 q 677 1 688 -3 q 655 13 666 4 q 634 35 645 21 q 611 72 624 50 l 302 620 q 255 702 279 660 q 211 785 232 745 l 210 785 q 211 683 211 735 q 211 582 211 631 l 211 14 q 209 6 211 9 q 202 1 207 3 q 190 -3 197 -1 q 170 -4 182 -4 q 150 -3 158 -4 q 137 1 142 -1 q 130 6 132 3 q 128 14 128 9 l 128 835 q 141 868 128 859 q 166 878 154 878 l 200 878 q 227 875 216 878 q 247 866 238 872 q 264 847 256 859 q 283 817 273 836 l 519 397 q 562 322 542 358 q 601 251 582 286 q 638 182 620 216 q 675 113 657 148 l 676 113 q 675 232 675 170 q 675 351 675 294 l 675 861 q 677 869 675 865 q 684 874 680 872 q 697 878 689 877 q 717 879 705 879 q 736 878 728 879 q 749 874 744 877 q 756 869 753 872 q 758 861 758 865 l 758 40 m 599 1086 q 607 1097 599 1094 q 634 1100 616 1100 q 661 1095 655 1100 q 667 1072 667 1089 q 634 983 667 1017 q 541 949 601 949 q 480 962 507 949 q 432 991 454 975 q 389 1019 410 1006 q 346 1032 369 1032 q 302 1013 314 1032 q 290 963 290 994 q 287 956 290 959 q 279 952 284 954 q 268 950 274 950 q 254 949 261 949 q 227 955 233 949 q 222 977 222 961 q 231 1029 222 1006 q 257 1067 240 1052 q 296 1092 273 1083 q 347 1100 319 1100 q 408 1087 382 1100 q 456 1059 434 1074 q 498 1030 478 1043 q 542 1017 519 1017 q 584 1033 568 1017 q 599 1086 599 1048 m 123 878 z "},"Ņ":{"ha":886,"x_min":128,"x_max":758,"o":"m 758 40 q 754 20 758 28 q 745 6 751 12 q 732 -1 739 1 q 719 -3 725 -3 l 702 -3 q 677 1 688 -3 q 655 13 666 4 q 634 35 645 21 q 611 72 624 50 l 302 620 q 255 702 279 660 q 211 785 232 745 l 210 785 q 211 683 211 735 q 211 582 211 631 l 211 14 q 209 6 211 9 q 202 1 207 3 q 190 -3 197 -1 q 170 -4 182 -4 q 150 -3 158 -4 q 137 1 142 -1 q 130 6 132 3 q 128 14 128 9 l 128 835 q 141 868 128 859 q 166 878 154 878 l 200 878 q 227 875 216 878 q 247 866 238 872 q 264 847 256 859 q 283 817 273 836 l 519 397 q 562 322 542 358 q 601 251 582 286 q 638 182 620 216 q 675 113 657 148 l 676 113 q 675 232 675 170 q 675 351 675 294 l 675 861 q 677 869 675 865 q 684 874 680 872 q 697 878 689 877 q 717 879 705 879 q 736 878 728 879 q 749 874 744 877 q 756 869 753 872 q 758 861 758 865 l 758 40 m 385 -90 q 399 -71 389 -75 q 436 -66 410 -66 q 466 -75 462 -66 q 465 -94 471 -83 l 401 -228 q 386 -244 395 -241 q 356 -248 376 -248 q 335 -242 338 -248 q 337 -222 332 -236 l 385 -90 z "},"Ŋ":{"ha":863,"x_min":128,"x_max":734,"o":"m 734 -31 q 727 -121 734 -81 q 700 -190 719 -161 q 647 -233 680 -218 q 562 -248 614 -248 q 530 -246 544 -248 q 505 -242 515 -245 q 486 -236 494 -240 q 474 -229 478 -233 q 469 -218 471 -225 q 467 -197 467 -211 q 468 -182 467 -189 q 471 -172 469 -176 q 476 -165 473 -168 q 483 -163 479 -163 q 494 -165 489 -163 q 507 -170 499 -168 q 526 -175 514 -173 q 558 -177 538 -177 q 601 -170 583 -177 q 630 -145 619 -162 q 647 -100 642 -127 q 652 -31 652 -72 l 652 0 l 319 589 q 265 685 293 635 q 211 785 237 735 l 210 785 q 211 640 211 713 q 211 494 211 566 l 211 14 q 209 6 211 9 q 202 1 207 3 q 190 -3 197 -1 q 170 -4 182 -4 q 150 -3 158 -4 q 137 1 142 -1 q 130 6 132 3 q 128 14 128 9 l 128 835 q 141 868 128 859 q 166 878 154 878 l 203 878 q 229 874 218 878 q 248 865 239 871 q 263 849 256 859 q 278 826 271 840 l 517 402 q 585 280 550 342 q 652 159 619 218 l 653 159 q 652 294 652 224 q 652 430 652 363 l 652 861 q 654 869 652 865 q 661 874 656 872 q 674 878 666 877 q 694 879 682 879 q 712 878 704 879 q 725 874 720 877 q 732 869 730 872 q 734 861 734 865 l 734 -31 z "},"O":{"ha":909,"x_min":75,"x_max":834,"o":"m 834 449 q 810 259 834 344 q 738 114 786 174 q 616 21 690 54 q 446 -12 543 -12 q 278 19 348 -12 q 162 107 208 50 q 96 248 117 165 q 75 434 75 330 q 98 621 75 537 q 171 765 122 705 q 292 857 219 824 q 463 889 365 889 q 629 859 559 889 q 744 771 699 828 q 812 633 790 714 q 834 449 834 551 m 746 441 q 731 588 746 519 q 683 706 717 656 q 594 786 650 757 q 456 814 538 814 q 319 784 375 814 q 228 703 263 754 q 178 585 193 652 q 163 441 163 517 q 177 293 163 361 q 224 173 191 224 q 313 93 257 122 q 452 64 368 64 q 591 95 534 64 q 682 178 647 126 q 731 298 716 230 q 746 441 746 366 z "},"Ò":{"ha":909,"x_min":75,"x_max":834,"o":"m 834 449 q 810 259 834 344 q 738 114 786 174 q 616 21 690 54 q 446 -12 543 -12 q 278 19 348 -12 q 162 107 208 50 q 96 248 117 165 q 75 434 75 330 q 98 621 75 537 q 171 765 122 705 q 292 857 219 824 q 463 889 365 889 q 629 859 559 889 q 744 771 699 828 q 812 633 790 714 q 834 449 834 551 m 746 441 q 731 588 746 519 q 683 706 717 656 q 594 786 650 757 q 456 814 538 814 q 319 784 375 814 q 228 703 263 754 q 178 585 193 652 q 163 441 163 517 q 177 293 163 361 q 224 173 191 224 q 313 93 257 122 q 452 64 368 64 q 591 95 534 64 q 682 178 647 126 q 731 298 716 230 q 746 441 746 366 m 499 975 q 506 964 504 968 q 506 956 508 959 q 497 951 503 953 q 479 949 490 949 q 461 950 469 949 q 449 953 454 951 q 437 959 443 955 q 425 969 432 962 l 271 1118 q 264 1128 265 1123 q 267 1137 263 1133 q 279 1143 271 1141 q 303 1145 288 1145 q 325 1145 315 1145 q 341 1142 334 1144 q 355 1135 349 1139 q 368 1123 361 1131 l 499 975 m 163 878 z "},"Ó":{"ha":909,"x_min":75,"x_max":834,"o":"m 834 449 q 810 259 834 344 q 738 114 786 174 q 616 21 690 54 q 446 -12 543 -12 q 278 19 348 -12 q 162 107 208 50 q 96 248 117 165 q 75 434 75 330 q 98 621 75 537 q 171 765 122 705 q 292 857 219 824 q 463 889 365 889 q 629 859 559 889 q 744 771 699 828 q 812 633 790 714 q 834 449 834 551 m 746 441 q 731 588 746 519 q 683 706 717 656 q 594 786 650 757 q 456 814 538 814 q 319 784 375 814 q 228 703 263 754 q 178 585 193 652 q 163 441 163 517 q 177 293 163 361 q 224 173 191 224 q 313 93 257 122 q 452 64 368 64 q 591 95 534 64 q 682 178 647 126 q 731 298 716 230 q 746 441 746 366 m 539 1123 q 552 1135 546 1131 q 566 1142 559 1139 q 583 1145 574 1144 q 605 1145 593 1145 q 628 1143 619 1145 q 641 1137 637 1141 q 643 1128 644 1133 q 637 1118 642 1123 l 483 969 q 471 959 476 962 q 459 953 465 955 q 446 950 453 951 q 429 949 439 949 q 411 951 417 949 q 402 956 404 953 q 401 964 400 959 q 408 975 403 968 l 539 1123 m 300 878 z "},"Ô":{"ha":909,"x_min":75,"x_max":834,"o":"m 834 449 q 810 259 834 344 q 738 114 786 174 q 616 21 690 54 q 446 -12 543 -12 q 278 19 348 -12 q 162 107 208 50 q 96 248 117 165 q 75 434 75 330 q 98 621 75 537 q 171 765 122 705 q 292 857 219 824 q 463 889 365 889 q 629 859 559 889 q 744 771 699 828 q 812 633 790 714 q 834 449 834 551 m 746 441 q 731 588 746 519 q 683 706 717 656 q 594 786 650 757 q 456 814 538 814 q 319 784 375 814 q 228 703 263 754 q 178 585 193 652 q 163 441 163 517 q 177 293 163 361 q 224 173 191 224 q 313 93 257 122 q 452 64 368 64 q 591 95 534 64 q 682 178 647 126 q 731 298 716 230 q 746 441 746 366 m 464 1145 q 481 1145 474 1145 q 493 1142 488 1144 q 502 1137 498 1140 q 509 1131 505 1135 l 661 972 q 667 962 666 966 q 664 955 667 958 q 654 951 661 952 q 637 949 648 949 q 612 950 622 949 q 597 953 603 951 q 588 957 591 954 q 581 962 585 959 l 464 1091 l 342 966 q 332 957 337 960 q 320 952 327 954 q 303 950 313 951 q 281 949 294 949 q 261 951 268 949 q 251 956 254 953 q 250 962 248 958 q 256 972 251 966 l 419 1131 q 427 1137 423 1135 q 436 1142 431 1140 q 448 1145 441 1144 q 464 1145 454 1145 m 149 878 z "},"Õ":{"ha":909,"x_min":75,"x_max":834,"o":"m 834 449 q 810 259 834 344 q 738 114 786 174 q 616 21 690 54 q 446 -12 543 -12 q 278 19 348 -12 q 162 107 208 50 q 96 248 117 165 q 75 434 75 330 q 98 621 75 537 q 171 765 122 705 q 292 857 219 824 q 463 889 365 889 q 629 859 559 889 q 744 771 699 828 q 812 633 790 714 q 834 449 834 551 m 746 441 q 731 588 746 519 q 683 706 717 656 q 594 786 650 757 q 456 814 538 814 q 319 784 375 814 q 228 703 263 754 q 178 585 193 652 q 163 441 163 517 q 177 293 163 361 q 224 173 191 224 q 313 93 257 122 q 452 64 368 64 q 591 95 534 64 q 682 178 647 126 q 731 298 716 230 q 746 441 746 366 m 614 1086 q 622 1097 614 1094 q 649 1100 631 1100 q 676 1095 670 1100 q 682 1072 682 1089 q 649 983 682 1017 q 556 949 616 949 q 495 962 522 949 q 447 991 469 975 q 404 1019 425 1006 q 361 1032 384 1032 q 317 1013 329 1032 q 304 963 304 994 q 302 956 304 959 q 294 952 299 954 q 282 950 289 950 q 269 949 276 949 q 242 955 248 949 q 237 977 237 961 q 246 1029 237 1006 q 272 1067 255 1052 q 311 1092 288 1083 q 362 1100 334 1100 q 423 1087 397 1100 q 471 1059 449 1074 q 513 1030 493 1043 q 557 1017 534 1017 q 598 1033 583 1017 q 614 1086 614 1048 m 138 878 z "},"Ö":{"ha":909,"x_min":75,"x_max":834,"o":"m 834 449 q 810 259 834 344 q 738 114 786 174 q 616 21 690 54 q 446 -12 543 -12 q 278 19 348 -12 q 162 107 208 50 q 96 248 117 165 q 75 434 75 330 q 98 621 75 537 q 171 765 122 705 q 292 857 219 824 q 463 889 365 889 q 629 859 559 889 q 744 771 699 828 q 812 633 790 714 q 834 449 834 551 m 746 441 q 731 588 746 519 q 683 706 717 656 q 594 786 650 757 q 456 814 538 814 q 319 784 375 814 q 228 703 263 754 q 178 585 193 652 q 163 441 163 517 q 177 293 163 361 q 224 173 191 224 q 313 93 257 122 q 452 64 368 64 q 591 95 534 64 q 682 178 647 126 q 731 298 716 230 q 746 441 746 366 m 374 1035 q 363 991 374 1002 q 321 979 351 979 q 280 990 291 979 q 269 1034 269 1002 q 280 1078 269 1067 q 321 1090 292 1090 q 363 1079 352 1090 q 374 1035 374 1067 m 646 1035 q 635 991 646 1002 q 593 979 623 979 q 552 990 563 979 q 541 1034 541 1002 q 552 1078 541 1067 q 593 1090 564 1090 q 635 1079 624 1090 q 646 1035 646 1067 m 168 878 z "},"Ō":{"ha":909,"x_min":75,"x_max":834,"o":"m 834 449 q 810 259 834 344 q 738 114 786 174 q 616 21 690 54 q 446 -12 543 -12 q 278 19 348 -12 q 162 107 208 50 q 96 248 117 165 q 75 434 75 330 q 98 621 75 537 q 171 765 122 705 q 292 857 219 824 q 463 889 365 889 q 629 859 559 889 q 744 771 699 828 q 812 633 790 714 q 834 449 834 551 m 746 441 q 731 588 746 519 q 683 706 717 656 q 594 786 650 757 q 456 814 538 814 q 319 784 375 814 q 228 703 263 754 q 178 585 193 652 q 163 441 163 517 q 177 293 163 361 q 224 173 191 224 q 313 93 257 122 q 452 64 368 64 q 591 95 534 64 q 682 178 647 126 q 731 298 716 230 q 746 441 746 366 m 635 1069 q 642 1066 639 1069 q 648 1060 646 1064 q 651 1048 650 1055 q 652 1034 652 1042 q 651 1019 652 1025 q 648 1008 650 1013 q 642 1001 646 1003 q 635 998 639 998 l 281 998 q 273 1001 277 998 q 268 1008 270 1003 q 264 1019 265 1013 q 262 1034 262 1025 q 264 1048 262 1042 q 268 1060 265 1055 q 273 1066 270 1064 q 281 1069 277 1069 l 635 1069 m 162 878 z "},"Ŏ":{"ha":909,"x_min":75,"x_max":834,"o":"m 834 449 q 810 259 834 344 q 738 114 786 174 q 616 21 690 54 q 446 -12 543 -12 q 278 19 348 -12 q 162 107 208 50 q 96 248 117 165 q 75 434 75 330 q 98 621 75 537 q 171 765 122 705 q 292 857 219 824 q 463 889 365 889 q 629 859 559 889 q 744 771 699 828 q 812 633 790 714 q 834 449 834 551 m 746 441 q 731 588 746 519 q 683 706 717 656 q 594 786 650 757 q 456 814 538 814 q 319 784 375 814 q 228 703 263 754 q 178 585 193 652 q 163 441 163 517 q 177 293 163 361 q 224 173 191 224 q 313 93 257 122 q 452 64 368 64 q 591 95 534 64 q 682 178 647 126 q 731 298 716 230 q 746 441 746 366 m 620 1129 q 609 1054 620 1087 q 576 997 597 1021 q 524 962 555 974 q 456 949 494 949 q 384 963 414 949 q 334 1001 353 977 q 304 1058 314 1025 q 295 1129 295 1091 q 301 1142 295 1138 q 326 1145 307 1145 q 353 1143 345 1145 q 361 1132 361 1141 q 367 1096 361 1122 q 385 1053 372 1069 q 415 1026 397 1036 q 458 1017 433 1017 q 518 1036 496 1017 q 547 1080 540 1055 q 554 1122 554 1106 q 559 1141 554 1137 q 589 1145 565 1145 q 614 1142 608 1145 q 620 1129 620 1138 m 195 878 z "},"Ő":{"ha":909,"x_min":75,"x_max":834,"o":"m 834 449 q 810 259 834 344 q 738 114 786 174 q 616 21 690 54 q 446 -12 543 -12 q 278 19 348 -12 q 162 107 208 50 q 96 248 117 165 q 75 434 75 330 q 98 621 75 537 q 171 765 122 705 q 292 857 219 824 q 463 889 365 889 q 629 859 559 889 q 744 771 699 828 q 812 633 790 714 q 834 449 834 551 m 746 441 q 731 588 746 519 q 683 706 717 656 q 594 786 650 757 q 456 814 538 814 q 319 784 375 814 q 228 703 263 754 q 178 585 193 652 q 163 441 163 517 q 177 293 163 361 q 224 173 191 224 q 313 93 257 122 q 452 64 368 64 q 591 95 534 64 q 682 178 647 126 q 731 298 716 230 q 746 441 746 366 m 432 1123 q 459 1142 445 1138 q 497 1145 473 1145 q 534 1137 527 1145 q 530 1118 541 1128 l 375 969 q 363 959 368 962 q 352 953 357 955 q 339 950 346 951 q 321 949 332 949 q 295 956 298 949 q 301 975 291 962 l 432 1123 m 655 1123 q 682 1142 668 1138 q 720 1145 696 1145 q 757 1137 750 1145 q 753 1118 764 1128 l 598 969 q 586 959 591 962 q 575 953 581 955 q 562 950 569 951 q 545 949 555 949 q 518 956 522 949 q 524 975 514 962 l 655 1123 z "},"Ø":{"ha":909,"x_min":75,"x_max":834,"o":"m 834 449 q 810 259 834 344 q 736 114 785 174 q 615 21 688 54 q 446 -12 542 -12 q 362 -4 400 -12 q 291 16 325 3 l 210 -144 q 204 -152 208 -149 q 193 -156 199 -155 q 177 -158 186 -157 q 156 -159 168 -159 q 136 -156 143 -159 q 125 -150 128 -154 q 123 -139 122 -145 q 127 -125 123 -133 l 218 56 q 154 121 181 83 q 110 207 127 159 q 83 311 92 254 q 75 434 75 368 q 98 621 75 537 q 171 765 122 705 q 292 857 219 824 q 463 889 365 889 q 545 882 508 889 q 618 860 583 874 l 698 1022 q 705 1029 701 1027 q 716 1034 709 1032 q 732 1036 723 1036 q 753 1036 741 1036 q 773 1034 766 1036 q 784 1027 781 1031 q 786 1017 787 1023 q 781 1003 785 1010 l 690 820 q 753 754 726 792 q 798 670 780 717 q 825 568 816 623 q 834 449 834 513 m 746 441 q 724 612 746 535 q 652 742 702 690 l 326 90 q 383 71 353 78 q 452 64 413 64 q 591 95 534 64 q 682 178 647 126 q 731 298 716 230 q 746 441 746 366 m 584 788 q 526 808 557 801 q 456 814 495 814 q 319 784 375 814 q 228 703 263 754 q 178 585 193 652 q 163 441 163 517 q 184 265 163 345 q 258 134 206 185 l 584 788 z "},"Ǿ":{"ha":909,"x_min":75,"x_max":834,"o":"m 834 449 q 810 259 834 344 q 736 114 785 174 q 615 21 688 54 q 446 -12 542 -12 q 362 -4 400 -12 q 291 16 325 3 l 210 -144 q 204 -152 208 -149 q 193 -156 199 -155 q 177 -158 186 -157 q 156 -159 168 -159 q 136 -156 143 -159 q 125 -150 128 -154 q 123 -139 122 -145 q 127 -125 123 -133 l 218 56 q 154 121 181 83 q 110 207 127 159 q 83 311 92 254 q 75 434 75 368 q 98 621 75 537 q 171 765 122 705 q 292 857 219 824 q 463 889 365 889 q 545 882 508 889 q 618 860 583 874 l 698 1022 q 705 1029 701 1027 q 716 1034 709 1032 q 732 1036 723 1036 q 753 1036 741 1036 q 773 1034 766 1036 q 784 1027 781 1031 q 786 1017 787 1023 q 781 1003 785 1010 l 690 820 q 753 754 726 792 q 798 670 780 717 q 825 568 816 623 q 834 449 834 513 m 746 441 q 724 612 746 535 q 652 742 702 690 l 326 90 q 383 71 353 78 q 452 64 413 64 q 591 95 534 64 q 682 178 647 126 q 731 298 716 230 q 746 441 746 366 m 584 788 q 526 808 557 801 q 456 814 495 814 q 319 784 375 814 q 228 703 263 754 q 178 585 193 652 q 163 441 163 517 q 184 265 163 345 q 258 134 206 185 l 584 788 m 475 1123 q 489 1135 482 1131 q 503 1142 495 1139 q 519 1145 510 1144 q 541 1145 529 1145 q 564 1143 555 1145 q 577 1137 573 1141 q 579 1128 581 1133 q 574 1118 578 1123 l 419 969 q 407 959 412 962 q 395 953 401 955 q 382 950 389 951 q 365 949 375 949 q 347 951 353 949 q 338 956 340 953 q 338 964 336 959 q 345 975 339 968 l 475 1123 m 237 878 z "},"Œ":{"ha":1198,"x_min":75,"x_max":1118,"o":"m 1118 37 q 1117 21 1118 28 q 1113 9 1116 14 q 1105 2 1109 5 q 1097 0 1101 0 l 686 0 q 662 8 674 0 q 648 37 650 16 q 556 1 608 13 q 446 -12 505 -12 q 278 19 348 -12 q 162 107 208 50 q 96 248 117 165 q 75 434 75 330 q 98 621 75 537 q 171 765 122 705 q 292 857 219 824 q 463 889 365 889 q 562 877 513 889 q 649 845 611 864 q 663 871 652 864 q 686 878 674 878 l 1090 878 q 1099 875 1095 878 q 1106 868 1103 873 q 1110 856 1109 863 q 1112 840 1112 849 q 1110 824 1112 831 q 1106 813 1109 817 q 1099 806 1103 808 q 1090 804 1095 804 l 730 804 l 730 494 l 1042 494 q 1050 492 1046 494 q 1057 485 1055 490 q 1061 473 1060 480 q 1063 456 1063 466 q 1061 441 1063 448 q 1057 429 1060 434 q 1050 422 1055 425 q 1042 420 1046 420 l 730 420 l 730 74 l 1097 74 q 1105 72 1101 74 q 1113 65 1109 69 q 1117 53 1116 60 q 1118 37 1118 46 m 648 755 q 562 798 609 782 q 456 814 515 814 q 319 784 375 814 q 228 703 263 754 q 178 585 193 652 q 163 441 163 517 q 177 293 163 361 q 224 173 191 224 q 313 93 257 122 q 452 64 368 64 q 564 81 515 64 q 648 125 613 98 l 648 755 z "},"P":{"ha":705,"x_min":128,"x_max":633,"o":"m 633 626 q 613 514 633 565 q 553 427 592 463 q 459 370 515 390 q 325 349 404 349 l 211 349 l 211 14 q 209 6 211 9 q 202 1 207 3 q 190 -3 197 -1 q 170 -4 182 -4 q 150 -3 158 -4 q 137 1 142 -1 q 130 6 132 3 q 128 14 128 9 l 128 835 q 141 868 128 859 q 166 878 154 878 l 345 878 q 396 875 371 878 q 455 865 421 873 q 523 836 488 857 q 583 784 558 814 q 620 713 607 753 q 633 626 633 673 m 546 618 q 524 715 546 675 q 469 774 501 755 q 402 799 437 793 q 336 804 367 804 l 211 804 l 211 422 l 330 422 q 427 437 388 422 q 492 477 465 452 q 532 539 518 503 q 546 618 546 576 z "},"Þ":{"ha":705,"x_min":128,"x_max":633,"o":"m 633 474 q 613 362 633 413 q 555 275 593 311 q 464 218 517 238 q 343 197 410 197 l 211 197 l 211 12 q 209 4 211 7 q 202 -2 207 1 q 190 -5 197 -4 q 170 -6 182 -6 q 150 -5 158 -6 q 137 -2 142 -4 q 130 4 132 1 q 128 12 128 7 l 128 865 q 130 873 128 869 q 137 878 132 876 q 150 882 142 880 q 170 883 158 883 q 190 882 182 883 q 202 878 197 880 q 209 873 207 876 q 211 865 211 869 l 211 726 l 345 726 q 397 723 371 726 q 446 715 422 721 q 524 684 490 705 q 583 631 559 663 q 621 561 608 600 q 633 474 633 521 m 546 467 q 512 583 546 536 q 415 644 477 629 q 375 650 396 649 q 338 651 354 651 l 211 651 l 211 271 l 353 271 q 434 285 398 271 q 494 326 469 300 q 533 388 519 351 q 546 467 546 424 z "},"Q":{"ha":925,"x_min":75,"x_max":956,"o":"m 956 -74 q 954 -93 956 -85 q 949 -105 952 -100 q 943 -112 946 -110 q 935 -114 939 -114 q 900 -103 927 -114 q 836 -72 873 -92 q 752 -22 798 -52 q 663 47 707 7 q 574 6 628 23 q 446 -12 519 -12 q 278 19 348 -12 q 162 107 208 50 q 96 248 117 165 q 75 434 75 330 q 98 621 75 537 q 171 765 122 705 q 292 857 219 824 q 463 889 365 889 q 625 859 555 889 q 741 771 694 828 q 811 633 787 714 q 834 449 834 551 q 828 347 834 397 q 809 253 822 298 q 775 169 795 208 q 726 99 754 130 q 819 31 779 55 q 884 -7 859 6 q 924 -25 910 -20 q 944 -37 938 -31 q 953 -52 950 -43 q 956 -74 956 -60 m 746 441 q 731 588 746 519 q 683 706 717 656 q 594 786 650 757 q 456 814 538 814 q 319 784 375 814 q 228 703 263 754 q 178 585 193 652 q 163 441 163 517 q 177 293 163 361 q 224 173 191 224 q 313 93 257 122 q 452 64 368 64 q 591 95 534 64 q 682 178 647 126 q 731 298 716 230 q 746 441 746 366 z "},"R":{"ha":739,"x_min":128,"x_max":677,"o":"m 677 15 q 676 7 677 10 q 669 1 674 3 q 656 -3 665 -1 q 635 -4 648 -4 q 615 -3 623 -4 q 602 1 608 -2 q 593 9 597 4 q 587 22 590 14 l 505 235 q 475 303 491 271 q 435 358 458 335 q 380 395 412 382 q 302 409 347 409 l 211 409 l 211 14 q 209 6 211 9 q 202 1 207 3 q 190 -3 197 -1 q 170 -4 182 -4 q 150 -3 158 -4 q 137 1 142 -1 q 130 6 132 3 q 128 14 128 9 l 128 835 q 141 868 128 859 q 166 878 154 878 l 331 878 q 385 876 363 878 q 424 871 406 874 q 511 843 474 863 q 573 794 549 823 q 609 729 597 766 q 621 651 621 693 q 609 573 621 608 q 574 513 597 539 q 521 468 552 487 q 452 436 490 449 q 493 411 475 426 q 526 375 511 396 q 555 327 541 354 q 582 265 568 299 l 664 60 q 675 28 673 37 q 677 15 677 19 m 532 642 q 507 738 532 699 q 422 793 481 777 q 380 801 403 799 q 319 804 357 804 l 211 804 l 211 481 l 337 481 q 425 494 388 481 q 485 528 461 507 q 520 579 509 550 q 532 642 532 608 z "},"Ŕ":{"ha":739,"x_min":128,"x_max":677,"o":"m 677 15 q 676 7 677 10 q 669 1 674 3 q 656 -3 665 -1 q 635 -4 648 -4 q 615 -3 623 -4 q 602 1 608 -2 q 593 9 597 4 q 587 22 590 14 l 505 235 q 475 303 491 271 q 435 358 458 335 q 380 395 412 382 q 302 409 347 409 l 211 409 l 211 14 q 209 6 211 9 q 202 1 207 3 q 190 -3 197 -1 q 170 -4 182 -4 q 150 -3 158 -4 q 137 1 142 -1 q 130 6 132 3 q 128 14 128 9 l 128 835 q 141 868 128 859 q 166 878 154 878 l 331 878 q 385 876 363 878 q 424 871 406 874 q 511 843 474 863 q 573 794 549 823 q 609 729 597 766 q 621 651 621 693 q 609 573 621 608 q 574 513 597 539 q 521 468 552 487 q 452 436 490 449 q 493 411 475 426 q 526 375 511 396 q 555 327 541 354 q 582 265 568 299 l 664 60 q 675 28 673 37 q 677 15 677 19 m 532 642 q 507 738 532 699 q 422 793 481 777 q 380 801 403 799 q 319 804 357 804 l 211 804 l 211 481 l 337 481 q 425 494 388 481 q 485 528 461 507 q 520 579 509 550 q 532 642 532 608 m 424 1123 q 437 1135 431 1131 q 451 1142 444 1139 q 468 1145 458 1144 q 490 1145 477 1145 q 513 1143 504 1145 q 525 1137 522 1141 q 528 1128 529 1133 q 522 1118 527 1123 l 368 969 q 355 959 361 962 q 344 953 350 955 q 331 950 338 951 q 313 949 323 949 q 295 951 302 949 q 287 956 289 953 q 286 964 285 959 q 293 975 288 968 l 424 1123 m 185 878 z "},"Ř":{"ha":739,"x_min":47,"x_max":677,"o":"m 677 15 q 676 7 677 10 q 669 1 674 3 q 656 -3 665 -1 q 635 -4 648 -4 q 615 -3 623 -4 q 602 1 608 -2 q 593 9 597 4 q 587 22 590 14 l 505 235 q 475 303 491 271 q 435 358 458 335 q 380 395 412 382 q 302 409 347 409 l 211 409 l 211 14 q 209 6 211 9 q 202 1 207 3 q 190 -3 197 -1 q 170 -4 182 -4 q 150 -3 158 -4 q 137 1 142 -1 q 130 6 132 3 q 128 14 128 9 l 128 835 q 141 868 128 859 q 166 878 154 878 l 331 878 q 385 876 363 878 q 424 871 406 874 q 511 843 474 863 q 573 794 549 823 q 609 729 597 766 q 621 651 621 693 q 609 573 621 608 q 574 513 597 539 q 521 468 552 487 q 452 436 490 449 q 493 411 475 426 q 526 375 511 396 q 555 327 541 354 q 582 265 568 299 l 664 60 q 675 28 673 37 q 677 15 677 19 m 532 642 q 507 738 532 699 q 422 793 481 777 q 380 801 403 799 q 319 804 357 804 l 211 804 l 211 481 l 337 481 q 425 494 388 481 q 485 528 461 507 q 520 579 509 550 q 532 642 532 608 m 351 949 q 334 950 340 949 q 322 952 327 951 q 313 957 317 954 q 305 964 309 960 l 153 1123 q 148 1133 149 1128 q 150 1140 147 1137 q 160 1144 153 1143 q 177 1145 167 1145 q 202 1144 193 1145 q 217 1142 212 1143 q 227 1138 223 1141 q 233 1133 230 1135 l 351 1003 l 473 1129 q 483 1137 477 1134 q 495 1142 488 1141 q 511 1145 502 1144 q 534 1145 520 1145 q 554 1144 547 1145 q 564 1139 562 1142 q 565 1132 566 1137 q 558 1123 563 1128 l 396 964 q 388 957 392 960 q 378 952 383 954 q 367 950 373 951 q 351 949 360 949 m 47 878 z "},"Ŗ":{"ha":739,"x_min":128,"x_max":677,"o":"m 677 15 q 676 7 677 10 q 669 1 674 3 q 656 -3 665 -1 q 635 -4 648 -4 q 615 -3 623 -4 q 602 1 608 -2 q 593 9 597 4 q 587 22 590 14 l 505 235 q 475 303 491 271 q 435 358 458 335 q 380 395 412 382 q 302 409 347 409 l 211 409 l 211 14 q 209 6 211 9 q 202 1 207 3 q 190 -3 197 -1 q 170 -4 182 -4 q 150 -3 158 -4 q 137 1 142 -1 q 130 6 132 3 q 128 14 128 9 l 128 835 q 141 868 128 859 q 166 878 154 878 l 331 878 q 385 876 363 878 q 424 871 406 874 q 511 843 474 863 q 573 794 549 823 q 609 729 597 766 q 621 651 621 693 q 609 573 621 608 q 574 513 597 539 q 521 468 552 487 q 452 436 490 449 q 493 411 475 426 q 526 375 511 396 q 555 327 541 354 q 582 265 568 299 l 664 60 q 675 28 673 37 q 677 15 677 19 m 532 642 q 507 738 532 699 q 422 793 481 777 q 380 801 403 799 q 319 804 357 804 l 211 804 l 211 481 l 337 481 q 425 494 388 481 q 485 528 461 507 q 520 579 509 550 q 532 642 532 608 m 340 -90 q 355 -71 345 -75 q 392 -66 366 -66 q 422 -75 418 -66 q 421 -94 427 -83 l 357 -228 q 341 -244 351 -241 q 312 -248 332 -248 q 291 -242 294 -248 q 293 -222 288 -236 l 340 -90 z "},"S":{"ha":629,"x_min":52,"x_max":572,"o":"m 572 237 q 551 133 572 179 q 492 55 530 87 q 402 5 454 22 q 288 -12 350 -12 q 209 -4 246 -12 q 142 15 172 4 q 93 37 113 26 q 66 56 73 48 q 55 74 58 64 q 52 100 52 85 q 53 119 52 112 q 57 132 54 127 q 63 138 59 136 q 71 140 66 140 q 97 128 80 140 q 142 102 115 116 q 208 76 170 88 q 297 64 246 64 q 373 76 338 64 q 433 108 408 87 q 472 160 458 129 q 486 230 486 191 q 468 300 486 271 q 421 351 450 329 q 356 391 393 373 q 281 427 319 409 q 206 466 243 445 q 141 515 170 487 q 94 581 112 543 q 77 671 77 619 q 95 763 77 722 q 146 831 113 803 q 226 874 180 859 q 328 889 273 889 q 385 884 356 889 q 438 870 413 878 q 484 851 464 861 q 510 834 504 840 q 518 824 517 827 q 522 817 520 821 q 524 805 523 812 q 524 789 524 799 q 523 773 524 781 q 520 761 522 766 q 515 753 518 756 q 508 751 512 751 q 485 761 500 751 q 447 783 470 770 q 392 805 424 795 q 319 814 360 814 q 250 804 279 814 q 200 774 220 793 q 171 730 180 755 q 161 677 161 705 q 178 608 161 637 q 225 556 196 578 q 291 516 254 534 q 367 480 328 498 q 442 441 405 462 q 508 392 479 420 q 555 327 537 364 q 572 237 572 289 z "},"Ś":{"ha":629,"x_min":52,"x_max":572,"o":"m 572 237 q 551 133 572 179 q 492 55 530 87 q 402 5 454 22 q 288 -12 350 -12 q 209 -4 246 -12 q 142 15 172 4 q 93 37 113 26 q 66 56 73 48 q 55 74 58 64 q 52 100 52 85 q 53 119 52 112 q 57 132 54 127 q 63 138 59 136 q 71 140 66 140 q 97 128 80 140 q 142 102 115 116 q 208 76 170 88 q 297 64 246 64 q 373 76 338 64 q 433 108 408 87 q 472 160 458 129 q 486 230 486 191 q 468 300 486 271 q 421 351 450 329 q 356 391 393 373 q 281 427 319 409 q 206 466 243 445 q 141 515 170 487 q 94 581 112 543 q 77 671 77 619 q 95 763 77 722 q 146 831 113 803 q 226 874 180 859 q 328 889 273 889 q 385 884 356 889 q 438 870 413 878 q 484 851 464 861 q 510 834 504 840 q 518 824 517 827 q 522 817 520 821 q 524 805 523 812 q 524 789 524 799 q 523 773 524 781 q 520 761 522 766 q 515 753 518 756 q 508 751 512 751 q 485 761 500 751 q 447 783 470 770 q 392 805 424 795 q 319 814 360 814 q 250 804 279 814 q 200 774 220 793 q 171 730 180 755 q 161 677 161 705 q 178 608 161 637 q 225 556 196 578 q 291 516 254 534 q 367 480 328 498 q 442 441 405 462 q 508 392 479 420 q 555 327 537 364 q 572 237 572 289 m 414 1123 q 428 1135 421 1131 q 441 1142 434 1139 q 458 1145 449 1144 q 480 1145 468 1145 q 503 1143 494 1145 q 516 1137 512 1141 q 518 1128 519 1133 q 513 1118 517 1123 l 358 969 q 346 959 351 962 q 334 953 340 955 q 321 950 328 951 q 304 949 314 949 q 286 951 292 949 q 277 956 279 953 q 277 964 275 959 q 283 975 278 968 l 414 1123 m 176 878 z "},"Ŝ":{"ha":629,"x_min":10,"x_max":572,"o":"m 572 237 q 551 133 572 179 q 492 55 530 87 q 402 5 454 22 q 288 -12 350 -12 q 209 -4 246 -12 q 142 15 172 4 q 93 37 113 26 q 66 56 73 48 q 55 74 58 64 q 52 100 52 85 q 53 119 52 112 q 57 132 54 127 q 63 138 59 136 q 71 140 66 140 q 97 128 80 140 q 142 102 115 116 q 208 76 170 88 q 297 64 246 64 q 373 76 338 64 q 433 108 408 87 q 472 160 458 129 q 486 230 486 191 q 468 300 486 271 q 421 351 450 329 q 356 391 393 373 q 281 427 319 409 q 206 466 243 445 q 141 515 170 487 q 94 581 112 543 q 77 671 77 619 q 95 763 77 722 q 146 831 113 803 q 226 874 180 859 q 328 889 273 889 q 385 884 356 889 q 438 870 413 878 q 484 851 464 861 q 510 834 504 840 q 518 824 517 827 q 522 817 520 821 q 524 805 523 812 q 524 789 524 799 q 523 773 524 781 q 520 761 522 766 q 515 753 518 756 q 508 751 512 751 q 485 761 500 751 q 447 783 470 770 q 392 805 424 795 q 319 814 360 814 q 250 804 279 814 q 200 774 220 793 q 171 730 180 755 q 161 677 161 705 q 178 608 161 637 q 225 556 196 578 q 291 516 254 534 q 367 480 328 498 q 442 441 405 462 q 508 392 479 420 q 555 327 537 364 q 572 237 572 289 m 326 1145 q 342 1145 336 1145 q 354 1142 349 1144 q 363 1137 359 1140 q 371 1131 367 1135 l 523 972 q 528 962 528 966 q 526 955 529 958 q 516 951 523 952 q 499 949 509 949 q 474 950 484 949 q 459 953 465 951 q 450 957 453 954 q 443 962 446 959 l 326 1091 l 204 966 q 194 957 199 960 q 181 952 189 954 q 165 950 174 951 q 142 949 156 949 q 122 951 130 949 q 113 956 115 953 q 111 962 110 958 q 118 972 113 966 l 281 1131 q 289 1137 285 1135 q 298 1142 293 1140 q 310 1145 303 1144 q 326 1145 316 1145 m 10 878 z "},"Š":{"ha":629,"x_min":12,"x_max":572,"o":"m 572 237 q 551 133 572 179 q 492 55 530 87 q 402 5 454 22 q 288 -12 350 -12 q 209 -4 246 -12 q 142 15 172 4 q 93 37 113 26 q 66 56 73 48 q 55 74 58 64 q 52 100 52 85 q 53 119 52 112 q 57 132 54 127 q 63 138 59 136 q 71 140 66 140 q 97 128 80 140 q 142 102 115 116 q 208 76 170 88 q 297 64 246 64 q 373 76 338 64 q 433 108 408 87 q 472 160 458 129 q 486 230 486 191 q 468 300 486 271 q 421 351 450 329 q 356 391 393 373 q 281 427 319 409 q 206 466 243 445 q 141 515 170 487 q 94 581 112 543 q 77 671 77 619 q 95 763 77 722 q 146 831 113 803 q 226 874 180 859 q 328 889 273 889 q 385 884 356 889 q 438 870 413 878 q 484 851 464 861 q 510 834 504 840 q 518 824 517 827 q 522 817 520 821 q 524 805 523 812 q 524 789 524 799 q 523 773 524 781 q 520 761 522 766 q 515 753 518 756 q 508 751 512 751 q 485 761 500 751 q 447 783 470 770 q 392 805 424 795 q 319 814 360 814 q 250 804 279 814 q 200 774 220 793 q 171 730 180 755 q 161 677 161 705 q 178 608 161 637 q 225 556 196 578 q 291 516 254 534 q 367 480 328 498 q 442 441 405 462 q 508 392 479 420 q 555 327 537 364 q 572 237 572 289 m 315 949 q 298 950 305 949 q 287 952 292 951 q 278 957 281 954 q 270 964 274 960 l 118 1123 q 113 1133 113 1128 q 115 1140 112 1137 q 125 1144 118 1143 q 142 1145 132 1145 q 167 1144 157 1145 q 182 1142 176 1143 q 191 1138 188 1141 q 198 1133 195 1135 l 315 1003 l 437 1129 q 448 1137 442 1134 q 460 1142 453 1141 q 476 1145 467 1144 q 498 1145 485 1145 q 519 1144 511 1145 q 529 1139 526 1142 q 529 1132 531 1137 q 523 1123 528 1128 l 361 964 q 352 957 357 960 q 343 952 348 954 q 331 950 338 951 q 315 949 325 949 m 12 878 z "},"Ş":{"ha":629,"x_min":52,"x_max":572,"o":"m 337 -9 l 357 -53 q 379 -106 372 -86 q 386 -143 386 -126 q 377 -185 386 -166 q 353 -218 369 -205 q 313 -240 336 -232 q 260 -248 290 -248 q 220 -245 239 -248 q 187 -240 201 -243 q 168 -235 172 -237 q 161 -229 163 -233 q 158 -221 159 -226 q 157 -209 157 -216 q 161 -186 157 -191 q 173 -181 165 -181 l 260 -181 q 297 -171 283 -181 q 311 -141 311 -161 q 306 -117 311 -132 q 294 -85 301 -102 l 260 -10 q 200 -2 228 -8 q 142 15 172 4 q 93 37 113 26 q 66 56 73 48 q 55 74 58 64 q 52 100 52 85 q 53 119 52 112 q 57 132 54 127 q 63 138 59 136 q 71 140 66 140 q 97 128 80 140 q 142 102 115 116 q 208 76 170 88 q 297 64 246 64 q 373 76 338 64 q 433 108 408 87 q 472 160 458 129 q 486 230 486 191 q 468 300 486 271 q 421 351 450 329 q 356 391 393 373 q 281 427 319 409 q 206 466 243 445 q 141 515 170 487 q 94 581 112 543 q 77 671 77 619 q 95 763 77 722 q 146 831 113 803 q 226 874 180 859 q 328 889 273 889 q 385 884 356 889 q 438 870 413 878 q 484 851 464 861 q 510 834 504 840 q 518 824 517 827 q 522 817 520 821 q 524 805 523 812 q 524 789 524 799 q 523 773 524 781 q 520 761 522 766 q 515 753 518 756 q 508 751 512 751 q 485 761 500 751 q 447 783 470 770 q 392 805 424 795 q 319 814 360 814 q 250 804 279 814 q 200 774 220 793 q 171 730 180 755 q 161 677 161 705 q 178 608 161 637 q 225 556 196 578 q 291 516 254 534 q 367 480 328 498 q 442 441 405 462 q 508 392 479 420 q 555 327 537 364 q 572 237 572 289 q 549 128 572 180 q 472 39 526 77 q 337 -9 419 2 z "},"Ș":{"ha":629,"x_min":52,"x_max":572,"o":"m 572 237 q 551 133 572 179 q 492 55 530 87 q 402 5 454 22 q 288 -12 350 -12 q 209 -4 246 -12 q 142 15 172 4 q 93 37 113 26 q 66 56 73 48 q 55 74 58 64 q 52 100 52 85 q 53 119 52 112 q 57 132 54 127 q 63 138 59 136 q 71 140 66 140 q 97 128 80 140 q 142 102 115 116 q 208 76 170 88 q 297 64 246 64 q 373 76 338 64 q 433 108 408 87 q 472 160 458 129 q 486 230 486 191 q 468 300 486 271 q 421 351 450 329 q 356 391 393 373 q 281 427 319 409 q 206 466 243 445 q 141 515 170 487 q 94 581 112 543 q 77 671 77 619 q 95 763 77 722 q 146 831 113 803 q 226 874 180 859 q 328 889 273 889 q 385 884 356 889 q 438 870 413 878 q 484 851 464 861 q 510 834 504 840 q 518 824 517 827 q 522 817 520 821 q 524 805 523 812 q 524 789 524 799 q 523 773 524 781 q 520 761 522 766 q 515 753 518 756 q 508 751 512 751 q 485 761 500 751 q 447 783 470 770 q 392 805 424 795 q 319 814 360 814 q 250 804 279 814 q 200 774 220 793 q 171 730 180 755 q 161 677 161 705 q 178 608 161 637 q 225 556 196 578 q 291 516 254 534 q 367 480 328 498 q 442 441 405 462 q 508 392 479 420 q 555 327 537 364 q 572 237 572 289 m 261 -90 q 276 -71 266 -75 q 313 -66 286 -66 q 343 -75 338 -66 q 342 -94 347 -83 l 277 -228 q 262 -244 271 -241 q 233 -248 253 -248 q 212 -242 214 -248 q 214 -222 209 -236 l 261 -90 z "},"T":{"ha":671,"x_min":12,"x_max":660,"o":"m 660 840 q 659 824 660 831 q 654 813 657 817 q 648 806 652 808 q 639 804 644 804 l 377 804 l 377 14 q 375 6 377 9 q 368 1 373 3 q 355 -3 363 -1 q 336 -4 347 -4 q 316 -3 324 -4 q 303 1 308 -1 q 296 6 298 3 q 294 14 294 9 l 294 804 l 33 804 q 23 806 27 804 q 17 813 20 808 q 13 824 14 817 q 12 840 12 831 q 13 856 12 849 q 17 868 14 863 q 23 875 20 873 q 33 878 27 878 l 639 878 q 648 875 644 878 q 654 868 652 873 q 659 856 657 863 q 660 840 660 849 z "},"Ť":{"ha":671,"x_min":12,"x_max":660,"o":"m 660 840 q 659 824 660 831 q 654 813 657 817 q 648 806 652 808 q 639 804 644 804 l 377 804 l 377 14 q 375 6 377 9 q 368 1 373 3 q 355 -3 363 -1 q 336 -4 347 -4 q 316 -3 324 -4 q 303 1 308 -1 q 296 6 298 3 q 294 14 294 9 l 294 804 l 33 804 q 23 806 27 804 q 17 813 20 808 q 13 824 14 817 q 12 840 12 831 q 13 856 12 849 q 17 868 14 863 q 23 875 20 873 q 33 878 27 878 l 639 878 q 648 875 644 878 q 654 868 652 873 q 659 856 657 863 q 660 840 660 849 m 330 949 q 313 950 319 949 q 301 952 306 951 q 292 957 296 954 q 284 964 288 960 l 132 1123 q 127 1133 127 1128 q 129 1140 126 1137 q 139 1144 132 1143 q 156 1145 146 1145 q 181 1144 172 1145 q 196 1142 191 1143 q 205 1138 202 1141 q 212 1133 209 1135 l 330 1003 l 452 1129 q 462 1137 456 1134 q 474 1142 467 1141 q 490 1145 481 1144 q 513 1145 499 1145 q 533 1144 526 1145 q 543 1139 541 1142 q 544 1132 545 1137 q 537 1123 542 1128 l 375 964 q 367 957 371 960 q 357 952 362 954 q 346 950 352 951 q 330 949 339 949 m 26 878 z "},"Ț":{"ha":671,"x_min":12,"x_max":660,"o":"m 660 840 q 659 824 660 831 q 654 813 657 817 q 648 806 652 808 q 639 804 644 804 l 377 804 l 377 14 q 375 6 377 9 q 368 1 373 3 q 355 -3 363 -1 q 336 -4 347 -4 q 316 -3 324 -4 q 303 1 308 -1 q 296 6 298 3 q 294 14 294 9 l 294 804 l 33 804 q 23 806 27 804 q 17 813 20 808 q 13 824 14 817 q 12 840 12 831 q 13 856 12 849 q 17 868 14 863 q 23 875 20 873 q 33 878 27 878 l 639 878 q 648 875 644 878 q 654 868 652 873 q 659 856 657 863 q 660 840 660 849 m 292 -90 q 307 -71 296 -75 q 343 -66 317 -66 q 373 -75 369 -66 q 372 -94 378 -83 l 308 -228 q 293 -244 302 -241 q 263 -248 283 -248 q 242 -242 245 -248 q 244 -222 239 -236 l 292 -90 z "},"Ŧ":{"ha":671,"x_min":12,"x_max":660,"o":"m 377 494 l 573 494 q 583 492 578 494 q 589 485 587 490 q 593 473 592 480 q 595 456 595 466 q 593 441 595 448 q 589 429 592 434 q 583 422 587 425 q 573 420 578 420 l 377 420 l 377 14 q 375 6 377 9 q 368 1 373 3 q 355 -3 363 -1 q 336 -4 347 -4 q 316 -3 324 -4 q 303 1 308 -1 q 296 6 298 3 q 294 14 294 9 l 294 420 l 98 420 q 89 422 93 420 q 82 429 85 425 q 78 441 79 434 q 77 458 77 448 q 78 473 77 467 q 82 485 79 480 q 89 492 85 490 q 98 494 93 494 l 294 494 l 294 804 l 33 804 q 23 806 27 804 q 17 813 20 808 q 13 824 14 817 q 12 840 12 831 q 13 856 12 849 q 17 868 14 863 q 23 875 20 873 q 33 878 27 878 l 639 878 q 648 875 644 878 q 654 868 652 873 q 659 856 657 863 q 660 840 660 849 q 659 824 660 831 q 654 813 657 817 q 648 806 652 808 q 639 804 644 804 l 377 804 l 377 494 z "},"U":{"ha":883,"x_min":126,"x_max":757,"o":"m 757 323 q 734 180 757 243 q 669 75 711 118 q 568 11 627 33 q 434 -12 508 -12 q 310 9 367 -12 q 213 72 254 31 q 149 173 172 113 q 126 313 126 234 l 126 864 q 128 871 126 868 q 135 877 130 875 q 148 880 140 879 q 168 882 155 882 q 187 880 179 882 q 200 877 195 879 q 207 871 205 875 q 209 864 209 868 l 209 327 q 225 212 209 261 q 271 129 241 162 q 344 80 301 96 q 441 63 387 63 q 539 79 496 63 q 612 127 583 95 q 658 209 642 160 q 674 322 674 257 l 674 864 q 676 871 674 868 q 683 877 678 875 q 696 880 688 879 q 715 882 704 882 q 735 880 727 882 q 748 877 743 879 q 755 871 753 875 q 757 864 757 868 l 757 323 z "},"Ù":{"ha":883,"x_min":126,"x_max":757,"o":"m 757 323 q 734 180 757 243 q 669 75 711 118 q 568 11 627 33 q 434 -12 508 -12 q 310 9 367 -12 q 213 72 254 31 q 149 173 172 113 q 126 313 126 234 l 126 864 q 128 871 126 868 q 135 877 130 875 q 148 880 140 879 q 168 882 155 882 q 187 880 179 882 q 200 877 195 879 q 207 871 205 875 q 209 864 209 868 l 209 327 q 225 212 209 261 q 271 129 241 162 q 344 80 301 96 q 441 63 387 63 q 539 79 496 63 q 612 127 583 95 q 658 209 642 160 q 674 322 674 257 l 674 864 q 676 871 674 868 q 683 877 678 875 q 696 880 688 879 q 715 882 704 882 q 735 880 727 882 q 748 877 743 879 q 755 871 753 875 q 757 864 757 868 l 757 323 m 471 975 q 478 964 476 968 q 478 956 480 959 q 469 951 475 953 q 451 949 463 949 q 434 950 441 949 q 421 953 427 951 q 410 959 415 955 q 397 969 404 962 l 243 1118 q 236 1128 237 1123 q 239 1137 235 1133 q 252 1143 243 1141 q 275 1145 260 1145 q 297 1145 288 1145 q 313 1142 306 1144 q 327 1135 321 1139 q 340 1123 334 1131 l 471 975 m 136 878 z "},"Ú":{"ha":883,"x_min":126,"x_max":757,"o":"m 757 323 q 734 180 757 243 q 669 75 711 118 q 568 11 627 33 q 434 -12 508 -12 q 310 9 367 -12 q 213 72 254 31 q 149 173 172 113 q 126 313 126 234 l 126 864 q 128 871 126 868 q 135 877 130 875 q 148 880 140 879 q 168 882 155 882 q 187 880 179 882 q 200 877 195 879 q 207 871 205 875 q 209 864 209 868 l 209 327 q 225 212 209 261 q 271 129 241 162 q 344 80 301 96 q 441 63 387 63 q 539 79 496 63 q 612 127 583 95 q 658 209 642 160 q 674 322 674 257 l 674 864 q 676 871 674 868 q 683 877 678 875 q 696 880 688 879 q 715 882 704 882 q 735 880 727 882 q 748 877 743 879 q 755 871 753 875 q 757 864 757 868 l 757 323 m 523 1123 q 536 1135 530 1131 q 550 1142 543 1139 q 567 1145 557 1144 q 589 1145 576 1145 q 612 1143 603 1145 q 624 1137 621 1141 q 627 1128 628 1133 q 621 1118 626 1123 l 467 969 q 454 959 460 962 q 443 953 449 955 q 430 950 437 951 q 412 949 422 949 q 394 951 401 949 q 386 956 388 953 q 385 964 384 959 q 392 975 387 968 l 523 1123 m 284 878 z "},"Û":{"ha":883,"x_min":126,"x_max":757,"o":"m 757 323 q 734 180 757 243 q 669 75 711 118 q 568 11 627 33 q 434 -12 508 -12 q 310 9 367 -12 q 213 72 254 31 q 149 173 172 113 q 126 313 126 234 l 126 864 q 128 871 126 868 q 135 877 130 875 q 148 880 140 879 q 168 882 155 882 q 187 880 179 882 q 200 877 195 879 q 207 871 205 875 q 209 864 209 868 l 209 327 q 225 212 209 261 q 271 129 241 162 q 344 80 301 96 q 441 63 387 63 q 539 79 496 63 q 612 127 583 95 q 658 209 642 160 q 674 322 674 257 l 674 864 q 676 871 674 868 q 683 877 678 875 q 696 880 688 879 q 715 882 704 882 q 735 880 727 882 q 748 877 743 879 q 755 871 753 875 q 757 864 757 868 l 757 323 m 445 1145 q 462 1145 455 1145 q 474 1142 469 1144 q 483 1137 479 1140 q 490 1131 486 1135 l 642 972 q 648 962 647 966 q 645 955 648 958 q 635 951 642 952 q 618 949 629 949 q 593 950 603 949 q 578 953 584 951 q 569 957 572 954 q 562 962 566 959 l 445 1091 l 323 966 q 313 957 318 960 q 301 952 308 954 q 284 950 294 951 q 262 949 275 949 q 242 951 249 949 q 232 956 235 953 q 231 962 229 958 q 237 972 232 966 l 400 1131 q 408 1137 404 1135 q 417 1142 412 1140 q 429 1145 422 1144 q 445 1145 435 1145 m 130 878 z "},"Ũ":{"ha":883,"x_min":121,"x_max":757,"o":"m 757 323 q 734 180 757 243 q 669 75 711 118 q 568 11 627 33 q 434 -12 508 -12 q 310 9 367 -12 q 213 72 254 31 q 149 173 172 113 q 126 313 126 234 l 126 864 q 128 871 126 868 q 135 877 130 875 q 148 880 140 879 q 168 882 155 882 q 187 880 179 882 q 200 877 195 879 q 207 871 205 875 q 209 864 209 868 l 209 327 q 225 212 209 261 q 271 129 241 162 q 344 80 301 96 q 441 63 387 63 q 539 79 496 63 q 612 127 583 95 q 658 209 642 160 q 674 322 674 257 l 674 864 q 676 871 674 868 q 683 877 678 875 q 696 880 688 879 q 715 882 704 882 q 735 880 727 882 q 748 877 743 879 q 755 871 753 875 q 757 864 757 868 l 757 323 m 596 1086 q 605 1097 596 1094 q 631 1100 613 1100 q 658 1095 652 1100 q 664 1072 664 1089 q 631 983 664 1017 q 538 949 598 949 q 478 962 504 949 q 429 991 452 975 q 387 1019 407 1006 q 343 1032 366 1032 q 299 1013 311 1032 q 287 963 287 994 q 284 956 287 959 q 276 952 281 954 q 265 950 271 950 q 252 949 258 949 q 224 955 230 949 q 219 977 219 961 q 228 1029 219 1006 q 254 1067 237 1052 q 294 1092 271 1083 q 345 1100 317 1100 q 405 1087 379 1100 q 453 1059 431 1074 q 496 1030 475 1043 q 539 1017 516 1017 q 581 1033 566 1017 q 596 1086 596 1048 m 121 878 z "},"Ü":{"ha":883,"x_min":126,"x_max":757,"o":"m 757 323 q 734 180 757 243 q 669 75 711 118 q 568 11 627 33 q 434 -12 508 -12 q 310 9 367 -12 q 213 72 254 31 q 149 173 172 113 q 126 313 126 234 l 126 864 q 128 871 126 868 q 135 877 130 875 q 148 880 140 879 q 168 882 155 882 q 187 880 179 882 q 200 877 195 879 q 207 871 205 875 q 209 864 209 868 l 209 327 q 225 212 209 261 q 271 129 241 162 q 344 80 301 96 q 441 63 387 63 q 539 79 496 63 q 612 127 583 95 q 658 209 642 160 q 674 322 674 257 l 674 864 q 676 871 674 868 q 683 877 678 875 q 696 880 688 879 q 715 882 704 882 q 735 880 727 882 q 748 877 743 879 q 755 871 753 875 q 757 864 757 868 l 757 323 m 357 1035 q 345 991 357 1002 q 303 979 334 979 q 262 990 273 979 q 251 1034 251 1002 q 262 1078 251 1067 q 304 1090 274 1090 q 346 1079 334 1090 q 357 1035 357 1067 m 629 1035 q 617 991 629 1002 q 575 979 606 979 q 534 990 545 979 q 523 1034 523 1002 q 534 1078 523 1067 q 576 1090 546 1090 q 617 1079 606 1090 q 629 1035 629 1067 m 151 878 z "},"Ū":{"ha":883,"x_min":126,"x_max":757,"o":"m 757 323 q 734 180 757 243 q 669 75 711 118 q 568 11 627 33 q 434 -12 508 -12 q 310 9 367 -12 q 213 72 254 31 q 149 173 172 113 q 126 313 126 234 l 126 864 q 128 871 126 868 q 135 877 130 875 q 148 880 140 879 q 168 882 155 882 q 187 880 179 882 q 200 877 195 879 q 207 871 205 875 q 209 864 209 868 l 209 327 q 225 212 209 261 q 271 129 241 162 q 344 80 301 96 q 441 63 387 63 q 539 79 496 63 q 612 127 583 95 q 658 209 642 160 q 674 322 674 257 l 674 864 q 676 871 674 868 q 683 877 678 875 q 696 880 688 879 q 715 882 704 882 q 735 880 727 882 q 748 877 743 879 q 755 871 753 875 q 757 864 757 868 l 757 323 m 617 1069 q 625 1066 621 1069 q 630 1060 628 1064 q 634 1048 633 1055 q 635 1034 635 1042 q 634 1019 635 1025 q 630 1008 633 1013 q 625 1001 628 1003 q 617 998 621 998 l 264 998 q 256 1001 259 998 q 250 1008 252 1003 q 246 1019 248 1013 q 245 1034 245 1025 q 246 1048 245 1042 q 250 1060 248 1055 q 256 1066 252 1064 q 264 1069 259 1069 l 617 1069 m 144 878 z "},"Ŭ":{"ha":883,"x_min":126,"x_max":757,"o":"m 757 323 q 734 180 757 243 q 669 75 711 118 q 568 11 627 33 q 434 -12 508 -12 q 310 9 367 -12 q 213 72 254 31 q 149 173 172 113 q 126 313 126 234 l 126 864 q 128 871 126 868 q 135 877 130 875 q 148 880 140 879 q 168 882 155 882 q 187 880 179 882 q 200 877 195 879 q 207 871 205 875 q 209 864 209 868 l 209 327 q 225 212 209 261 q 271 129 241 162 q 344 80 301 96 q 441 63 387 63 q 539 79 496 63 q 612 127 583 95 q 658 209 642 160 q 674 322 674 257 l 674 864 q 676 871 674 868 q 683 877 678 875 q 696 880 688 879 q 715 882 704 882 q 735 880 727 882 q 748 877 743 879 q 755 871 753 875 q 757 864 757 868 l 757 323 m 602 1129 q 591 1054 602 1087 q 558 997 580 1021 q 507 962 537 974 q 439 949 476 949 q 366 963 397 949 q 316 1001 336 977 q 287 1058 296 1025 q 277 1129 277 1091 q 283 1142 277 1138 q 308 1145 289 1145 q 335 1143 327 1145 q 343 1132 343 1141 q 349 1096 343 1122 q 367 1053 355 1069 q 397 1026 379 1036 q 441 1017 415 1017 q 500 1036 478 1017 q 529 1080 522 1055 q 536 1122 536 1106 q 542 1141 536 1137 q 572 1145 547 1145 q 596 1142 591 1145 q 602 1129 602 1138 m 177 878 z "},"Ů":{"ha":883,"x_min":126,"x_max":757,"o":"m 757 323 q 734 180 757 243 q 669 75 711 118 q 568 11 627 33 q 434 -12 508 -12 q 310 9 367 -12 q 213 72 254 31 q 149 173 172 113 q 126 313 126 234 l 126 864 q 128 871 126 868 q 135 877 130 875 q 148 880 140 879 q 168 882 155 882 q 187 880 179 882 q 200 877 195 879 q 207 871 205 875 q 209 864 209 868 l 209 327 q 225 212 209 261 q 271 129 241 162 q 344 80 301 96 q 441 63 387 63 q 539 79 496 63 q 612 127 583 95 q 658 209 642 160 q 674 322 674 257 l 674 864 q 676 871 674 868 q 683 877 678 875 q 696 880 688 879 q 715 882 704 882 q 735 880 727 882 q 748 877 743 879 q 755 871 753 875 q 757 864 757 868 l 757 323 m 566 1050 q 556 1000 566 1023 q 531 961 547 977 q 490 934 514 944 q 437 924 467 924 q 382 933 406 924 q 344 959 359 943 q 321 997 329 975 q 314 1045 314 1019 q 322 1094 314 1072 q 348 1134 331 1117 q 388 1160 364 1150 q 442 1169 412 1169 q 533 1137 500 1169 q 566 1050 566 1104 m 505 1045 q 490 1095 505 1074 q 440 1116 475 1116 q 391 1098 408 1116 q 374 1050 374 1080 q 389 997 374 1017 q 441 977 404 977 q 490 997 474 977 q 505 1045 505 1017 m 214 878 z "},"Ű":{"ha":883,"x_min":126,"x_max":757,"o":"m 757 323 q 734 180 757 243 q 669 75 711 118 q 568 11 627 33 q 434 -12 508 -12 q 310 9 367 -12 q 213 72 254 31 q 149 173 172 113 q 126 313 126 234 l 126 864 q 128 871 126 868 q 135 877 130 875 q 148 880 140 879 q 168 882 155 882 q 187 880 179 882 q 200 877 195 879 q 207 871 205 875 q 209 864 209 868 l 209 327 q 225 212 209 261 q 271 129 241 162 q 344 80 301 96 q 441 63 387 63 q 539 79 496 63 q 612 127 583 95 q 658 209 642 160 q 674 322 674 257 l 674 864 q 676 871 674 868 q 683 877 678 875 q 696 880 688 879 q 715 882 704 882 q 735 880 727 882 q 748 877 743 879 q 755 871 753 875 q 757 864 757 868 l 757 323 m 418 1123 q 445 1142 431 1138 q 484 1145 459 1145 q 520 1137 513 1145 q 516 1118 527 1128 l 361 969 q 349 959 355 962 q 338 953 344 955 q 325 950 332 951 q 308 949 318 949 q 281 956 285 949 q 288 975 277 962 l 418 1123 m 642 1123 q 668 1142 654 1138 q 707 1145 682 1145 q 743 1137 736 1145 q 739 1118 750 1128 l 585 969 q 572 959 578 962 q 561 953 567 955 q 548 950 555 951 q 531 949 541 949 q 504 956 508 949 q 511 975 500 962 l 642 1123 z "},"Ų":{"ha":883,"x_min":126,"x_max":757,"o":"m 757 323 q 726 160 757 229 q 631 44 696 92 q 617 33 624 39 q 600 17 610 27 q 574 -7 589 7 q 534 -47 559 -22 l 495 -85 q 473 -117 477 -103 q 468 -141 468 -132 q 481 -171 468 -161 q 522 -181 494 -181 l 604 -181 q 611 -182 608 -181 q 616 -186 614 -183 q 619 -195 618 -189 q 620 -209 620 -200 q 619 -221 620 -216 q 616 -229 618 -226 q 610 -234 614 -233 q 600 -237 606 -236 q 558 -245 579 -243 q 513 -248 536 -248 q 422 -223 454 -248 q 390 -151 390 -198 q 391 -130 390 -141 q 398 -106 393 -119 q 414 -78 404 -94 q 444 -44 425 -63 l 480 -7 q 463 -10 473 -9 q 439 -12 452 -12 q 352 -2 393 -12 q 276 26 311 7 q 213 72 241 44 q 166 135 185 99 q 137 216 147 171 q 126 313 126 260 l 126 864 q 128 871 126 868 q 135 877 130 875 q 148 880 140 879 q 168 882 156 882 q 187 880 179 882 q 200 877 195 879 q 207 871 205 875 q 209 864 209 868 l 209 322 q 225 210 209 258 q 271 129 241 161 q 344 80 301 96 q 441 63 387 63 q 539 79 496 63 q 612 127 583 95 q 658 209 642 160 q 674 322 674 257 l 674 864 q 676 871 674 868 q 683 877 678 875 q 696 880 688 879 q 717 882 705 882 q 736 880 728 882 q 748 877 744 879 q 755 871 753 875 q 757 864 757 868 l 757 323 z "},"V":{"ha":770,"x_min":27,"x_max":743,"o":"m 437 15 q 431 6 435 9 q 421 0 427 2 q 405 -3 414 -2 q 385 -4 396 -4 q 370 -4 376 -4 q 357 -2 363 -3 q 348 0 352 -1 q 340 3 344 1 q 335 8 337 5 q 332 15 333 11 l 31 850 q 27 866 27 860 q 33 876 28 873 q 47 881 37 880 q 72 882 56 882 q 93 881 85 882 q 105 878 100 880 q 112 872 109 876 q 116 864 114 869 l 389 92 l 389 92 l 654 864 q 657 872 655 869 q 664 878 659 876 q 678 881 669 880 q 701 882 687 882 q 726 880 717 882 q 739 876 735 879 q 742 866 743 872 q 738 850 742 860 l 437 15 z "},"W":{"ha":1223,"x_min":48,"x_max":1175,"o":"m 923 15 q 917 6 921 9 q 905 0 912 2 q 889 -3 898 -2 q 867 -4 880 -4 q 846 -3 855 -4 q 829 0 836 -2 q 818 6 822 2 q 811 15 813 9 l 604 736 l 602 736 l 412 15 q 407 6 411 9 q 397 0 404 2 q 381 -3 391 -2 q 359 -4 372 -4 q 336 -3 346 -4 q 319 0 326 -2 q 307 6 311 2 q 300 15 302 9 l 52 850 q 48 867 48 861 q 53 876 48 873 q 66 881 57 880 q 90 882 75 882 q 114 881 105 882 q 127 878 123 880 q 134 872 132 876 q 137 864 136 869 l 357 94 l 358 94 l 561 864 q 564 872 562 869 q 571 878 566 876 q 586 881 576 880 q 610 882 595 882 q 628 881 621 882 q 640 878 635 880 q 647 872 644 876 q 650 864 649 869 l 871 94 l 873 94 l 1088 864 q 1091 872 1089 869 q 1097 878 1093 876 q 1110 881 1102 880 q 1133 882 1118 882 q 1156 880 1147 882 q 1170 876 1165 879 q 1174 866 1174 872 q 1172 850 1175 860 l 923 15 z "},"Ẁ":{"ha":1223,"x_min":48,"x_max":1175,"o":"m 923 15 q 917 6 921 9 q 905 0 912 2 q 889 -3 898 -2 q 867 -4 880 -4 q 846 -3 855 -4 q 829 0 836 -2 q 818 6 822 2 q 811 15 813 9 l 604 736 l 602 736 l 412 15 q 407 6 411 9 q 397 0 404 2 q 381 -3 391 -2 q 359 -4 372 -4 q 336 -3 346 -4 q 319 0 326 -2 q 307 6 311 2 q 300 15 302 9 l 52 850 q 48 867 48 861 q 53 876 48 873 q 66 881 57 880 q 90 882 75 882 q 114 881 105 882 q 127 878 123 880 q 134 872 132 876 q 137 864 136 869 l 357 94 l 358 94 l 561 864 q 564 872 562 869 q 571 878 566 876 q 586 881 576 880 q 610 882 595 882 q 628 881 621 882 q 640 878 635 880 q 647 872 644 876 q 650 864 649 869 l 871 94 l 873 94 l 1088 864 q 1091 872 1089 869 q 1097 878 1093 876 q 1110 881 1102 880 q 1133 882 1118 882 q 1156 880 1147 882 q 1170 876 1165 879 q 1174 866 1174 872 q 1172 850 1175 860 l 923 15 m 627 975 q 634 964 632 968 q 634 956 636 959 q 625 951 631 953 q 607 949 618 949 q 590 950 597 949 q 577 953 583 951 q 566 959 571 955 q 553 969 560 962 l 399 1118 q 392 1128 393 1123 q 395 1137 391 1133 q 408 1143 399 1141 q 431 1145 416 1145 q 453 1145 444 1145 q 469 1142 462 1144 q 483 1135 477 1139 q 496 1123 490 1131 l 627 975 m 292 878 z "},"Ẃ":{"ha":1223,"x_min":48,"x_max":1175,"o":"m 923 15 q 917 6 921 9 q 905 0 912 2 q 889 -3 898 -2 q 867 -4 880 -4 q 846 -3 855 -4 q 829 0 836 -2 q 818 6 822 2 q 811 15 813 9 l 604 736 l 602 736 l 412 15 q 407 6 411 9 q 397 0 404 2 q 381 -3 391 -2 q 359 -4 372 -4 q 336 -3 346 -4 q 319 0 326 -2 q 307 6 311 2 q 300 15 302 9 l 52 850 q 48 867 48 861 q 53 876 48 873 q 66 881 57 880 q 90 882 75 882 q 114 881 105 882 q 127 878 123 880 q 134 872 132 876 q 137 864 136 869 l 357 94 l 358 94 l 561 864 q 564 872 562 869 q 571 878 566 876 q 586 881 576 880 q 610 882 595 882 q 628 881 621 882 q 640 878 635 880 q 647 872 644 876 q 650 864 649 869 l 871 94 l 873 94 l 1088 864 q 1091 872 1089 869 q 1097 878 1093 876 q 1110 881 1102 880 q 1133 882 1118 882 q 1156 880 1147 882 q 1170 876 1165 879 q 1174 866 1174 872 q 1172 850 1175 860 l 923 15 m 705 1123 q 719 1135 712 1131 q 732 1142 725 1139 q 749 1145 740 1144 q 771 1145 759 1145 q 794 1143 785 1145 q 807 1137 803 1141 q 809 1128 810 1133 q 804 1118 808 1123 l 649 969 q 637 959 642 962 q 625 953 631 955 q 612 950 619 951 q 595 949 605 949 q 577 951 583 949 q 568 956 570 953 q 568 964 566 959 q 574 975 569 968 l 705 1123 m 467 878 z "},"Ŵ":{"ha":1223,"x_min":48,"x_max":1175,"o":"m 923 15 q 917 6 921 9 q 905 0 912 2 q 889 -3 898 -2 q 867 -4 880 -4 q 846 -3 855 -4 q 829 0 836 -2 q 818 6 822 2 q 811 15 813 9 l 604 736 l 602 736 l 412 15 q 407 6 411 9 q 397 0 404 2 q 381 -3 391 -2 q 359 -4 372 -4 q 336 -3 346 -4 q 319 0 326 -2 q 307 6 311 2 q 300 15 302 9 l 52 850 q 48 867 48 861 q 53 876 48 873 q 66 881 57 880 q 90 882 75 882 q 114 881 105 882 q 127 878 123 880 q 134 872 132 876 q 137 864 136 869 l 357 94 l 358 94 l 561 864 q 564 872 562 869 q 571 878 566 876 q 586 881 576 880 q 610 882 595 882 q 628 881 621 882 q 640 878 635 880 q 647 872 644 876 q 650 864 649 869 l 871 94 l 873 94 l 1088 864 q 1091 872 1089 869 q 1097 878 1093 876 q 1110 881 1102 880 q 1133 882 1118 882 q 1156 880 1147 882 q 1170 876 1165 879 q 1174 866 1174 872 q 1172 850 1175 860 l 923 15 m 617 1145 q 634 1145 627 1145 q 646 1142 641 1144 q 655 1137 651 1140 q 663 1131 659 1135 l 814 972 q 820 962 819 966 q 818 955 821 958 q 808 951 814 952 q 791 949 801 949 q 766 950 775 949 q 750 953 756 951 q 741 957 745 954 q 734 962 738 959 l 617 1091 l 496 966 q 485 957 490 960 q 473 952 480 954 q 457 950 466 951 q 434 949 448 949 q 414 951 421 949 q 404 956 407 953 q 403 962 401 958 q 410 972 404 966 l 572 1131 q 581 1137 576 1135 q 590 1142 585 1140 q 601 1145 595 1144 q 617 1145 608 1145 m 302 878 z "},"Ẅ":{"ha":1223,"x_min":48,"x_max":1175,"o":"m 923 15 q 917 6 921 9 q 905 0 912 2 q 889 -3 898 -2 q 867 -4 880 -4 q 846 -3 855 -4 q 829 0 836 -2 q 818 6 822 2 q 811 15 813 9 l 604 736 l 602 736 l 412 15 q 407 6 411 9 q 397 0 404 2 q 381 -3 391 -2 q 359 -4 372 -4 q 336 -3 346 -4 q 319 0 326 -2 q 307 6 311 2 q 300 15 302 9 l 52 850 q 48 867 48 861 q 53 876 48 873 q 66 881 57 880 q 90 882 75 882 q 114 881 105 882 q 127 878 123 880 q 134 872 132 876 q 137 864 136 869 l 357 94 l 358 94 l 561 864 q 564 872 562 869 q 571 878 566 876 q 586 881 576 880 q 610 882 595 882 q 628 881 621 882 q 640 878 635 880 q 647 872 644 876 q 650 864 649 869 l 871 94 l 873 94 l 1088 864 q 1091 872 1089 869 q 1097 878 1093 876 q 1110 881 1102 880 q 1133 882 1118 882 q 1156 880 1147 882 q 1170 876 1165 879 q 1174 866 1174 872 q 1172 850 1175 860 l 923 15 m 528 1035 q 517 991 528 1002 q 475 979 505 979 q 434 990 445 979 q 422 1034 422 1002 q 434 1078 422 1067 q 475 1090 446 1090 q 517 1079 506 1090 q 528 1035 528 1067 m 800 1035 q 789 991 800 1002 q 747 979 777 979 q 706 990 717 979 q 694 1034 694 1002 q 706 1078 694 1067 q 747 1090 718 1090 q 789 1079 778 1090 q 800 1035 800 1067 m 322 878 z "},"X":{"ha":696,"x_min":38,"x_max":659,"o":"m 651 28 q 658 12 657 18 q 654 2 659 6 q 639 -3 649 -1 q 614 -4 629 -4 q 589 -3 598 -4 q 575 0 581 -2 q 567 5 570 2 q 561 14 564 9 l 349 380 l 134 14 q 127 5 130 9 q 118 0 123 2 q 104 -3 113 -2 q 81 -4 95 -4 q 56 -3 65 -4 q 42 2 46 -1 q 39 12 38 6 q 45 28 39 18 l 300 443 l 54 850 q 47 865 48 859 q 50 875 46 871 q 63 880 54 879 q 88 882 73 882 q 112 881 103 882 q 127 878 121 880 q 136 872 133 876 q 142 864 139 869 l 351 515 l 558 864 q 564 872 561 869 q 571 878 566 876 q 584 881 576 880 q 606 882 592 882 q 630 880 621 882 q 645 875 640 879 q 649 865 650 871 q 644 850 649 859 l 397 446 l 651 28 z "},"Y":{"ha":652,"x_min":26,"x_max":626,"o":"m 368 346 l 368 14 q 366 6 368 9 q 359 1 363 3 q 346 -3 354 -1 q 326 -4 338 -4 q 306 -3 314 -4 q 293 1 298 -1 q 286 6 288 3 q 284 14 284 9 l 284 346 l 32 850 q 26 866 27 860 q 30 876 26 872 q 42 880 33 879 q 64 882 51 882 q 89 881 79 882 q 103 878 98 880 q 112 872 109 876 q 117 864 115 869 l 252 591 q 289 511 271 552 q 327 427 308 469 l 328 427 q 364 508 346 467 q 401 589 382 549 l 537 864 q 542 872 539 869 q 549 878 545 876 q 562 881 554 880 q 581 882 570 882 q 608 880 597 882 q 622 875 618 879 q 625 865 626 871 q 620 850 625 859 l 368 346 z "},"Ỳ":{"ha":652,"x_min":26,"x_max":626,"o":"m 368 346 l 368 14 q 366 6 368 9 q 359 1 363 3 q 346 -3 354 -1 q 326 -4 338 -4 q 306 -3 314 -4 q 293 1 298 -1 q 286 6 288 3 q 284 14 284 9 l 284 346 l 32 850 q 26 866 27 860 q 30 876 26 872 q 42 880 33 879 q 64 882 51 882 q 89 881 79 882 q 103 878 98 880 q 112 872 109 876 q 117 864 115 869 l 252 591 q 289 511 271 552 q 327 427 308 469 l 328 427 q 364 508 346 467 q 401 589 382 549 l 537 864 q 542 872 539 869 q 549 878 545 876 q 562 881 554 880 q 581 882 570 882 q 608 880 597 882 q 622 875 618 879 q 625 865 626 871 q 620 850 625 859 l 368 346 m 363 975 q 370 964 368 968 q 370 956 372 959 q 361 951 368 953 q 343 949 355 949 q 326 950 333 949 q 313 953 319 951 q 302 959 307 955 q 290 969 296 962 l 135 1118 q 129 1128 130 1123 q 131 1137 127 1133 q 144 1143 135 1141 q 168 1145 153 1145 q 189 1145 180 1145 q 205 1142 198 1144 q 219 1135 213 1139 q 233 1123 226 1131 l 363 975 m 28 878 z "},"Ý":{"ha":652,"x_min":26,"x_max":626,"o":"m 368 346 l 368 14 q 366 6 368 9 q 359 1 363 3 q 346 -3 354 -1 q 326 -4 338 -4 q 306 -3 314 -4 q 293 1 298 -1 q 286 6 288 3 q 284 14 284 9 l 284 346 l 32 850 q 26 866 27 860 q 30 876 26 872 q 42 880 33 879 q 64 882 51 882 q 89 881 79 882 q 103 878 98 880 q 112 872 109 876 q 117 864 115 869 l 252 591 q 289 511 271 552 q 327 427 308 469 l 328 427 q 364 508 346 467 q 401 589 382 549 l 537 864 q 542 872 539 869 q 549 878 545 876 q 562 881 554 880 q 581 882 570 882 q 608 880 597 882 q 622 875 618 879 q 625 865 626 871 q 620 850 625 859 l 368 346 m 441 1123 q 454 1135 448 1131 q 468 1142 460 1139 q 485 1145 475 1144 q 507 1145 494 1145 q 530 1143 521 1145 q 542 1137 538 1141 q 545 1128 546 1133 q 539 1118 544 1123 l 385 969 q 372 959 378 962 q 361 953 367 955 q 348 950 355 951 q 330 949 340 949 q 312 951 319 949 q 304 956 306 953 q 303 964 302 959 q 310 975 304 968 l 441 1123 m 202 878 z "},"Ŷ":{"ha":652,"x_min":16,"x_max":626,"o":"m 368 346 l 368 14 q 366 6 368 9 q 359 1 363 3 q 346 -3 354 -1 q 326 -4 338 -4 q 306 -3 314 -4 q 293 1 298 -1 q 286 6 288 3 q 284 14 284 9 l 284 346 l 32 850 q 26 866 27 860 q 30 876 26 872 q 42 880 33 879 q 64 882 51 882 q 89 881 79 882 q 103 878 98 880 q 112 872 109 876 q 117 864 115 869 l 252 591 q 289 511 271 552 q 327 427 308 469 l 328 427 q 364 508 346 467 q 401 589 382 549 l 537 864 q 542 872 539 869 q 549 878 545 876 q 562 881 554 880 q 581 882 570 882 q 608 880 597 882 q 622 875 618 879 q 625 865 626 871 q 620 850 625 859 l 368 346 m 331 1145 q 348 1145 341 1145 q 360 1142 355 1144 q 369 1137 365 1140 q 376 1131 372 1135 l 528 972 q 534 962 533 966 q 531 955 534 958 q 522 951 528 952 q 505 949 515 949 q 479 950 489 949 q 464 953 470 951 q 455 957 458 954 q 448 962 452 959 l 331 1091 l 210 966 q 199 957 204 960 q 187 952 194 954 q 171 950 180 951 q 148 949 161 949 q 128 951 135 949 q 118 956 121 953 q 117 962 115 958 q 123 972 118 966 l 286 1131 q 294 1137 290 1135 q 303 1142 298 1140 q 315 1145 309 1144 q 331 1145 321 1145 m 16 878 z "},"Ÿ":{"ha":652,"x_min":26,"x_max":626,"o":"m 368 346 l 368 14 q 366 6 368 9 q 359 1 363 3 q 346 -3 354 -1 q 326 -4 338 -4 q 306 -3 314 -4 q 293 1 298 -1 q 286 6 288 3 q 284 14 284 9 l 284 346 l 32 850 q 26 866 27 860 q 30 876 26 872 q 42 880 33 879 q 64 882 51 882 q 89 881 79 882 q 103 878 98 880 q 112 872 109 876 q 117 864 115 869 l 252 591 q 289 511 271 552 q 327 427 308 469 l 328 427 q 364 508 346 467 q 401 589 382 549 l 537 864 q 542 872 539 869 q 549 878 545 876 q 562 881 554 880 q 581 882 570 882 q 608 880 597 882 q 622 875 618 879 q 625 865 626 871 q 620 850 625 859 l 368 346 m 243 1035 q 231 991 243 1002 q 189 979 220 979 q 148 990 159 979 q 137 1034 137 1002 q 149 1078 137 1067 q 190 1090 160 1090 q 232 1079 220 1090 q 243 1035 243 1067 m 515 1035 q 503 991 515 1002 q 461 979 492 979 q 420 990 431 979 q 409 1034 409 1002 q 420 1078 409 1067 q 462 1090 432 1090 q 504 1079 492 1090 q 515 1035 515 1067 m 37 878 z "},"Z":{"ha":644,"x_min":43,"x_max":614,"o":"m 614 37 q 612 21 614 28 q 608 9 611 14 q 602 2 606 5 q 592 0 597 0 l 73 0 q 52 8 60 0 q 43 37 43 17 l 43 59 q 44 71 43 65 q 47 83 45 77 q 55 99 50 90 q 68 119 60 108 l 508 804 l 73 804 q 64 806 68 804 q 57 813 60 808 q 53 824 54 817 q 52 840 52 831 q 53 856 52 849 q 57 868 54 863 q 64 875 60 873 q 73 878 68 878 l 564 878 q 586 869 577 878 q 595 841 595 861 l 595 819 q 594 806 595 812 q 590 793 593 800 q 582 778 587 786 q 570 758 577 769 l 130 74 l 592 74 q 608 65 603 74 q 614 37 614 56 z "},"Ź":{"ha":644,"x_min":43,"x_max":614,"o":"m 614 37 q 612 21 614 28 q 608 9 611 14 q 602 2 606 5 q 592 0 597 0 l 73 0 q 52 8 60 0 q 43 37 43 17 l 43 59 q 44 71 43 65 q 47 83 45 77 q 55 99 50 90 q 68 119 60 108 l 508 804 l 73 804 q 64 806 68 804 q 57 813 60 808 q 53 824 54 817 q 52 840 52 831 q 53 856 52 849 q 57 868 54 863 q 64 875 60 873 q 73 878 68 878 l 564 878 q 586 869 577 878 q 595 841 595 861 l 595 819 q 594 806 595 812 q 590 793 593 800 q 582 778 587 786 q 570 758 577 769 l 130 74 l 592 74 q 608 65 603 74 q 614 37 614 56 m 401 1123 q 414 1135 408 1131 q 428 1142 420 1139 q 445 1145 435 1144 q 467 1145 454 1145 q 490 1143 481 1145 q 502 1137 498 1141 q 505 1128 506 1133 q 499 1118 504 1123 l 345 969 q 332 959 338 962 q 321 953 327 955 q 308 950 315 951 q 290 949 300 949 q 272 951 279 949 q 264 956 266 953 q 263 964 262 959 q 270 975 264 968 l 401 1123 m 162 878 z "},"Ž":{"ha":644,"x_min":16,"x_max":614,"o":"m 614 37 q 612 21 614 28 q 608 9 611 14 q 602 2 606 5 q 592 0 597 0 l 73 0 q 52 8 60 0 q 43 37 43 17 l 43 59 q 44 71 43 65 q 47 83 45 77 q 55 99 50 90 q 68 119 60 108 l 508 804 l 73 804 q 64 806 68 804 q 57 813 60 808 q 53 824 54 817 q 52 840 52 831 q 53 856 52 849 q 57 868 54 863 q 64 875 60 873 q 73 878 68 878 l 564 878 q 586 869 577 878 q 595 841 595 861 l 595 819 q 594 806 595 812 q 590 793 593 800 q 582 778 587 786 q 570 758 577 769 l 130 74 l 592 74 q 608 65 603 74 q 614 37 614 56 m 319 949 q 302 950 309 949 q 291 952 296 951 q 282 957 286 954 q 274 964 278 960 l 122 1123 q 117 1133 117 1128 q 119 1140 116 1137 q 129 1144 122 1143 q 146 1145 136 1145 q 171 1144 161 1145 q 186 1142 180 1143 q 195 1138 192 1141 q 202 1133 199 1135 l 319 1003 l 441 1129 q 452 1137 446 1134 q 464 1142 457 1141 q 480 1145 471 1144 q 503 1145 489 1145 q 523 1144 515 1145 q 533 1139 530 1142 q 533 1132 535 1137 q 527 1123 532 1128 l 365 964 q 356 957 361 960 q 347 952 352 954 q 335 950 342 951 q 319 949 329 949 m 16 878 z "},"Ż":{"ha":644,"x_min":43,"x_max":614,"o":"m 614 37 q 612 21 614 28 q 608 9 611 14 q 602 2 606 5 q 592 0 597 0 l 73 0 q 52 8 60 0 q 43 37 43 17 l 43 59 q 44 71 43 65 q 47 83 45 77 q 55 99 50 90 q 68 119 60 108 l 508 804 l 73 804 q 64 806 68 804 q 57 813 60 808 q 53 824 54 817 q 52 840 52 831 q 53 856 52 849 q 57 868 54 863 q 64 875 60 873 q 73 878 68 878 l 564 878 q 586 869 577 878 q 595 841 595 861 l 595 819 q 594 806 595 812 q 590 793 593 800 q 582 778 587 786 q 570 758 577 769 l 130 74 l 592 74 q 608 65 603 74 q 614 37 614 56 m 377 1035 q 365 991 377 1003 q 323 979 353 979 q 283 991 294 979 q 271 1034 271 1002 q 283 1078 271 1066 q 325 1090 295 1090 q 366 1078 354 1090 q 377 1035 377 1067 m 171 878 z "},"a":{"ha":654,"x_min":71,"x_max":543,"o":"m 543 14 q 539 3 543 7 q 527 -2 534 -1 q 508 -4 520 -4 q 488 -2 496 -4 q 476 3 480 -1 q 471 14 471 7 l 471 82 q 380 13 430 37 q 277 -12 330 -12 q 190 1 229 -12 q 125 37 152 14 q 85 94 99 60 q 71 168 71 127 q 92 257 71 219 q 151 319 113 294 q 244 357 190 345 q 365 370 298 370 l 463 370 l 463 422 q 454 492 463 462 q 428 543 446 522 q 380 573 410 563 q 309 583 351 583 q 236 573 269 583 q 179 551 203 564 q 139 529 155 539 q 116 519 123 519 q 109 521 112 519 q 103 526 105 522 q 99 535 100 530 q 98 549 98 541 q 100 572 98 564 q 111 589 102 581 q 141 609 119 597 q 191 630 163 621 q 252 646 219 640 q 317 652 284 652 q 423 637 380 652 q 493 593 467 622 q 532 523 520 565 q 543 429 543 481 l 543 14 m 463 303 l 351 303 q 265 294 302 303 q 204 269 229 286 q 168 228 180 252 q 156 174 156 204 q 190 89 156 121 q 284 58 223 58 q 374 82 332 58 q 463 159 416 107 l 463 303 z "},"à":{"ha":654,"x_min":71,"x_max":543,"o":"m 543 14 q 539 3 543 7 q 527 -2 534 -1 q 508 -4 520 -4 q 488 -2 496 -4 q 476 3 480 -1 q 471 14 471 7 l 471 82 q 380 13 430 37 q 277 -12 330 -12 q 190 1 229 -12 q 125 37 152 14 q 85 94 99 60 q 71 168 71 127 q 92 257 71 219 q 151 319 113 294 q 244 357 190 345 q 365 370 298 370 l 463 370 l 463 422 q 454 492 463 462 q 428 543 446 522 q 380 573 410 563 q 309 583 351 583 q 236 573 269 583 q 179 551 203 564 q 139 529 155 539 q 116 519 123 519 q 109 521 112 519 q 103 526 105 522 q 99 535 100 530 q 98 549 98 541 q 100 572 98 564 q 111 589 102 581 q 141 609 119 597 q 191 630 163 621 q 252 646 219 640 q 317 652 284 652 q 423 637 380 652 q 493 593 467 622 q 532 523 520 565 q 543 429 543 481 l 543 14 m 463 303 l 351 303 q 265 294 302 303 q 204 269 229 286 q 168 228 180 252 q 156 174 156 204 q 190 89 156 121 q 284 58 223 58 q 374 82 332 58 q 463 159 416 107 l 463 303 m 365 768 q 370 758 369 762 q 369 750 371 753 q 360 745 366 747 q 344 743 354 743 q 327 744 334 743 q 315 747 320 745 q 306 752 310 749 q 297 763 302 756 l 179 922 q 174 933 174 928 q 176 942 173 938 q 188 947 180 945 q 209 949 196 949 q 231 948 222 949 q 245 945 239 947 q 256 938 252 943 q 266 926 261 933 l 365 768 z "},"á":{"ha":654,"x_min":71,"x_max":543,"o":"m 543 14 q 539 3 543 7 q 527 -2 534 -1 q 508 -4 520 -4 q 488 -2 496 -4 q 476 3 480 -1 q 471 14 471 7 l 471 82 q 380 13 430 37 q 277 -12 330 -12 q 190 1 229 -12 q 125 37 152 14 q 85 94 99 60 q 71 168 71 127 q 92 257 71 219 q 151 319 113 294 q 244 357 190 345 q 365 370 298 370 l 463 370 l 463 422 q 454 492 463 462 q 428 543 446 522 q 380 573 410 563 q 309 583 351 583 q 236 573 269 583 q 179 551 203 564 q 139 529 155 539 q 116 519 123 519 q 109 521 112 519 q 103 526 105 522 q 99 535 100 530 q 98 549 98 541 q 100 572 98 564 q 111 589 102 581 q 141 609 119 597 q 191 630 163 621 q 252 646 219 640 q 317 652 284 652 q 423 637 380 652 q 493 593 467 622 q 532 523 520 565 q 543 429 543 481 l 543 14 m 463 303 l 351 303 q 265 294 302 303 q 204 269 229 286 q 168 228 180 252 q 156 174 156 204 q 190 89 156 121 q 284 58 223 58 q 374 82 332 58 q 463 159 416 107 l 463 303 m 391 926 q 399 938 395 933 q 411 945 404 943 q 426 948 417 947 q 448 949 435 949 q 469 947 461 949 q 481 942 477 945 q 483 933 484 938 q 477 922 482 928 l 359 763 q 351 752 355 756 q 342 747 347 749 q 331 744 338 745 q 314 743 324 743 q 297 745 304 743 q 289 750 291 747 q 287 758 286 753 q 292 768 288 762 l 391 926 z "},"â":{"ha":654,"x_min":59,"x_max":543,"o":"m 543 14 q 539 3 543 7 q 527 -2 534 -1 q 508 -4 520 -4 q 488 -2 496 -4 q 476 3 480 -1 q 471 14 471 7 l 471 82 q 380 13 430 37 q 277 -12 330 -12 q 190 1 229 -12 q 125 37 152 14 q 85 94 99 60 q 71 168 71 127 q 92 257 71 219 q 151 319 113 294 q 244 357 190 345 q 365 370 298 370 l 463 370 l 463 422 q 454 492 463 462 q 428 543 446 522 q 380 573 410 563 q 309 583 351 583 q 236 573 269 583 q 179 551 203 564 q 139 529 155 539 q 116 519 123 519 q 109 521 112 519 q 103 526 105 522 q 99 535 100 530 q 98 549 98 541 q 100 572 98 564 q 111 589 102 581 q 141 609 119 597 q 191 630 163 621 q 252 646 219 640 q 317 652 284 652 q 423 637 380 652 q 493 593 467 622 q 532 523 520 565 q 543 429 543 481 l 543 14 m 463 303 l 351 303 q 265 294 302 303 q 204 269 229 286 q 168 228 180 252 q 156 174 156 204 q 190 89 156 121 q 284 58 223 58 q 374 82 332 58 q 463 159 416 107 l 463 303 m 233 761 q 225 752 229 755 q 217 747 222 749 q 206 744 212 745 q 191 743 200 743 q 170 745 178 743 q 160 751 163 747 q 160 762 158 755 q 170 777 163 768 l 284 935 q 291 942 288 939 q 300 946 295 945 q 314 949 306 948 q 333 949 321 949 q 350 949 343 949 q 362 946 357 948 q 370 941 367 944 q 377 935 374 939 l 492 777 q 500 762 498 768 q 500 751 503 755 q 490 745 498 747 q 470 743 483 743 q 454 744 460 743 q 443 747 448 745 q 436 752 439 749 q 429 761 433 755 l 330 895 l 233 761 m 59 642 z "},"ã":{"ha":654,"x_min":71,"x_max":545,"o":"m 543 14 q 539 3 543 7 q 527 -2 534 -1 q 508 -4 520 -4 q 488 -2 496 -4 q 476 3 480 -1 q 471 14 471 7 l 471 82 q 380 13 430 37 q 277 -12 330 -12 q 190 1 229 -12 q 125 37 152 14 q 85 94 99 60 q 71 168 71 127 q 92 257 71 219 q 151 319 113 294 q 244 357 190 345 q 365 370 298 370 l 463 370 l 463 422 q 454 492 463 462 q 428 543 446 522 q 380 573 410 563 q 309 583 351 583 q 236 573 269 583 q 179 551 203 564 q 139 529 155 539 q 116 519 123 519 q 109 521 112 519 q 103 526 105 522 q 99 535 100 530 q 98 549 98 541 q 100 572 98 564 q 111 589 102 581 q 141 609 119 597 q 191 630 163 621 q 252 646 219 640 q 317 652 284 652 q 423 637 380 652 q 493 593 467 622 q 532 523 520 565 q 543 429 543 481 l 543 14 m 463 303 l 351 303 q 265 294 302 303 q 204 269 229 286 q 168 228 180 252 q 156 174 156 204 q 190 89 156 121 q 284 58 223 58 q 374 82 332 58 q 463 159 416 107 l 463 303 m 545 883 q 511 782 545 817 q 422 747 477 747 q 379 754 398 747 q 343 772 359 761 q 313 795 327 783 q 286 819 299 808 q 258 837 272 829 q 229 844 245 844 q 188 822 199 844 q 176 764 176 800 q 175 756 176 760 q 171 751 174 753 q 160 748 167 749 q 141 747 153 747 q 126 748 132 747 q 117 752 120 749 q 112 761 113 755 q 110 776 110 767 q 141 874 110 837 q 231 911 173 911 q 294 896 268 911 q 341 863 320 881 q 382 830 363 845 q 425 814 402 814 q 465 834 452 814 q 478 894 478 854 q 484 907 478 903 q 509 911 490 911 q 538 906 531 911 q 545 883 545 901 z "},"ä":{"ha":654,"x_min":65,"x_max":543,"o":"m 543 14 q 539 3 543 7 q 527 -2 534 -1 q 508 -4 520 -4 q 488 -2 496 -4 q 476 3 480 -1 q 471 14 471 7 l 471 82 q 380 13 430 37 q 277 -12 330 -12 q 190 1 229 -12 q 125 37 152 14 q 85 94 99 60 q 71 168 71 127 q 92 257 71 219 q 151 319 113 294 q 244 357 190 345 q 365 370 298 370 l 463 370 l 463 422 q 454 492 463 462 q 428 543 446 522 q 380 573 410 563 q 309 583 351 583 q 236 573 269 583 q 179 551 203 564 q 139 529 155 539 q 116 519 123 519 q 109 521 112 519 q 103 526 105 522 q 99 535 100 530 q 98 549 98 541 q 100 572 98 564 q 111 589 102 581 q 141 609 119 597 q 191 630 163 621 q 252 646 219 640 q 317 652 284 652 q 423 637 380 652 q 493 593 467 622 q 532 523 520 565 q 543 429 543 481 l 543 14 m 463 303 l 351 303 q 265 294 302 303 q 204 269 229 286 q 168 228 180 252 q 156 174 156 204 q 190 89 156 121 q 284 58 223 58 q 374 82 332 58 q 463 159 416 107 l 463 303 m 267 821 q 256 779 267 790 q 216 768 245 768 q 176 779 186 768 q 165 821 165 789 q 176 863 165 852 q 216 874 187 874 q 256 863 245 874 q 267 821 267 852 m 493 821 q 482 779 493 790 q 442 768 471 768 q 402 779 413 768 q 392 821 392 789 q 403 863 392 852 q 442 874 414 874 q 483 863 472 874 q 493 821 493 852 m 65 642 z "},"ā":{"ha":654,"x_min":56,"x_max":543,"o":"m 543 14 q 539 3 543 7 q 527 -2 534 -1 q 508 -4 520 -4 q 488 -2 496 -4 q 476 3 480 -1 q 471 14 471 7 l 471 82 q 380 13 430 37 q 277 -12 330 -12 q 190 1 229 -12 q 125 37 152 14 q 85 94 99 60 q 71 168 71 127 q 92 257 71 219 q 151 319 113 294 q 244 357 190 345 q 365 370 298 370 l 463 370 l 463 422 q 454 492 463 462 q 428 543 446 522 q 380 573 410 563 q 309 583 351 583 q 236 573 269 583 q 179 551 203 564 q 139 529 155 539 q 116 519 123 519 q 109 521 112 519 q 103 526 105 522 q 99 535 100 530 q 98 549 98 541 q 100 572 98 564 q 111 589 102 581 q 141 609 119 597 q 191 630 163 621 q 252 646 219 640 q 317 652 284 652 q 423 637 380 652 q 493 593 467 622 q 532 523 520 565 q 543 429 543 481 l 543 14 m 463 303 l 351 303 q 265 294 302 303 q 204 269 229 286 q 168 228 180 252 q 156 174 156 204 q 190 89 156 121 q 284 58 223 58 q 374 82 332 58 q 463 159 416 107 l 463 303 m 488 866 q 496 864 492 866 q 501 858 499 862 q 505 847 503 854 q 506 832 506 841 q 505 818 506 824 q 501 807 503 812 q 496 801 499 803 q 488 798 492 798 l 175 798 q 167 801 170 798 q 161 807 163 803 q 157 818 159 812 q 156 832 156 824 q 157 847 156 841 q 161 858 159 854 q 167 864 163 862 q 175 866 170 866 l 488 866 m 56 642 z "},"ă":{"ha":654,"x_min":66,"x_max":543,"o":"m 543 14 q 539 3 543 7 q 527 -2 534 -1 q 508 -4 520 -4 q 488 -2 496 -4 q 476 3 480 -1 q 471 14 471 7 l 471 82 q 380 13 430 37 q 277 -12 330 -12 q 190 1 229 -12 q 125 37 152 14 q 85 94 99 60 q 71 168 71 127 q 92 257 71 219 q 151 319 113 294 q 244 357 190 345 q 365 370 298 370 l 463 370 l 463 422 q 454 492 463 462 q 428 543 446 522 q 380 573 410 563 q 309 583 351 583 q 236 573 269 583 q 179 551 203 564 q 139 529 155 539 q 116 519 123 519 q 109 521 112 519 q 103 526 105 522 q 99 535 100 530 q 98 549 98 541 q 100 572 98 564 q 111 589 102 581 q 141 609 119 597 q 191 630 163 621 q 252 646 219 640 q 317 652 284 652 q 423 637 380 652 q 493 593 467 622 q 532 523 520 565 q 543 429 543 481 l 543 14 m 463 303 l 351 303 q 265 294 302 303 q 204 269 229 286 q 168 228 180 252 q 156 174 156 204 q 190 89 156 121 q 284 58 223 58 q 374 82 332 58 q 463 159 416 107 l 463 303 m 430 928 q 436 940 430 935 q 461 944 442 944 q 477 943 471 944 q 486 940 483 942 q 491 935 490 938 q 492 928 492 932 q 481 848 492 882 q 449 791 470 814 q 398 758 429 769 q 329 747 368 747 q 256 759 287 747 q 206 794 226 771 q 176 850 186 817 q 167 926 167 883 q 173 940 167 935 q 197 944 180 944 q 213 943 207 944 q 222 940 219 942 q 227 935 226 938 q 229 928 229 932 q 236 880 230 901 q 255 843 243 858 q 286 819 267 827 q 329 811 304 811 q 368 818 350 811 q 399 838 385 824 q 420 874 412 852 q 430 928 429 896 m 66 642 z "},"å":{"ha":654,"x_min":71,"x_max":543,"o":"m 543 14 q 539 3 543 7 q 527 -2 534 -1 q 508 -4 520 -4 q 488 -2 496 -4 q 476 3 480 -1 q 471 14 471 7 l 471 82 q 380 13 430 37 q 277 -12 330 -12 q 190 1 229 -12 q 125 37 152 14 q 85 94 99 60 q 71 168 71 127 q 92 257 71 219 q 151 319 113 294 q 244 357 190 345 q 365 370 298 370 l 463 370 l 463 422 q 454 492 463 462 q 428 543 446 522 q 380 573 410 563 q 309 583 351 583 q 236 573 269 583 q 179 551 203 564 q 139 529 155 539 q 116 519 123 519 q 109 521 112 519 q 103 526 105 522 q 99 535 100 530 q 98 549 98 541 q 100 572 98 564 q 111 589 102 581 q 141 609 119 597 q 191 630 163 621 q 252 646 219 640 q 317 652 284 652 q 423 637 380 652 q 493 593 467 622 q 532 523 520 565 q 543 429 543 481 l 543 14 m 463 303 l 351 303 q 265 294 302 303 q 204 269 229 286 q 168 228 180 252 q 156 174 156 204 q 190 89 156 121 q 284 58 223 58 q 374 82 332 58 q 463 159 416 107 l 463 303 m 449 850 q 440 803 449 825 q 415 765 431 781 q 377 740 399 749 q 327 730 355 730 q 274 739 296 730 q 238 764 252 748 q 217 800 224 779 q 210 845 210 821 q 218 892 210 870 q 241 930 226 913 q 280 955 257 946 q 332 964 302 964 q 418 932 387 964 q 449 850 449 901 m 393 845 q 377 896 393 876 q 329 916 361 916 q 282 897 299 916 q 265 850 265 879 q 281 798 265 817 q 330 779 296 779 q 377 797 360 779 q 393 845 393 816 z "},"ǻ":{"ha":654,"x_min":71,"x_max":543,"o":"m 543 14 q 539 3 543 7 q 527 -2 534 -1 q 508 -4 520 -4 q 488 -2 496 -4 q 476 3 480 -1 q 471 14 471 7 l 471 82 q 380 13 430 37 q 277 -12 330 -12 q 190 1 229 -12 q 125 37 152 14 q 85 94 99 60 q 71 168 71 127 q 92 257 71 219 q 151 319 113 294 q 244 357 190 345 q 365 370 298 370 l 463 370 l 463 422 q 454 492 463 462 q 428 543 446 522 q 380 573 410 563 q 309 583 351 583 q 236 573 269 583 q 179 551 203 564 q 139 529 155 539 q 116 519 123 519 q 109 521 112 519 q 103 526 105 522 q 99 535 100 530 q 98 549 98 541 q 100 572 98 564 q 111 589 102 581 q 141 609 119 597 q 191 630 163 621 q 252 646 219 640 q 317 652 284 652 q 423 637 380 652 q 493 593 467 622 q 532 523 520 565 q 543 429 543 481 l 543 14 m 463 303 l 351 303 q 265 294 302 303 q 204 269 229 286 q 168 228 180 252 q 156 174 156 204 q 190 89 156 121 q 284 58 223 58 q 374 82 332 58 q 463 159 416 107 l 463 303 m 434 812 q 426 771 434 791 q 404 737 418 751 q 369 714 389 722 q 324 705 349 705 q 275 713 296 705 q 240 735 254 722 q 219 767 227 749 q 212 807 212 786 q 220 849 212 829 q 242 882 227 868 q 277 905 256 897 q 326 913 298 913 q 371 905 351 913 q 405 884 391 898 q 427 852 419 871 q 434 812 434 834 m 383 807 q 380 830 383 819 q 369 850 376 842 q 351 865 362 859 q 323 870 339 870 q 278 853 294 870 q 263 812 263 836 q 277 768 263 786 q 324 749 290 749 q 369 767 354 749 q 383 807 383 785 m 387 1076 q 400 1087 394 1083 q 413 1095 406 1092 q 428 1098 420 1097 q 449 1099 437 1099 q 472 1097 463 1099 q 484 1091 481 1095 q 485 1082 487 1087 q 477 1072 484 1077 l 361 975 q 348 965 353 969 q 337 959 342 961 q 325 955 332 956 q 308 954 318 954 q 290 956 296 954 q 282 961 284 958 q 282 969 280 964 q 290 979 285 974 l 387 1076 m 121 642 z "},"ą":{"ha":654,"x_min":71,"x_max":592,"o":"m 592 -209 q 591 -221 592 -216 q 588 -229 591 -226 q 582 -235 586 -233 q 572 -239 578 -237 q 537 -246 556 -244 q 495 -248 519 -248 q 405 -223 437 -248 q 372 -151 372 -198 q 374 -127 372 -139 q 382 -103 376 -116 q 399 -76 389 -90 q 427 -44 410 -62 l 471 0 l 471 82 l 470 82 q 380 13 430 37 q 277 -12 330 -12 q 190 1 229 -12 q 125 37 152 14 q 85 94 99 60 q 71 168 71 127 q 92 257 71 219 q 151 319 113 294 q 244 357 190 345 q 365 370 298 370 l 463 370 l 463 422 q 454 492 463 462 q 428 543 446 522 q 380 573 410 563 q 309 583 351 583 q 236 573 269 583 q 179 551 203 564 q 139 529 155 539 q 116 519 123 519 q 109 521 112 519 q 103 526 105 522 q 99 535 100 530 q 98 549 98 541 q 100 572 98 564 q 111 589 102 581 q 141 609 119 597 q 191 630 163 621 q 252 646 219 640 q 317 652 284 652 q 423 637 380 652 q 493 593 467 622 q 532 523 520 565 q 543 429 543 481 l 543 20 q 539 -14 543 1 q 524 -40 536 -28 l 480 -84 q 457 -116 463 -102 q 452 -141 452 -130 q 504 -181 452 -181 l 576 -181 q 588 -186 585 -181 q 592 -209 592 -191 m 463 303 l 351 303 q 265 294 302 303 q 204 269 229 286 q 168 228 180 252 q 156 174 156 204 q 190 89 156 121 q 284 58 223 58 q 374 82 332 58 q 463 159 416 107 l 463 303 z "},"æ":{"ha":1072,"x_min":71,"x_max":1000,"o":"m 1000 352 q 987 318 1000 328 q 962 309 974 309 l 543 309 q 554 206 543 252 q 591 127 566 160 q 659 77 617 94 q 761 59 701 59 q 838 66 804 59 q 896 83 871 74 q 937 100 921 92 q 960 107 953 107 q 967 105 964 107 q 972 99 970 103 q 975 87 974 94 q 976 71 976 81 q 975 61 976 66 q 974 53 975 57 q 970 46 972 50 q 965 39 968 43 q 944 27 962 36 q 898 11 926 19 q 832 -5 869 2 q 751 -12 794 -12 q 670 -4 707 -12 q 603 19 633 4 q 550 57 573 35 q 509 107 526 79 q 461 59 487 81 q 407 21 435 37 q 346 -3 378 5 q 277 -12 313 -12 q 190 1 229 -12 q 125 37 152 14 q 85 94 99 60 q 71 168 71 127 q 92 257 71 219 q 151 319 113 294 q 244 357 190 345 q 365 370 298 370 l 463 370 l 463 422 q 454 492 463 462 q 428 543 446 522 q 380 573 410 563 q 309 583 351 583 q 236 573 269 583 q 179 551 203 564 q 138 529 154 539 q 115 519 121 519 q 107 521 111 519 q 102 526 104 522 q 99 535 100 530 q 98 549 98 541 q 100 572 98 564 q 111 589 102 581 q 141 609 119 597 q 191 630 163 621 q 252 646 219 640 q 317 652 284 652 q 396 644 362 652 q 454 621 430 636 q 495 585 479 606 q 521 538 511 564 q 611 623 553 593 q 741 652 669 652 q 859 629 810 652 q 939 567 907 606 q 985 477 970 528 q 1000 368 1000 425 l 1000 352 m 917 376 q 906 463 918 425 q 871 528 895 501 q 814 569 848 555 q 736 583 780 583 q 654 566 690 583 q 595 520 619 549 q 558 454 571 492 q 543 376 545 416 l 917 376 m 478 177 q 465 237 469 202 q 461 303 461 272 l 351 303 q 265 294 302 303 q 204 269 229 286 q 168 228 180 252 q 156 174 156 204 q 190 89 156 121 q 284 58 223 58 q 379 86 332 58 q 478 177 427 114 z "},"ǽ":{"ha":1072,"x_min":71,"x_max":1000,"o":"m 1000 352 q 987 318 1000 328 q 962 309 974 309 l 543 309 q 554 206 543 252 q 591 127 566 160 q 659 77 617 94 q 761 59 701 59 q 838 66 804 59 q 896 83 871 74 q 937 100 921 92 q 960 107 953 107 q 967 105 964 107 q 972 99 970 103 q 975 87 974 94 q 976 71 976 81 q 975 61 976 66 q 974 53 975 57 q 970 46 972 50 q 965 39 968 43 q 944 27 962 36 q 898 11 926 19 q 832 -5 869 2 q 751 -12 794 -12 q 670 -4 707 -12 q 603 19 633 4 q 550 57 573 35 q 509 107 526 79 q 461 59 487 81 q 407 21 435 37 q 346 -3 378 5 q 277 -12 313 -12 q 190 1 229 -12 q 125 37 152 14 q 85 94 99 60 q 71 168 71 127 q 92 257 71 219 q 151 319 113 294 q 244 357 190 345 q 365 370 298 370 l 463 370 l 463 422 q 454 492 463 462 q 428 543 446 522 q 380 573 410 563 q 309 583 351 583 q 236 573 269 583 q 179 551 203 564 q 138 529 154 539 q 115 519 121 519 q 107 521 111 519 q 102 526 104 522 q 99 535 100 530 q 98 549 98 541 q 100 572 98 564 q 111 589 102 581 q 141 609 119 597 q 191 630 163 621 q 252 646 219 640 q 317 652 284 652 q 396 644 362 652 q 454 621 430 636 q 495 585 479 606 q 521 538 511 564 q 611 623 553 593 q 741 652 669 652 q 859 629 810 652 q 939 567 907 606 q 985 477 970 528 q 1000 368 1000 425 l 1000 352 m 917 376 q 906 463 918 425 q 871 528 895 501 q 814 569 848 555 q 736 583 780 583 q 654 566 690 583 q 595 520 619 549 q 558 454 571 492 q 543 376 545 416 l 917 376 m 478 177 q 465 237 469 202 q 461 303 461 272 l 351 303 q 265 294 302 303 q 204 269 229 286 q 168 228 180 252 q 156 174 156 204 q 190 89 156 121 q 284 58 223 58 q 379 86 332 58 q 478 177 427 114 m 604 926 q 612 938 608 933 q 624 945 617 943 q 639 948 630 947 q 661 949 648 949 q 682 947 674 949 q 694 942 690 945 q 696 933 697 938 q 690 922 695 928 l 572 763 q 564 752 568 756 q 555 747 560 749 q 544 744 551 745 q 527 743 537 743 q 510 745 517 743 q 502 750 504 747 q 500 758 499 753 q 505 768 500 762 l 604 926 z "},"b":{"ha":722,"x_min":113,"x_max":649,"o":"m 649 328 q 632 187 649 250 q 582 80 615 124 q 499 12 548 36 q 386 -12 450 -12 q 333 -6 357 -12 q 286 13 309 0 q 239 45 263 26 q 187 93 215 65 l 187 14 q 185 5 187 9 q 178 0 183 2 q 167 -3 174 -2 q 150 -4 160 -4 q 133 -3 140 -4 q 121 0 125 -2 q 115 5 117 2 q 113 14 113 9 l 113 928 q 115 935 113 932 q 121 941 117 939 q 134 944 126 943 q 153 945 142 945 q 173 944 165 945 q 185 941 181 943 q 192 935 190 939 q 194 928 194 932 l 194 545 q 250 596 223 575 q 301 629 276 616 q 351 647 326 642 q 402 652 376 652 q 516 627 469 652 q 592 557 563 601 q 635 454 622 513 q 649 328 649 395 m 564 315 q 556 415 564 367 q 528 500 548 463 q 476 561 509 538 q 395 583 444 583 q 348 576 371 583 q 300 554 324 570 q 249 514 275 538 q 194 452 223 489 l 194 185 q 292 91 245 123 q 390 58 339 58 q 470 80 437 58 q 524 140 503 103 q 555 222 545 176 q 564 315 564 269 z "},"c":{"ha":591,"x_min":68,"x_max":542,"o":"m 542 104 q 541 90 542 96 q 539 79 541 83 q 535 70 538 74 q 524 58 533 66 q 495 35 515 49 q 448 12 474 22 q 393 -5 422 1 q 331 -12 363 -12 q 218 10 267 -12 q 136 73 169 31 q 85 175 102 115 q 68 315 68 236 q 89 469 68 405 q 148 573 111 532 q 235 633 185 614 q 342 652 285 652 q 400 647 372 652 q 451 631 428 641 q 493 610 475 622 q 520 589 511 597 q 531 576 528 581 q 536 566 534 572 q 538 554 538 561 q 539 539 539 548 q 533 512 539 519 q 521 504 528 504 q 497 516 511 504 q 462 543 484 528 q 409 570 440 557 q 336 582 378 582 q 200 514 248 582 q 152 318 152 446 q 165 205 152 254 q 202 124 178 157 q 260 76 226 92 q 338 60 295 60 q 410 73 379 60 q 465 102 441 86 q 503 130 488 117 q 526 143 518 143 q 533 141 530 143 q 538 133 536 138 q 541 121 540 128 q 542 104 542 114 z "},"ć":{"ha":591,"x_min":68,"x_max":542,"o":"m 542 104 q 541 90 542 96 q 539 79 541 83 q 535 70 538 74 q 524 58 533 66 q 495 35 515 49 q 448 12 474 22 q 393 -5 422 1 q 331 -12 363 -12 q 218 10 267 -12 q 136 73 169 31 q 85 175 102 115 q 68 315 68 236 q 89 469 68 405 q 148 573 111 532 q 235 633 185 614 q 342 652 285 652 q 400 647 372 652 q 451 631 428 641 q 493 610 475 622 q 520 589 511 597 q 531 576 528 581 q 536 566 534 572 q 538 554 538 561 q 539 539 539 548 q 533 512 539 519 q 521 504 528 504 q 497 516 511 504 q 462 543 484 528 q 409 570 440 557 q 336 582 378 582 q 200 514 248 582 q 152 318 152 446 q 165 205 152 254 q 202 124 178 157 q 260 76 226 92 q 338 60 295 60 q 410 73 379 60 q 465 102 441 86 q 503 130 488 117 q 526 143 518 143 q 533 141 530 143 q 538 133 536 138 q 541 121 540 128 q 542 104 542 114 m 389 926 q 397 938 393 933 q 409 945 402 943 q 424 948 415 947 q 446 949 433 949 q 467 947 459 949 q 479 942 475 945 q 481 933 482 938 q 475 922 480 928 l 357 763 q 349 752 353 756 q 340 747 345 749 q 329 744 336 745 q 312 743 322 743 q 295 745 302 743 q 287 750 289 747 q 285 758 284 753 q 290 768 286 762 l 389 926 z "},"ĉ":{"ha":591,"x_min":60,"x_max":542,"o":"m 542 104 q 541 90 542 96 q 539 79 541 83 q 535 70 538 74 q 524 58 533 66 q 495 35 515 49 q 448 12 474 22 q 393 -5 422 1 q 331 -12 363 -12 q 218 10 267 -12 q 136 73 169 31 q 85 175 102 115 q 68 315 68 236 q 89 469 68 405 q 148 573 111 532 q 235 633 185 614 q 342 652 285 652 q 400 647 372 652 q 451 631 428 641 q 493 610 475 622 q 520 589 511 597 q 531 576 528 581 q 536 566 534 572 q 538 554 538 561 q 539 539 539 548 q 533 512 539 519 q 521 504 528 504 q 497 516 511 504 q 462 543 484 528 q 409 570 440 557 q 336 582 378 582 q 200 514 248 582 q 152 318 152 446 q 165 205 152 254 q 202 124 178 157 q 260 76 226 92 q 338 60 295 60 q 410 73 379 60 q 465 102 441 86 q 503 130 488 117 q 526 143 518 143 q 533 141 530 143 q 538 133 536 138 q 541 121 540 128 q 542 104 542 114 m 234 761 q 227 752 230 755 q 218 747 223 749 q 208 744 214 745 q 193 743 201 743 q 172 745 179 743 q 162 751 164 747 q 162 762 159 755 q 171 777 164 768 l 286 935 q 293 942 289 939 q 302 946 296 945 q 315 949 307 948 q 334 949 323 949 q 351 949 345 949 q 363 946 358 948 q 372 941 368 944 q 378 935 375 939 l 493 777 q 502 762 499 768 q 502 751 504 755 q 492 745 499 747 q 471 743 484 743 q 455 744 461 743 q 445 747 449 745 q 437 752 440 749 q 430 761 434 755 l 332 895 l 234 761 m 60 642 z "},"č":{"ha":591,"x_min":68,"x_max":542,"o":"m 542 104 q 541 90 542 96 q 539 79 541 83 q 535 70 538 74 q 524 58 533 66 q 495 35 515 49 q 448 12 474 22 q 393 -5 422 1 q 331 -12 363 -12 q 218 10 267 -12 q 136 73 169 31 q 85 175 102 115 q 68 315 68 236 q 89 469 68 405 q 148 573 111 532 q 235 633 185 614 q 342 652 285 652 q 400 647 372 652 q 451 631 428 641 q 493 610 475 622 q 520 589 511 597 q 531 576 528 581 q 536 566 534 572 q 538 554 538 561 q 539 539 539 548 q 533 512 539 519 q 521 504 528 504 q 497 516 511 504 q 462 543 484 528 q 409 570 440 557 q 336 582 378 582 q 200 514 248 582 q 152 318 152 446 q 165 205 152 254 q 202 124 178 157 q 260 76 226 92 q 338 60 295 60 q 410 73 379 60 q 465 102 441 86 q 503 130 488 117 q 526 143 518 143 q 533 141 530 143 q 538 133 536 138 q 541 121 540 128 q 542 104 542 114 m 433 932 q 440 940 437 937 q 448 945 444 943 q 459 948 453 947 q 474 949 465 949 q 495 947 487 949 q 505 941 503 945 q 505 931 507 937 q 496 916 503 924 l 381 758 q 374 750 378 753 q 365 746 370 747 q 352 744 359 745 q 332 743 344 743 q 315 744 322 743 q 303 746 309 745 q 295 751 298 748 q 288 758 292 754 l 174 916 q 165 930 168 924 q 165 941 163 937 q 175 947 168 945 q 195 949 182 949 q 212 948 205 949 q 222 945 218 947 q 230 940 227 943 q 237 932 233 937 l 334 797 l 433 932 z "},"ċ":{"ha":591,"x_min":68,"x_max":542,"o":"m 542 104 q 541 90 542 96 q 539 79 541 83 q 535 70 538 74 q 524 58 533 66 q 495 35 515 49 q 448 12 474 22 q 393 -5 422 1 q 331 -12 363 -12 q 218 10 267 -12 q 136 73 169 31 q 85 175 102 115 q 68 315 68 236 q 89 469 68 405 q 148 573 111 532 q 235 633 185 614 q 342 652 285 652 q 400 647 372 652 q 451 631 428 641 q 493 610 475 622 q 520 589 511 597 q 531 576 528 581 q 536 566 534 572 q 538 554 538 561 q 539 539 539 548 q 533 512 539 519 q 521 504 528 504 q 497 516 511 504 q 462 543 484 528 q 409 570 440 557 q 336 582 378 582 q 200 514 248 582 q 152 318 152 446 q 165 205 152 254 q 202 124 178 157 q 260 76 226 92 q 338 60 295 60 q 410 73 379 60 q 465 102 441 86 q 503 130 488 117 q 526 143 518 143 q 533 141 530 143 q 538 133 536 138 q 541 121 540 128 q 542 104 542 114 m 385 834 q 373 790 385 802 q 332 779 361 779 q 291 790 302 779 q 279 833 279 802 q 291 877 279 865 q 333 889 303 889 q 374 878 362 889 q 385 834 385 866 z "},"ç":{"ha":591,"x_min":68,"x_max":542,"o":"m 542 104 q 541 90 542 96 q 539 79 541 83 q 535 70 538 74 q 524 58 533 66 q 493 35 515 49 q 437 7 471 20 q 359 -10 404 -5 l 378 -53 q 401 -106 394 -86 q 408 -143 408 -126 q 399 -185 408 -166 q 374 -218 391 -205 q 335 -240 358 -232 q 281 -248 311 -248 q 242 -245 261 -248 q 209 -240 223 -243 q 189 -235 194 -237 q 182 -229 184 -233 q 179 -221 180 -226 q 178 -209 178 -216 q 182 -186 178 -191 q 195 -181 186 -181 l 281 -181 q 319 -171 305 -181 q 332 -141 332 -161 q 328 -117 332 -132 q 315 -85 323 -102 l 280 -7 q 162 45 210 3 q 92 154 115 86 q 68 315 68 222 q 89 469 68 405 q 148 573 111 532 q 235 633 185 614 q 342 652 285 652 q 400 647 372 652 q 451 631 428 641 q 493 610 475 622 q 520 589 511 597 q 531 576 528 581 q 536 566 534 572 q 538 554 538 561 q 539 539 539 548 q 533 512 539 519 q 521 504 528 504 q 497 516 511 504 q 462 543 484 528 q 409 570 440 557 q 336 582 378 582 q 200 514 248 582 q 152 318 152 446 q 165 205 152 254 q 202 124 178 157 q 260 76 226 92 q 338 60 295 60 q 410 73 379 60 q 465 102 441 86 q 503 130 488 117 q 526 143 518 143 q 533 141 530 143 q 538 133 536 138 q 541 121 540 128 q 542 104 542 114 z "},"d":{"ha":722,"x_min":73,"x_max":608,"o":"m 608 14 q 607 5 608 9 q 601 0 605 2 q 589 -3 596 -2 q 572 -4 583 -4 q 554 -3 562 -4 q 543 0 547 -2 q 536 5 538 2 q 534 14 534 9 l 534 102 q 433 19 485 49 q 319 -12 380 -12 q 205 14 252 -12 q 129 84 159 40 q 86 188 100 128 q 73 313 73 247 q 90 454 73 391 q 140 561 106 517 q 222 629 173 605 q 335 652 271 652 q 437 628 391 652 q 528 555 483 603 l 528 924 q 529 932 528 928 q 536 937 531 935 q 548 941 541 939 q 568 942 556 942 q 588 941 580 942 q 600 937 595 939 q 606 932 604 935 q 608 924 608 928 l 608 14 m 528 456 q 430 551 477 518 q 331 583 382 583 q 251 561 284 583 q 197 502 218 538 q 166 419 176 465 q 157 326 157 373 q 165 227 157 275 q 193 141 173 178 q 245 80 212 103 q 326 58 277 58 q 374 64 351 58 q 421 87 397 71 q 472 127 446 102 q 528 189 498 152 l 528 456 z "},"ď":{"ha":768,"x_min":73,"x_max":823,"o":"m 608 14 q 607 5 608 9 q 601 0 605 2 q 589 -3 596 -2 q 572 -4 583 -4 q 554 -3 562 -4 q 543 0 547 -2 q 536 5 538 2 q 534 14 534 9 l 534 102 q 433 19 485 49 q 319 -12 380 -12 q 205 14 252 -12 q 129 84 159 40 q 86 188 100 128 q 73 313 73 247 q 90 454 73 391 q 140 561 106 517 q 222 629 173 605 q 335 652 271 652 q 437 628 391 652 q 528 555 483 603 l 528 924 q 529 932 528 928 q 536 937 531 935 q 548 941 541 939 q 568 942 556 942 q 588 941 580 942 q 600 937 595 939 q 606 932 604 935 q 608 924 608 928 l 608 14 m 528 456 q 430 551 477 518 q 331 583 382 583 q 251 561 284 583 q 197 502 218 538 q 166 419 176 465 q 157 326 157 373 q 165 227 157 275 q 193 141 173 178 q 245 80 212 103 q 326 58 277 58 q 374 64 351 58 q 421 87 397 71 q 472 127 446 102 q 528 189 498 152 l 528 456 m 745 926 q 751 936 747 932 q 760 942 754 940 q 774 945 765 944 q 795 946 783 946 q 811 945 805 946 q 819 942 817 944 q 822 935 822 939 q 821 926 823 931 l 736 714 q 734 709 736 711 q 727 706 732 707 q 716 704 723 705 q 698 703 709 703 q 686 704 690 703 q 680 707 682 705 q 677 712 677 709 q 677 718 676 715 l 745 926 m 576 680 z "},"đ":{"ha":753,"x_min":73,"x_max":728,"o":"m 728 793 q 726 779 728 785 q 722 768 725 772 q 716 762 720 764 q 708 760 713 760 l 608 760 l 608 14 q 607 5 608 9 q 601 0 605 2 q 589 -3 596 -2 q 572 -4 583 -4 q 554 -3 562 -4 q 543 0 547 -2 q 536 5 538 2 q 534 14 534 9 l 534 102 q 433 19 485 49 q 319 -12 380 -12 q 205 14 252 -12 q 129 84 159 40 q 86 188 100 128 q 73 313 73 247 q 90 454 73 391 q 140 561 106 517 q 222 629 173 605 q 335 652 271 652 q 437 628 391 652 q 528 555 483 603 l 528 760 l 345 760 q 337 762 340 760 q 330 768 333 764 q 326 779 328 772 q 325 793 325 785 q 326 808 325 802 q 330 819 328 814 q 337 825 333 823 q 345 827 340 827 l 528 827 l 528 924 q 529 932 528 928 q 536 937 531 935 q 548 941 541 939 q 568 942 556 942 q 588 941 580 942 q 600 937 595 939 q 606 932 604 935 q 608 924 608 928 l 608 827 l 708 827 q 716 825 713 827 q 722 819 720 823 q 726 808 725 814 q 728 793 728 802 m 528 456 q 430 551 477 518 q 331 583 382 583 q 251 561 284 583 q 197 502 218 538 q 166 419 176 465 q 157 326 157 373 q 165 227 157 275 q 193 141 173 178 q 245 80 212 103 q 326 58 277 58 q 374 64 351 58 q 421 87 397 71 q 472 127 446 102 q 528 189 498 152 l 528 456 z "},"ð":{"ha":722,"x_min":73,"x_max":631,"o":"m 203 733 q 194 732 198 732 q 186 736 189 733 q 182 746 184 740 q 181 763 181 753 q 182 779 181 772 q 186 790 184 785 q 194 797 189 794 q 203 801 198 800 l 347 839 q 330 858 340 847 q 309 881 319 869 q 287 904 298 892 q 268 924 276 915 q 263 932 264 928 q 266 937 262 935 q 279 941 270 939 q 306 942 289 942 q 335 941 323 942 q 355 937 347 939 q 369 932 363 935 q 378 924 374 928 q 416 883 399 901 q 434 861 432 865 l 608 907 q 618 907 614 908 q 626 904 623 907 q 630 894 629 901 q 631 878 631 888 q 630 862 631 869 q 626 850 629 855 q 618 843 623 846 q 608 839 614 840 l 479 806 q 542 711 515 758 q 586 615 569 665 q 612 510 604 566 q 620 386 620 454 q 603 220 620 294 q 550 95 585 146 q 458 16 514 43 q 327 -12 403 -12 q 205 16 254 -12 q 127 89 156 43 q 85 192 98 134 q 73 313 73 251 q 91 458 73 395 q 143 565 109 522 q 226 630 177 608 q 336 652 275 652 q 384 647 360 652 q 430 631 407 642 q 474 604 452 621 q 517 566 496 588 q 502 608 511 584 q 479 659 493 631 q 444 718 465 686 q 393 783 422 749 l 203 733 m 537 378 q 536 423 537 404 q 534 455 536 441 q 477 513 504 488 q 425 553 450 537 q 378 576 401 568 q 332 583 355 583 q 255 563 288 583 q 200 507 222 542 q 168 425 178 471 q 157 326 157 378 q 165 227 157 275 q 193 141 174 178 q 246 80 213 103 q 330 58 279 58 q 419 76 380 58 q 484 134 458 94 q 524 233 511 173 q 537 378 537 294 z "},"e":{"ha":686,"x_min":71,"x_max":614,"o":"m 614 352 q 601 318 614 328 q 576 309 588 309 l 157 309 q 169 206 157 252 q 205 127 180 160 q 273 77 231 94 q 374 59 314 59 q 451 66 417 59 q 510 83 485 74 q 550 100 534 92 q 573 107 566 107 q 581 105 577 107 q 586 99 584 103 q 589 87 588 94 q 590 71 590 81 q 589 61 590 66 q 588 53 589 57 q 585 46 587 50 q 579 39 583 43 q 558 27 576 36 q 512 11 541 19 q 446 -5 484 2 q 365 -12 408 -12 q 239 10 294 -12 q 146 73 184 31 q 90 176 109 115 q 71 319 71 238 q 91 459 71 397 q 148 564 111 521 q 238 630 185 607 q 355 652 290 652 q 473 629 424 652 q 553 567 522 606 q 599 477 585 528 q 614 368 614 425 l 614 352 m 530 376 q 486 528 532 473 q 349 583 439 583 q 268 566 303 583 q 209 520 233 549 q 172 454 185 492 q 157 376 159 416 l 530 376 z "},"è":{"ha":686,"x_min":71,"x_max":614,"o":"m 614 352 q 601 318 614 328 q 576 309 588 309 l 157 309 q 169 206 157 252 q 205 127 180 160 q 273 77 231 94 q 374 59 314 59 q 451 66 417 59 q 510 83 485 74 q 550 100 534 92 q 573 107 566 107 q 581 105 577 107 q 586 99 584 103 q 589 87 588 94 q 590 71 590 81 q 589 61 590 66 q 588 53 589 57 q 585 46 587 50 q 579 39 583 43 q 558 27 576 36 q 512 11 541 19 q 446 -5 484 2 q 365 -12 408 -12 q 239 10 294 -12 q 146 73 184 31 q 90 176 109 115 q 71 319 71 238 q 91 459 71 397 q 148 564 111 521 q 238 630 185 607 q 355 652 290 652 q 473 629 424 652 q 553 567 522 606 q 599 477 585 528 q 614 368 614 425 l 614 352 m 530 376 q 486 528 532 473 q 349 583 439 583 q 268 566 303 583 q 209 520 233 549 q 172 454 185 492 q 157 376 159 416 l 530 376 m 390 768 q 395 758 394 762 q 394 750 396 753 q 385 745 391 747 q 369 743 379 743 q 352 744 359 743 q 340 747 345 745 q 331 752 335 749 q 322 763 327 756 l 204 922 q 199 933 199 928 q 201 942 198 938 q 213 947 205 945 q 234 949 221 949 q 256 948 247 949 q 271 945 264 947 q 281 938 277 943 q 291 926 286 933 l 390 768 z "},"é":{"ha":686,"x_min":71,"x_max":614,"o":"m 614 352 q 601 318 614 328 q 576 309 588 309 l 157 309 q 169 206 157 252 q 205 127 180 160 q 273 77 231 94 q 374 59 314 59 q 451 66 417 59 q 510 83 485 74 q 550 100 534 92 q 573 107 566 107 q 581 105 577 107 q 586 99 584 103 q 589 87 588 94 q 590 71 590 81 q 589 61 590 66 q 588 53 589 57 q 585 46 587 50 q 579 39 583 43 q 558 27 576 36 q 512 11 541 19 q 446 -5 484 2 q 365 -12 408 -12 q 239 10 294 -12 q 146 73 184 31 q 90 176 109 115 q 71 319 71 238 q 91 459 71 397 q 148 564 111 521 q 238 630 185 607 q 355 652 290 652 q 473 629 424 652 q 553 567 522 606 q 599 477 585 528 q 614 368 614 425 l 614 352 m 530 376 q 486 528 532 473 q 349 583 439 583 q 268 566 303 583 q 209 520 233 549 q 172 454 185 492 q 157 376 159 416 l 530 376 m 412 926 q 421 938 416 933 q 432 945 426 943 q 448 948 439 947 q 470 949 457 949 q 491 947 483 949 q 503 942 499 945 q 505 933 506 938 q 499 922 504 928 l 381 763 q 373 752 376 756 q 364 747 369 749 q 353 744 359 745 q 336 743 346 743 q 319 745 326 743 q 310 750 313 747 q 309 758 308 753 q 313 768 309 762 l 412 926 z "},"ê":{"ha":686,"x_min":71,"x_max":614,"o":"m 614 352 q 601 318 614 328 q 576 309 588 309 l 157 309 q 169 206 157 252 q 205 127 180 160 q 273 77 231 94 q 374 59 314 59 q 451 66 417 59 q 510 83 485 74 q 550 100 534 92 q 573 107 566 107 q 581 105 577 107 q 586 99 584 103 q 589 87 588 94 q 590 71 590 81 q 589 61 590 66 q 588 53 589 57 q 585 46 587 50 q 579 39 583 43 q 558 27 576 36 q 512 11 541 19 q 446 -5 484 2 q 365 -12 408 -12 q 239 10 294 -12 q 146 73 184 31 q 90 176 109 115 q 71 319 71 238 q 91 459 71 397 q 148 564 111 521 q 238 630 185 607 q 355 652 290 652 q 473 629 424 652 q 553 567 522 606 q 599 477 585 528 q 614 368 614 425 l 614 352 m 530 376 q 486 528 532 473 q 349 583 439 583 q 268 566 303 583 q 209 520 233 549 q 172 454 185 492 q 157 376 159 416 l 530 376 m 252 761 q 244 752 248 755 q 236 747 241 749 q 225 744 231 745 q 210 743 219 743 q 189 745 197 743 q 179 751 182 747 q 179 762 177 755 q 189 777 182 768 l 303 935 q 310 942 307 939 q 319 946 314 945 q 333 949 325 948 q 352 949 340 949 q 369 949 362 949 q 381 946 376 948 q 389 941 386 944 q 396 935 393 939 l 511 777 q 519 762 517 768 q 519 751 522 755 q 509 745 517 747 q 489 743 502 743 q 473 744 479 743 q 462 747 467 745 q 455 752 458 749 q 448 761 452 755 l 349 895 l 252 761 m 78 642 z "},"ě":{"ha":686,"x_min":71,"x_max":614,"o":"m 614 352 q 601 318 614 328 q 576 309 588 309 l 157 309 q 169 206 157 252 q 205 127 180 160 q 273 77 231 94 q 374 59 314 59 q 451 66 417 59 q 510 83 485 74 q 550 100 534 92 q 573 107 566 107 q 581 105 577 107 q 586 99 584 103 q 589 87 588 94 q 590 71 590 81 q 589 61 590 66 q 588 53 589 57 q 585 46 587 50 q 579 39 583 43 q 558 27 576 36 q 512 11 541 19 q 446 -5 484 2 q 365 -12 408 -12 q 239 10 294 -12 q 146 73 184 31 q 90 176 109 115 q 71 319 71 238 q 91 459 71 397 q 148 564 111 521 q 238 630 185 607 q 355 652 290 652 q 473 629 424 652 q 553 567 522 606 q 599 477 585 528 q 614 368 614 425 l 614 352 m 530 376 q 486 528 532 473 q 349 583 439 583 q 268 566 303 583 q 209 520 233 549 q 172 454 185 492 q 157 376 159 416 l 530 376 m 446 932 q 454 940 450 937 q 462 945 457 943 q 473 948 467 947 q 488 949 479 949 q 508 947 500 949 q 518 941 516 945 q 518 931 521 937 q 509 916 516 924 l 395 758 q 388 750 391 753 q 378 746 384 747 q 365 744 373 745 q 346 743 357 743 q 329 744 336 743 q 317 746 322 745 q 309 751 312 748 q 302 758 305 754 l 187 916 q 179 930 181 924 q 179 941 176 937 q 188 947 181 945 q 209 949 195 949 q 225 948 219 949 q 236 945 231 947 q 243 940 240 943 q 250 932 246 937 l 348 797 l 446 932 z "},"ë":{"ha":686,"x_min":71,"x_max":614,"o":"m 614 352 q 601 318 614 328 q 576 309 588 309 l 157 309 q 169 206 157 252 q 205 127 180 160 q 273 77 231 94 q 374 59 314 59 q 451 66 417 59 q 510 83 485 74 q 550 100 534 92 q 573 107 566 107 q 581 105 577 107 q 586 99 584 103 q 589 87 588 94 q 590 71 590 81 q 589 61 590 66 q 588 53 589 57 q 585 46 587 50 q 579 39 583 43 q 558 27 576 36 q 512 11 541 19 q 446 -5 484 2 q 365 -12 408 -12 q 239 10 294 -12 q 146 73 184 31 q 90 176 109 115 q 71 319 71 238 q 91 459 71 397 q 148 564 111 521 q 238 630 185 607 q 355 652 290 652 q 473 629 424 652 q 553 567 522 606 q 599 477 585 528 q 614 368 614 425 l 614 352 m 530 376 q 486 528 532 473 q 349 583 439 583 q 268 566 303 583 q 209 520 233 549 q 172 454 185 492 q 157 376 159 416 l 530 376 m 287 821 q 276 779 287 790 q 236 768 265 768 q 196 779 207 768 q 186 821 186 789 q 197 863 186 852 q 236 874 208 874 q 276 863 266 874 q 287 821 287 852 m 513 821 q 503 779 513 790 q 463 768 492 768 q 423 779 433 768 q 412 821 412 789 q 423 863 412 852 q 463 874 434 874 q 503 863 492 874 q 513 821 513 852 m 85 642 z "},"ē":{"ha":686,"x_min":71,"x_max":614,"o":"m 614 352 q 601 318 614 328 q 576 309 588 309 l 157 309 q 169 206 157 252 q 205 127 180 160 q 273 77 231 94 q 374 59 314 59 q 451 66 417 59 q 510 83 485 74 q 550 100 534 92 q 573 107 566 107 q 581 105 577 107 q 586 99 584 103 q 589 87 588 94 q 590 71 590 81 q 589 61 590 66 q 588 53 589 57 q 585 46 587 50 q 579 39 583 43 q 558 27 576 36 q 512 11 541 19 q 446 -5 484 2 q 365 -12 408 -12 q 239 10 294 -12 q 146 73 184 31 q 90 176 109 115 q 71 319 71 238 q 91 459 71 397 q 148 564 111 521 q 238 630 185 607 q 355 652 290 652 q 473 629 424 652 q 553 567 522 606 q 599 477 585 528 q 614 368 614 425 l 614 352 m 530 376 q 486 528 532 473 q 349 583 439 583 q 268 566 303 583 q 209 520 233 549 q 172 454 185 492 q 157 376 159 416 l 530 376 m 507 866 q 514 864 511 866 q 519 858 517 862 q 523 847 522 854 q 524 832 524 841 q 523 818 524 824 q 519 807 522 812 q 514 801 517 803 q 507 798 511 798 l 193 798 q 185 801 189 798 q 179 807 182 803 q 176 818 177 812 q 174 832 174 824 q 176 847 174 841 q 179 858 177 854 q 185 864 182 862 q 193 866 189 866 l 507 866 m 74 642 z "},"ĕ":{"ha":686,"x_min":71,"x_max":614,"o":"m 614 352 q 601 318 614 328 q 576 309 588 309 l 157 309 q 169 206 157 252 q 205 127 180 160 q 273 77 231 94 q 374 59 314 59 q 451 66 417 59 q 510 83 485 74 q 550 100 534 92 q 573 107 566 107 q 581 105 577 107 q 586 99 584 103 q 589 87 588 94 q 590 71 590 81 q 589 61 590 66 q 588 53 589 57 q 585 46 587 50 q 579 39 583 43 q 558 27 576 36 q 512 11 541 19 q 446 -5 484 2 q 365 -12 408 -12 q 239 10 294 -12 q 146 73 184 31 q 90 176 109 115 q 71 319 71 238 q 91 459 71 397 q 148 564 111 521 q 238 630 185 607 q 355 652 290 652 q 473 629 424 652 q 553 567 522 606 q 599 477 585 528 q 614 368 614 425 l 614 352 m 530 376 q 486 528 532 473 q 349 583 439 583 q 268 566 303 583 q 209 520 233 549 q 172 454 185 492 q 157 376 159 416 l 530 376 m 444 928 q 450 940 444 935 q 475 944 456 944 q 491 943 486 944 q 500 940 497 942 q 505 935 504 938 q 506 928 506 932 q 495 848 506 882 q 464 791 484 814 q 412 758 443 769 q 343 747 382 747 q 271 759 301 747 q 220 794 240 771 q 191 850 200 817 q 181 926 181 883 q 188 940 181 935 q 212 944 194 944 q 227 943 221 944 q 237 940 233 942 q 241 935 240 938 q 243 928 243 932 q 251 880 244 901 q 269 843 257 858 q 300 819 281 827 q 343 811 318 811 q 382 818 364 811 q 413 838 399 824 q 435 874 427 852 q 444 928 443 896 m 81 642 z "},"ė":{"ha":686,"x_min":71,"x_max":614,"o":"m 614 352 q 601 318 614 328 q 576 309 588 309 l 157 309 q 169 206 157 252 q 205 127 180 160 q 273 77 231 94 q 374 59 314 59 q 451 66 417 59 q 510 83 485 74 q 550 100 534 92 q 573 107 566 107 q 581 105 577 107 q 586 99 584 103 q 589 87 588 94 q 590 71 590 81 q 589 61 590 66 q 588 53 589 57 q 585 46 587 50 q 579 39 583 43 q 558 27 576 36 q 512 11 541 19 q 446 -5 484 2 q 365 -12 408 -12 q 239 10 294 -12 q 146 73 184 31 q 90 176 109 115 q 71 319 71 238 q 91 459 71 397 q 148 564 111 521 q 238 630 185 607 q 355 652 290 652 q 473 629 424 652 q 553 567 522 606 q 599 477 585 528 q 614 368 614 425 l 614 352 m 530 376 q 486 528 532 473 q 349 583 439 583 q 268 566 303 583 q 209 520 233 549 q 172 454 185 492 q 157 376 159 416 l 530 376 m 406 834 q 394 790 406 802 q 353 779 382 779 q 312 790 323 779 q 300 833 300 802 q 312 877 300 865 q 354 889 324 889 q 395 878 383 889 q 406 834 406 866 z "},"ę":{"ha":686,"x_min":71,"x_max":614,"o":"m 614 352 q 601 318 614 328 q 576 309 588 309 l 157 309 q 169 206 157 252 q 205 127 180 160 q 273 77 231 94 q 374 59 314 59 q 451 66 417 59 q 510 83 485 74 q 550 100 534 92 q 573 107 566 107 q 581 105 577 107 q 586 99 584 103 q 589 87 588 94 q 590 71 590 81 q 590 54 590 61 q 588 41 589 47 q 585 32 587 36 q 578 24 583 28 l 473 -83 q 448 -116 454 -102 q 443 -140 443 -130 q 455 -171 443 -161 q 496 -181 467 -181 l 578 -181 q 591 -185 587 -181 q 595 -205 595 -190 q 594 -219 595 -214 q 591 -229 593 -225 q 585 -234 589 -233 q 574 -237 581 -236 q 532 -245 553 -243 q 488 -248 511 -248 q 397 -223 429 -248 q 365 -150 365 -198 q 367 -125 365 -137 q 376 -100 370 -113 q 393 -73 382 -87 q 421 -41 404 -59 l 461 -1 q 418 -9 441 -6 q 365 -12 395 -12 q 239 10 294 -12 q 146 73 184 31 q 90 176 109 115 q 71 319 71 238 q 91 459 71 397 q 148 564 111 521 q 238 630 185 607 q 355 652 290 652 q 473 629 424 652 q 553 567 522 606 q 599 477 585 528 q 614 368 614 425 l 614 352 m 530 376 q 486 528 532 473 q 349 583 439 583 q 268 566 303 583 q 209 520 233 549 q 172 454 185 492 q 157 376 159 416 l 530 376 z "},"f":{"ha":415,"x_min":29,"x_max":431,"o":"m 431 889 q 430 874 431 880 q 428 865 429 868 q 424 860 426 861 q 418 859 421 859 q 405 862 412 859 q 386 869 397 865 q 360 877 375 873 q 324 880 345 880 q 276 871 296 880 q 244 842 256 862 q 227 790 232 822 q 222 714 222 759 l 222 642 l 372 642 q 380 640 377 642 q 387 633 384 637 q 391 622 389 629 q 392 607 392 616 q 387 582 392 590 q 372 573 381 573 l 222 573 l 222 14 q 220 6 222 9 q 213 1 218 3 q 201 -3 209 -1 q 181 -4 193 -4 q 162 -3 170 -4 q 149 1 154 -1 q 143 6 144 3 q 141 14 141 9 l 141 573 l 49 573 q 34 582 39 573 q 29 607 29 590 q 31 622 29 616 q 34 633 32 629 q 40 640 37 637 q 49 642 44 642 l 141 642 l 141 711 q 153 821 141 776 q 188 895 164 867 q 246 937 211 924 q 328 949 281 949 q 373 945 351 949 q 406 936 395 941 q 421 927 417 930 q 427 918 425 923 q 430 905 429 912 q 431 889 431 898 z "},"ﬀ":{"ha":797,"x_min":29,"x_max":814,"o":"m 814 889 q 810 866 814 873 q 800 859 807 859 q 786 862 794 859 q 767 869 779 865 q 740 877 755 873 q 705 880 724 880 q 626 841 649 880 q 604 714 604 801 l 604 642 l 754 642 q 763 640 759 642 q 769 633 766 637 q 773 622 772 629 q 774 607 774 616 q 769 582 774 590 q 754 573 764 573 l 604 573 l 604 14 q 602 6 604 9 q 595 1 600 3 q 583 -3 591 -1 q 564 -4 575 -4 q 544 -3 551 -4 q 531 1 536 -1 q 525 6 527 3 q 523 14 523 9 l 523 573 l 222 573 l 222 14 q 220 6 222 9 q 213 1 218 3 q 200 -3 208 -1 q 181 -4 193 -4 q 162 -3 170 -4 q 149 1 154 -1 q 143 6 144 3 q 141 14 141 9 l 141 573 l 49 573 q 34 582 39 573 q 29 607 29 590 q 31 622 29 616 q 34 633 32 629 q 40 640 37 637 q 49 642 44 642 l 141 642 l 141 707 q 153 815 141 770 q 188 888 165 860 q 246 929 212 916 q 326 942 281 942 q 377 937 355 942 q 411 926 399 931 q 421 919 417 923 q 427 910 425 916 q 430 898 429 905 q 431 882 431 890 q 428 859 431 866 q 418 851 425 851 q 404 854 412 851 q 384 862 396 858 q 357 869 372 866 q 323 873 342 873 q 244 833 267 873 q 222 707 222 793 l 222 642 l 523 642 l 523 714 q 535 823 523 778 q 571 896 547 867 q 629 937 594 924 q 708 949 663 949 q 759 944 737 949 q 793 933 781 939 q 803 927 799 930 q 809 918 807 923 q 813 905 812 912 q 814 889 814 898 z "},"ﬁ":{"ha":717,"x_min":29,"x_max":616,"o":"m 616 833 q 613 807 616 818 q 605 790 611 797 q 589 781 600 784 q 564 779 579 779 q 538 781 548 779 q 522 790 528 784 q 513 807 515 797 q 511 833 511 818 q 513 860 511 849 q 522 877 515 870 q 538 886 528 884 q 564 889 548 889 q 589 886 579 889 q 605 877 600 884 q 613 860 611 870 q 616 833 616 849 m 604 14 q 602 6 604 9 q 595 1 600 3 q 583 -3 591 -1 q 564 -4 575 -4 q 544 -3 551 -4 q 531 1 536 -1 q 525 6 527 3 q 523 14 523 9 l 523 573 l 222 573 l 222 14 q 220 6 222 9 q 213 1 218 3 q 201 -3 209 -1 q 181 -4 193 -4 q 162 -3 170 -4 q 149 1 154 -1 q 143 6 144 3 q 141 14 141 9 l 141 573 l 49 573 q 34 582 39 573 q 29 607 29 590 q 31 622 29 616 q 34 633 32 629 q 40 640 37 637 q 49 642 44 642 l 141 642 l 141 714 q 153 823 141 778 q 188 896 165 867 q 244 937 211 924 q 321 949 278 949 q 350 948 336 949 q 376 944 364 947 q 396 939 388 942 q 408 933 405 936 q 413 926 411 930 q 416 919 415 923 q 418 908 417 914 q 418 894 418 902 q 415 871 418 879 q 405 864 412 864 q 393 866 399 864 q 377 872 387 869 q 353 878 368 875 q 318 880 339 880 q 243 841 265 880 q 222 714 222 801 l 222 642 l 578 642 q 598 634 592 642 q 604 614 604 626 l 604 14 z "},"ﬃ":{"ha":1099,"x_min":29,"x_max":998,"o":"m 998 833 q 996 807 998 818 q 987 790 994 797 q 971 781 981 784 q 945 779 961 779 q 920 781 930 779 q 903 790 909 784 q 895 807 897 797 q 892 833 892 818 q 895 860 892 849 q 903 877 897 870 q 920 886 909 884 q 945 889 930 889 q 971 886 961 889 q 987 877 981 884 q 996 860 994 870 q 998 833 998 849 m 986 14 q 984 6 986 9 q 978 1 982 3 q 965 -3 973 -1 q 945 -4 958 -4 q 926 -3 934 -4 q 913 1 918 -1 q 907 6 909 3 q 905 14 905 9 l 905 573 l 604 573 l 604 14 q 602 6 604 9 q 595 1 600 3 q 583 -3 591 -1 q 564 -4 575 -4 q 544 -3 551 -4 q 531 1 536 -1 q 525 6 527 3 q 523 14 523 9 l 523 573 l 222 573 l 222 14 q 220 6 222 9 q 213 1 218 3 q 201 -3 209 -1 q 181 -4 193 -4 q 162 -3 170 -4 q 149 1 154 -1 q 143 6 144 3 q 141 14 141 9 l 141 573 l 49 573 q 34 582 39 573 q 29 607 29 590 q 31 622 29 616 q 34 633 32 629 q 40 640 37 637 q 49 642 44 642 l 141 642 l 141 707 q 153 815 141 770 q 188 888 165 860 q 246 929 212 916 q 326 942 281 942 q 377 937 355 942 q 408 927 399 931 q 421 919 417 923 q 427 910 425 916 q 430 898 429 905 q 431 882 431 890 q 428 859 431 866 q 418 851 425 851 q 404 854 412 851 q 384 862 396 858 q 357 869 372 866 q 323 873 342 873 q 244 833 267 873 q 222 707 222 793 l 222 642 l 523 642 l 523 714 q 535 823 523 778 q 570 896 547 867 q 626 937 593 924 q 703 949 660 949 q 732 948 718 949 q 758 944 747 947 q 778 939 770 942 q 790 933 787 936 q 795 926 793 930 q 798 919 797 923 q 800 908 800 914 q 801 894 801 902 q 798 871 801 879 q 787 864 795 864 q 775 866 782 864 q 760 872 769 869 q 736 878 750 875 q 701 880 722 880 q 626 841 648 880 q 604 714 604 801 l 604 642 l 960 642 q 980 634 974 642 q 986 614 986 626 l 986 14 z "},"ﬂ":{"ha":717,"x_min":29,"x_max":604,"o":"m 604 14 q 602 6 604 9 q 595 1 600 3 q 583 -3 591 -1 q 564 -4 575 -4 q 544 -3 551 -4 q 531 1 536 -1 q 525 6 527 3 q 523 14 523 9 l 523 865 q 519 864 522 864 q 513 863 517 863 q 487 868 505 863 q 449 875 469 872 q 413 879 430 878 q 380 880 395 880 q 301 870 332 880 q 252 840 270 861 q 228 788 235 820 q 222 714 222 757 l 222 642 l 361 642 q 369 640 366 642 q 376 633 373 637 q 380 622 378 629 q 381 607 381 616 q 376 582 381 590 q 361 573 370 573 l 222 573 l 222 14 q 220 6 222 9 q 213 1 218 3 q 201 -3 209 -1 q 181 -4 193 -4 q 162 -3 170 -4 q 149 1 154 -1 q 143 6 144 3 q 141 14 141 9 l 141 573 l 49 573 q 34 582 39 573 q 29 607 29 590 q 31 622 29 616 q 34 633 32 629 q 40 640 37 637 q 49 642 44 642 l 141 642 l 141 714 q 155 823 141 778 q 199 896 170 867 q 275 937 229 924 q 382 949 320 949 q 418 948 400 949 q 453 945 436 947 q 483 940 470 943 q 503 936 496 938 q 515 931 511 934 q 523 923 520 928 q 525 934 523 930 q 531 941 527 938 q 544 944 536 943 q 564 945 551 945 q 583 944 575 945 q 595 941 591 943 q 602 935 600 939 q 604 928 604 932 l 604 14 z "},"ﬄ":{"ha":1099,"x_min":29,"x_max":986,"o":"m 986 14 q 984 6 986 9 q 978 1 982 3 q 965 -3 973 -1 q 945 -4 958 -4 q 926 -3 934 -4 q 913 1 918 -1 q 907 6 909 3 q 905 14 905 9 l 905 865 q 901 864 903 864 q 895 863 899 863 q 869 868 887 863 q 831 875 850 872 q 794 879 812 878 q 762 880 777 880 q 683 870 714 880 q 635 840 652 861 q 610 788 617 820 q 604 714 604 757 l 604 642 l 743 642 q 751 640 748 642 q 758 633 755 637 q 762 622 760 629 q 763 607 763 616 q 758 582 763 590 q 743 573 752 573 l 604 573 l 604 14 q 602 6 604 9 q 595 1 600 3 q 583 -3 591 -1 q 564 -4 575 -4 q 544 -3 551 -4 q 531 1 536 -1 q 525 6 527 3 q 523 14 523 9 l 523 573 l 222 573 l 222 14 q 220 6 222 9 q 213 1 218 3 q 201 -3 209 -1 q 181 -4 193 -4 q 162 -3 170 -4 q 149 1 154 -1 q 143 6 144 3 q 141 14 141 9 l 141 573 l 49 573 q 34 582 39 573 q 29 607 29 590 q 31 622 29 616 q 34 633 32 629 q 40 640 37 637 q 49 642 44 642 l 141 642 l 141 707 q 153 815 141 770 q 188 888 165 860 q 246 929 212 916 q 326 942 281 942 q 377 937 355 942 q 408 927 399 931 q 421 919 417 923 q 427 910 425 916 q 430 898 429 905 q 431 882 431 890 q 428 859 431 866 q 418 851 425 851 q 404 854 412 851 q 384 862 396 858 q 357 869 372 866 q 323 873 342 873 q 244 833 267 873 q 222 707 222 793 l 222 642 l 523 642 l 523 714 q 537 823 523 778 q 582 896 552 867 q 656 937 611 924 q 764 949 702 949 q 800 948 782 949 q 835 945 818 947 q 865 940 852 943 q 886 936 878 938 q 898 931 893 934 q 905 923 902 928 q 907 934 905 930 q 913 941 909 938 q 926 944 918 943 q 945 945 934 945 q 965 944 958 945 q 978 941 973 943 q 984 935 982 939 q 986 928 986 932 l 986 14 z "},"g":{"ha":651,"x_min":45,"x_max":605,"o":"m 605 607 q 599 581 605 588 q 583 573 593 573 l 486 573 q 526 510 515 544 q 537 437 537 475 q 520 345 537 385 q 473 276 504 304 q 401 233 443 248 q 308 218 359 218 q 229 229 267 218 q 171 258 192 241 q 149 227 157 244 q 140 186 140 209 q 164 142 140 160 q 229 123 189 125 l 395 117 q 474 105 437 115 q 538 75 511 95 q 583 26 566 55 q 599 -43 599 -3 q 582 -121 599 -83 q 531 -186 566 -158 q 441 -231 496 -214 q 312 -248 387 -248 q 190 -235 240 -248 q 107 -200 139 -222 q 60 -149 75 -178 q 45 -84 45 -119 q 51 -39 45 -60 q 67 1 56 -18 q 95 37 79 20 q 134 73 112 55 q 83 116 99 91 q 66 170 66 141 q 83 244 66 212 q 122 302 99 276 q 92 358 102 328 q 81 431 81 389 q 98 524 81 483 q 145 593 115 565 q 217 637 175 622 q 309 652 259 652 q 359 649 336 652 q 402 642 382 646 l 583 642 q 600 633 595 642 q 605 607 605 624 m 454 436 q 415 545 454 506 q 307 585 377 585 q 243 572 271 585 q 199 539 216 560 q 172 490 181 518 q 163 431 163 463 q 202 325 163 363 q 309 286 240 286 q 373 298 346 286 q 418 331 401 310 q 445 379 436 351 q 454 436 454 406 m 518 -47 q 482 21 518 -3 q 385 47 446 45 l 206 53 q 166 17 182 34 q 141 -16 151 0 q 129 -47 132 -32 q 125 -78 125 -62 q 176 -154 125 -128 q 317 -180 227 -180 q 412 -169 374 -180 q 474 -139 450 -157 q 508 -97 498 -121 q 518 -47 518 -73 z "},"ĝ":{"ha":651,"x_min":45,"x_max":605,"o":"m 605 607 q 599 581 605 588 q 583 573 593 573 l 486 573 q 526 510 515 544 q 537 437 537 475 q 520 345 537 385 q 473 276 504 304 q 401 233 443 248 q 308 218 359 218 q 229 229 267 218 q 171 258 192 241 q 149 227 157 244 q 140 186 140 209 q 164 142 140 160 q 229 123 189 125 l 395 117 q 474 105 437 115 q 538 75 511 95 q 583 26 566 55 q 599 -43 599 -3 q 582 -121 599 -83 q 531 -186 566 -158 q 441 -231 496 -214 q 312 -248 387 -248 q 190 -235 240 -248 q 107 -200 139 -222 q 60 -149 75 -178 q 45 -84 45 -119 q 51 -39 45 -60 q 67 1 56 -18 q 95 37 79 20 q 134 73 112 55 q 83 116 99 91 q 66 170 66 141 q 83 244 66 212 q 122 302 99 276 q 92 358 102 328 q 81 431 81 389 q 98 524 81 483 q 145 593 115 565 q 217 637 175 622 q 309 652 259 652 q 359 649 336 652 q 402 642 382 646 l 583 642 q 600 633 595 642 q 605 607 605 624 m 454 436 q 415 545 454 506 q 307 585 377 585 q 243 572 271 585 q 199 539 216 560 q 172 490 181 518 q 163 431 163 463 q 202 325 163 363 q 309 286 240 286 q 373 298 346 286 q 418 331 401 310 q 445 379 436 351 q 454 436 454 406 m 518 -47 q 482 21 518 -3 q 385 47 446 45 l 206 53 q 166 17 182 34 q 141 -16 151 0 q 129 -47 132 -32 q 125 -78 125 -62 q 176 -154 125 -128 q 317 -180 227 -180 q 412 -169 374 -180 q 474 -139 450 -157 q 508 -97 498 -121 q 518 -47 518 -73 m 228 761 q 220 752 224 755 q 212 747 217 749 q 201 744 208 745 q 186 743 195 743 q 165 745 173 743 q 156 751 158 747 q 156 762 153 755 q 165 777 158 768 l 279 935 q 287 942 283 939 q 296 946 290 945 q 309 949 301 948 q 328 949 317 949 q 345 949 338 949 q 357 946 352 948 q 366 941 362 944 q 372 935 369 939 l 487 777 q 495 762 493 768 q 495 751 498 755 q 486 745 493 747 q 465 743 478 743 q 449 744 455 743 q 438 747 443 745 q 431 752 434 749 q 424 761 428 755 l 326 895 l 228 761 m 54 642 z "},"ğ":{"ha":651,"x_min":45,"x_max":605,"o":"m 605 607 q 599 581 605 588 q 583 573 593 573 l 486 573 q 526 510 515 544 q 537 437 537 475 q 520 345 537 385 q 473 276 504 304 q 401 233 443 248 q 308 218 359 218 q 229 229 267 218 q 171 258 192 241 q 149 227 157 244 q 140 186 140 209 q 164 142 140 160 q 229 123 189 125 l 395 117 q 474 105 437 115 q 538 75 511 95 q 583 26 566 55 q 599 -43 599 -3 q 582 -121 599 -83 q 531 -186 566 -158 q 441 -231 496 -214 q 312 -248 387 -248 q 190 -235 240 -248 q 107 -200 139 -222 q 60 -149 75 -178 q 45 -84 45 -119 q 51 -39 45 -60 q 67 1 56 -18 q 95 37 79 20 q 134 73 112 55 q 83 116 99 91 q 66 170 66 141 q 83 244 66 212 q 122 302 99 276 q 92 358 102 328 q 81 431 81 389 q 98 524 81 483 q 145 593 115 565 q 217 637 175 622 q 309 652 259 652 q 359 649 336 652 q 402 642 382 646 l 583 642 q 600 633 595 642 q 605 607 605 624 m 454 436 q 415 545 454 506 q 307 585 377 585 q 243 572 271 585 q 199 539 216 560 q 172 490 181 518 q 163 431 163 463 q 202 325 163 363 q 309 286 240 286 q 373 298 346 286 q 418 331 401 310 q 445 379 436 351 q 454 436 454 406 m 518 -47 q 482 21 518 -3 q 385 47 446 45 l 206 53 q 166 17 182 34 q 141 -16 151 0 q 129 -47 132 -32 q 125 -78 125 -62 q 176 -154 125 -128 q 317 -180 227 -180 q 412 -169 374 -180 q 474 -139 450 -157 q 508 -97 498 -121 q 518 -47 518 -73 m 427 928 q 433 940 427 935 q 458 944 439 944 q 474 943 468 944 q 483 940 479 942 q 487 935 486 938 q 488 928 488 932 q 477 848 488 882 q 446 791 467 814 q 395 758 425 769 q 326 747 364 747 q 253 759 283 747 q 202 794 222 771 q 173 850 182 817 q 163 926 163 883 q 170 940 163 935 q 194 944 176 944 q 210 943 203 944 q 219 940 216 942 q 224 935 222 938 q 225 928 225 932 q 233 880 227 901 q 252 843 239 858 q 282 819 264 827 q 326 811 300 811 q 364 818 347 811 q 395 838 382 824 q 417 874 409 852 q 427 928 425 896 m 63 642 z "},"ġ":{"ha":651,"x_min":45,"x_max":605,"o":"m 605 607 q 599 581 605 588 q 583 573 593 573 l 486 573 q 526 510 515 544 q 537 437 537 475 q 520 345 537 385 q 473 276 504 304 q 401 233 443 248 q 308 218 359 218 q 229 229 267 218 q 171 258 192 241 q 149 227 157 244 q 140 186 140 209 q 164 142 140 160 q 229 123 189 125 l 395 117 q 474 105 437 115 q 538 75 511 95 q 583 26 566 55 q 599 -43 599 -3 q 582 -121 599 -83 q 531 -186 566 -158 q 441 -231 496 -214 q 312 -248 387 -248 q 190 -235 240 -248 q 107 -200 139 -222 q 60 -149 75 -178 q 45 -84 45 -119 q 51 -39 45 -60 q 67 1 56 -18 q 95 37 79 20 q 134 73 112 55 q 83 116 99 91 q 66 170 66 141 q 83 244 66 212 q 122 302 99 276 q 92 358 102 328 q 81 431 81 389 q 98 524 81 483 q 145 593 115 565 q 217 637 175 622 q 309 652 259 652 q 359 649 336 652 q 402 642 382 646 l 583 642 q 600 633 595 642 q 605 607 605 624 m 454 436 q 415 545 454 506 q 307 585 377 585 q 243 572 271 585 q 199 539 216 560 q 172 490 181 518 q 163 431 163 463 q 202 325 163 363 q 309 286 240 286 q 373 298 346 286 q 418 331 401 310 q 445 379 436 351 q 454 436 454 406 m 518 -47 q 482 21 518 -3 q 385 47 446 45 l 206 53 q 166 17 182 34 q 141 -16 151 0 q 129 -47 132 -32 q 125 -78 125 -62 q 176 -154 125 -128 q 317 -180 227 -180 q 412 -169 374 -180 q 474 -139 450 -157 q 508 -97 498 -121 q 518 -47 518 -73 m 381 834 q 369 790 381 802 q 328 779 357 779 q 287 790 298 779 q 275 833 275 802 q 287 877 275 865 q 329 889 299 889 q 370 878 358 889 q 381 834 381 866 z "},"ģ":{"ha":651,"x_min":45,"x_max":605,"o":"m 605 607 q 599 581 605 588 q 583 573 593 573 l 486 573 q 526 510 515 544 q 537 437 537 475 q 520 345 537 385 q 473 276 504 304 q 401 233 443 248 q 308 218 359 218 q 229 229 267 218 q 171 258 192 241 q 149 227 157 244 q 140 186 140 209 q 164 142 140 160 q 229 123 189 125 l 395 117 q 474 105 437 115 q 538 75 511 95 q 583 26 566 55 q 599 -43 599 -3 q 582 -121 599 -83 q 531 -186 566 -158 q 441 -231 496 -214 q 312 -248 387 -248 q 190 -235 240 -248 q 107 -200 139 -222 q 60 -149 75 -178 q 45 -84 45 -119 q 51 -39 45 -60 q 67 1 56 -18 q 95 37 79 20 q 134 73 112 55 q 83 116 99 91 q 66 170 66 141 q 83 244 66 212 q 122 302 99 276 q 92 358 102 328 q 81 431 81 389 q 98 524 81 483 q 145 593 115 565 q 217 637 175 622 q 309 652 259 652 q 359 649 336 652 q 402 642 382 646 l 583 642 q 600 633 595 642 q 605 607 605 624 m 454 436 q 415 545 454 506 q 307 585 377 585 q 243 572 271 585 q 199 539 216 560 q 172 490 181 518 q 163 431 163 463 q 202 325 163 363 q 309 286 240 286 q 373 298 346 286 q 418 331 401 310 q 445 379 436 351 q 454 436 454 406 m 518 -47 q 482 21 518 -3 q 385 47 446 45 l 206 53 q 166 17 182 34 q 141 -16 151 0 q 129 -47 132 -32 q 125 -78 125 -62 q 176 -154 125 -128 q 317 -180 227 -180 q 412 -169 374 -180 q 474 -139 450 -157 q 508 -97 498 -121 q 518 -47 518 -73 m 361 745 q 344 727 355 731 q 309 723 334 723 q 276 730 281 723 q 278 751 271 736 l 359 902 q 373 918 365 913 q 405 922 382 922 q 430 916 427 922 q 427 897 433 909 l 361 745 z "},"h":{"ha":722,"x_min":113,"x_max":611,"o":"m 611 14 q 609 6 611 9 q 603 1 607 3 q 590 -3 598 -1 q 571 -4 583 -4 q 551 -3 559 -4 q 539 1 543 -1 q 532 6 534 3 q 530 14 530 9 l 530 378 q 522 470 530 435 q 495 531 513 506 q 450 571 477 557 q 386 585 422 585 q 292 551 339 585 q 194 454 245 518 l 194 14 q 192 6 194 9 q 185 1 190 3 q 173 -3 181 -1 q 153 -4 165 -4 q 134 -3 142 -4 q 121 1 126 -1 q 115 6 117 3 q 113 14 113 9 l 113 928 q 115 935 113 932 q 121 941 117 939 q 134 944 126 943 q 153 945 142 945 q 173 944 165 945 q 185 941 181 943 q 192 935 190 939 q 194 928 194 932 l 194 545 q 294 626 244 600 q 395 652 345 652 q 496 632 455 652 q 563 577 538 612 q 600 496 589 543 q 611 385 611 450 l 611 14 z "},"ĥ":{"ha":722,"x_min":-51,"x_max":611,"o":"m 611 14 q 609 6 611 9 q 603 1 607 3 q 590 -3 598 -1 q 571 -4 583 -4 q 551 -3 559 -4 q 539 1 543 -1 q 532 6 534 3 q 530 14 530 9 l 530 378 q 522 470 530 435 q 495 531 513 506 q 450 571 477 557 q 386 585 422 585 q 292 551 339 585 q 194 454 245 518 l 194 14 q 192 6 194 9 q 185 1 190 3 q 173 -3 181 -1 q 153 -4 165 -4 q 134 -3 142 -4 q 121 1 126 -1 q 115 6 117 3 q 113 14 113 9 l 113 862 q 115 869 113 866 q 121 875 117 873 q 134 879 126 878 q 153 880 142 880 q 173 879 165 880 q 185 875 181 878 q 192 869 190 873 q 194 862 194 866 l 194 545 q 294 626 244 600 q 395 652 345 652 q 496 632 455 652 q 563 577 538 612 q 600 496 589 543 q 611 385 611 450 l 611 14 m 165 1145 q 182 1145 175 1145 q 194 1142 189 1144 q 202 1137 199 1140 q 210 1131 206 1135 l 362 972 q 368 962 367 966 q 365 955 368 958 q 355 951 362 952 q 338 949 349 949 q 313 950 323 949 q 298 953 304 951 q 289 957 292 954 q 282 962 286 959 l 165 1091 l 43 966 q 33 957 38 960 q 21 952 28 954 q 4 950 14 951 q -18 949 -5 949 q -38 951 -31 949 q -48 956 -45 953 q -50 962 -51 958 q -43 972 -48 966 l 120 1131 q 128 1137 124 1135 q 137 1142 132 1140 q 149 1145 142 1144 q 165 1145 155 1145 z "},"ħ":{"ha":729,"x_min":-4,"x_max":618,"o":"m 618 14 q 616 6 618 9 q 610 1 614 3 q 598 -3 606 -1 q 578 -4 590 -4 q 558 -3 566 -4 q 546 1 551 -1 q 539 6 541 3 q 538 14 538 9 l 538 372 q 529 465 538 429 q 503 527 521 501 q 457 566 485 552 q 393 580 430 580 q 300 547 347 580 q 201 449 254 513 l 201 14 q 199 6 201 9 q 193 1 197 3 q 181 -3 189 -1 q 161 -4 173 -4 q 141 -3 149 -4 q 129 1 134 -1 q 122 6 124 3 q 121 14 121 9 l 121 760 l 16 760 q 8 762 12 760 q 1 768 4 764 q -3 779 -1 772 q -4 793 -4 785 q -3 808 -4 802 q 1 819 -1 814 q 8 825 4 823 q 16 827 12 827 l 121 827 l 121 928 q 122 935 121 932 q 129 941 124 939 q 141 944 134 943 q 161 945 149 945 q 181 944 173 945 q 193 941 189 943 q 199 935 197 939 q 201 928 201 932 l 201 827 l 378 827 q 387 825 383 827 q 393 819 391 823 q 397 808 396 814 q 399 793 399 802 q 397 779 399 785 q 393 768 396 772 q 387 762 391 764 q 378 760 383 760 l 201 760 l 201 539 q 303 622 254 597 q 402 648 353 648 q 504 627 463 648 q 571 572 545 607 q 607 491 596 537 q 618 380 618 445 l 618 14 z "},"i":{"ha":307,"x_min":100,"x_max":206,"o":"m 194 14 q 192 6 194 9 q 185 1 190 3 q 173 -3 181 -1 q 153 -4 165 -4 q 134 -3 142 -4 q 121 1 126 -1 q 115 6 117 3 q 113 14 113 9 l 113 627 q 115 635 113 631 q 121 641 117 638 q 134 644 126 643 q 153 645 142 645 q 173 644 165 645 q 185 641 181 643 q 192 635 190 638 q 194 627 194 631 l 194 14 m 206 834 q 195 790 206 802 q 153 779 183 779 q 112 790 123 779 q 100 833 100 801 q 112 878 100 866 q 154 889 123 889 q 195 878 184 889 q 206 834 206 867 z "},"ì":{"ha":307,"x_min":-3,"x_max":195,"o":"m 194 14 q 192 6 194 9 q 185 1 190 3 q 173 -3 181 -1 q 153 -4 165 -4 q 134 -3 142 -4 q 121 1 126 -1 q 115 6 117 3 q 113 14 113 9 l 113 627 q 115 635 113 631 q 121 641 117 638 q 134 644 126 643 q 153 645 142 645 q 173 644 165 645 q 185 641 181 643 q 192 635 190 638 q 194 627 194 631 l 194 14 m 189 768 q 194 758 193 762 q 193 750 195 753 q 184 745 191 747 q 168 743 178 743 q 151 744 158 743 q 139 747 144 745 q 130 752 134 749 q 121 763 126 756 l 3 922 q -2 933 -1 928 q 1 942 -3 938 q 12 947 4 945 q 33 949 20 949 q 55 948 46 949 q 70 945 64 947 q 81 938 76 943 q 90 926 85 933 l 189 768 z "},"í":{"ha":307,"x_min":106,"x_max":304,"o":"m 194 14 q 192 6 194 9 q 185 1 190 3 q 173 -3 181 -1 q 153 -4 165 -4 q 134 -3 142 -4 q 121 1 126 -1 q 115 6 117 3 q 113 14 113 9 l 113 627 q 115 635 113 631 q 121 641 117 638 q 134 644 126 643 q 153 645 142 645 q 173 644 165 645 q 185 641 181 643 q 192 635 190 638 q 194 627 194 631 l 194 14 m 211 926 q 220 938 215 933 q 231 945 224 943 q 247 948 237 947 q 269 949 256 949 q 290 947 281 949 q 301 942 298 945 q 303 933 304 938 q 298 922 302 928 l 180 763 q 171 752 175 756 q 163 747 168 749 q 151 744 158 745 q 134 743 144 743 q 118 745 124 743 q 109 750 111 747 q 107 758 106 753 q 112 768 108 762 l 211 926 z "},"î":{"ha":307,"x_min":-116,"x_max":328,"o":"m 194 14 q 192 6 194 9 q 185 1 190 3 q 173 -3 181 -1 q 153 -4 165 -4 q 134 -3 142 -4 q 121 1 126 -1 q 115 6 117 3 q 113 14 113 9 l 113 627 q 115 635 113 631 q 121 641 117 638 q 134 644 126 643 q 153 645 142 645 q 173 644 165 645 q 185 641 181 643 q 192 635 190 638 q 194 627 194 631 l 194 14 m 58 761 q 50 752 54 755 q 42 747 47 749 q 31 744 37 745 q 16 743 25 743 q -5 745 3 743 q -15 751 -12 747 q -15 762 -17 755 q -5 777 -12 768 l 109 935 q 116 942 113 939 q 125 946 120 945 q 139 949 131 948 q 158 949 146 949 q 175 949 168 949 q 187 946 182 948 q 195 941 192 944 q 202 935 199 939 l 317 777 q 325 762 323 768 q 325 751 328 755 q 315 745 323 747 q 295 743 308 743 q 279 744 285 743 q 268 747 273 745 q 261 752 264 749 q 254 761 258 755 l 155 895 l 58 761 m -116 642 z "},"ĩ":{"ha":307,"x_min":-62,"x_max":373,"o":"m 194 14 q 192 6 194 9 q 185 1 190 3 q 173 -3 181 -1 q 153 -4 165 -4 q 134 -3 142 -4 q 121 1 126 -1 q 115 6 117 3 q 113 14 113 9 l 113 627 q 115 635 113 631 q 121 641 117 638 q 134 644 126 643 q 153 645 142 645 q 173 644 165 645 q 185 641 181 643 q 192 635 190 638 q 194 627 194 631 l 194 14 m 373 883 q 339 782 373 817 q 251 747 306 747 q 207 754 227 747 q 172 772 188 761 q 141 795 155 783 q 114 819 127 808 q 87 837 100 829 q 58 844 73 844 q 16 822 28 844 q 5 764 5 800 q 4 756 5 760 q -1 751 3 753 q -12 748 -5 749 q -31 747 -19 747 q -45 748 -39 747 q -55 752 -52 749 q -60 761 -58 755 q -62 776 -62 767 q -30 874 -62 837 q 60 911 1 911 q 122 896 96 911 q 170 863 149 881 q 211 830 191 845 q 254 814 231 814 q 293 834 280 814 q 307 894 307 854 q 312 907 307 903 q 338 911 318 911 q 366 906 359 911 q 373 883 373 901 z "},"ï":{"ha":307,"x_min":-98,"x_max":305,"o":"m 194 14 q 192 6 194 9 q 185 1 190 3 q 173 -3 181 -1 q 153 -4 165 -4 q 134 -3 142 -4 q 121 1 126 -1 q 115 6 117 3 q 113 14 113 9 l 113 627 q 115 635 113 631 q 121 641 117 638 q 134 644 126 643 q 153 645 142 645 q 173 644 165 645 q 185 641 181 643 q 192 635 190 638 q 194 627 194 631 l 194 14 m 104 821 q 93 780 104 791 q 53 768 81 768 q 14 779 24 768 q 3 821 3 790 q 14 863 3 852 q 53 874 25 874 q 93 863 82 874 q 104 821 104 852 m 305 821 q 294 780 305 791 q 254 768 283 768 q 215 779 226 768 q 204 821 204 790 q 215 863 204 852 q 254 874 227 874 q 294 863 283 874 q 305 821 305 852 m -98 642 z "},"ī":{"ha":307,"x_min":-121,"x_max":329,"o":"m 194 14 q 192 6 194 9 q 185 1 190 3 q 173 -3 181 -1 q 153 -4 165 -4 q 134 -3 142 -4 q 121 1 126 -1 q 115 6 117 3 q 113 14 113 9 l 113 627 q 115 635 113 631 q 121 641 117 638 q 134 644 126 643 q 153 645 142 645 q 173 644 165 645 q 185 641 181 643 q 192 635 190 638 q 194 627 194 631 l 194 14 m 311 866 q 319 864 315 866 q 324 858 322 862 q 328 847 326 854 q 329 832 329 841 q 328 818 329 824 q 324 807 326 812 q 319 801 322 803 q 311 798 315 798 l -2 798 q -10 801 -7 798 q -16 807 -14 803 q -20 818 -18 812 q -21 832 -21 824 q -20 847 -21 841 q -16 858 -18 854 q -10 864 -14 862 q -2 866 -7 866 l 311 866 m -121 642 z "},"ĭ":{"ha":307,"x_min":-109,"x_max":317,"o":"m 194 14 q 192 6 194 9 q 185 1 190 3 q 173 -3 181 -1 q 153 -4 165 -4 q 134 -3 142 -4 q 121 1 126 -1 q 115 6 117 3 q 113 14 113 9 l 113 627 q 115 635 113 631 q 121 641 117 638 q 134 644 126 643 q 153 645 142 645 q 173 644 165 645 q 185 641 181 643 q 192 635 190 638 q 194 627 194 631 l 194 14 m 255 928 q 261 940 255 935 q 286 944 267 944 q 302 943 296 944 q 311 940 308 942 q 316 935 315 938 q 317 928 317 932 q 306 848 317 882 q 274 791 295 814 q 223 758 254 769 q 154 747 193 747 q 81 759 112 747 q 31 794 51 771 q 1 850 11 817 q -8 926 -8 883 q -2 940 -8 935 q 22 944 5 944 q 38 943 32 944 q 47 940 44 942 q 52 935 51 938 q 54 928 54 932 q 61 880 55 901 q 80 843 68 858 q 111 819 92 827 q 154 811 129 811 q 193 818 175 811 q 224 838 210 824 q 245 874 237 852 q 255 928 254 896 m -109 642 z "},"į":{"ha":307,"x_min":15,"x_max":245,"o":"m 127 -79 q 99 -116 104 -102 q 93 -141 93 -130 q 106 -171 93 -161 q 147 -181 119 -181 l 229 -181 q 236 -182 233 -181 q 241 -186 239 -183 q 244 -195 243 -189 q 245 -209 245 -200 q 244 -221 245 -216 q 241 -229 243 -226 q 235 -234 239 -233 q 225 -237 231 -236 q 183 -245 204 -243 q 138 -248 162 -248 q 86 -241 109 -248 q 47 -222 63 -235 q 23 -192 32 -210 q 15 -151 15 -174 q 16 -130 15 -141 q 23 -106 18 -119 q 39 -78 28 -94 q 69 -44 50 -63 l 113 0 l 113 627 q 115 635 113 631 q 121 641 117 638 q 134 644 126 643 q 153 645 142 645 q 173 644 165 645 q 185 641 181 643 q 192 635 190 638 q 194 627 194 631 l 194 14 q 191 -6 194 5 q 182 -24 188 -18 l 127 -79 m 206 834 q 195 790 206 802 q 153 779 183 779 q 112 790 123 779 q 100 833 100 801 q 112 878 100 866 q 154 889 123 889 q 195 878 184 889 q 206 834 206 867 z "},"ı":{"ha":307,"x_min":113,"x_max":194,"o":"m 194 14 q 192 6 194 9 q 185 1 190 3 q 173 -3 181 -1 q 153 -4 165 -4 q 134 -3 142 -4 q 121 1 126 -1 q 115 6 117 3 q 113 14 113 9 l 113 627 q 115 635 113 631 q 121 641 117 638 q 134 644 126 643 q 153 645 142 645 q 173 644 165 645 q 185 641 181 643 q 192 635 190 638 q 194 627 194 631 l 194 14 z "},"ĳ":{"ha":626,"x_min":100,"x_max":526,"o":"m 194 14 q 192 6 194 9 q 185 1 190 3 q 173 -3 181 -1 q 153 -4 165 -4 q 134 -3 142 -4 q 121 1 126 -1 q 115 6 117 3 q 113 14 113 9 l 113 627 q 115 635 113 631 q 121 641 117 638 q 134 644 126 643 q 153 645 142 645 q 173 644 165 645 q 185 641 181 643 q 192 635 190 638 q 194 627 194 631 l 194 14 m 206 834 q 195 790 206 802 q 153 779 183 779 q 112 790 123 779 q 100 833 100 801 q 112 878 100 866 q 154 889 123 889 q 195 878 184 889 q 206 834 206 867 m 513 -18 q 504 -123 513 -83 q 474 -191 494 -163 q 422 -233 454 -219 q 343 -248 390 -248 q 312 -245 326 -248 q 292 -240 299 -243 q 281 -234 284 -237 q 277 -225 278 -230 q 276 -217 276 -221 q 275 -208 275 -213 q 276 -192 275 -199 q 279 -182 277 -186 q 284 -176 281 -178 q 292 -174 288 -174 q 308 -175 296 -174 q 339 -177 321 -177 q 382 -170 364 -177 q 411 -145 399 -162 q 427 -100 422 -127 q 432 -18 432 -72 l 432 627 q 434 635 432 631 q 440 641 436 638 q 453 644 445 643 q 473 645 460 645 q 492 644 484 645 q 504 641 500 643 q 511 635 509 638 q 513 627 513 631 l 513 -18 m 526 834 q 514 790 526 802 q 472 779 503 779 q 431 790 442 779 q 420 833 420 801 q 431 878 420 866 q 473 889 443 889 q 514 878 503 889 q 526 834 526 867 z "}}}
